<svg width="16" height="16" viewBox="0 0 16 16" fill="none" xmlns="http://www.w3.org/2000/svg">
<path d="M3.3374 14.3449C3.3374 15.2574 4.0861 16 5.00611 16C5.92612 16 6.67482 15.2574 6.67482 14.3449C6.67482 13.4323 5.92612 12.6897 5.00611 12.6897C4.0861 12.6897 3.3374 13.4323 3.3374 14.3449ZM5.56234 14.3449C5.56234 14.6489 5.3126 14.8966 5.00611 14.8966C4.69962 14.8966 4.44987 14.6489 4.44987 14.3449C4.44987 14.0409 4.69962 13.7931 5.00611 13.7931C5.3126 13.7931 5.56234 14.0409 5.56234 14.3449Z" fill="white"/>
<path d="M13.3496 14.3449C13.3496 13.4323 12.6009 12.6897 11.6809 12.6897C10.7609 12.6897 10.0122 13.4323 10.0122 14.3449C10.0122 15.2574 10.7609 16 11.6809 16C12.6009 16 13.3496 15.2574 13.3496 14.3449ZM11.1247 14.3449C11.1247 14.0409 11.3744 13.7931 11.6809 13.7931C11.9874 13.7931 12.2371 14.0409 12.2371 14.3449C12.2371 14.6489 11.9874 14.8966 11.6809 14.8966C11.3744 14.8966 11.1247 14.6489 11.1247 14.3449Z" fill="white"/>
<path d="M1.72433 1.10345C1.7933 1.75503 2.56091 8.98703 2.67939 10.1043C2.76894 10.949 3.48259 11.5862 4.33919 11.5862H13.007C13.7885 11.5862 14.4749 11.0356 14.639 10.2775L15.9751 4.09324C16.0457 3.76552 15.9645 3.42841 15.752 3.16855C15.5396 2.90814 15.2242 2.75862 14.8865 2.75862H3.01869L2.7784 0.494345C2.74836 0.212966 2.50974 0 2.22494 0H0.556236C0.249194 0 0 0.247172 0 0.551724C0 0.856276 0.249194 1.10345 0.556236 1.10345H1.72433ZM14.8865 3.86207L13.551 10.0463C13.4959 10.299 13.2673 10.4828 13.0065 10.4828H4.33919C4.05329 10.4828 3.81578 10.2703 3.78574 9.98897L3.1355 3.86207H14.8865Z" fill="white"/>
</svg>
