<svg width="18" height="18" viewBox="0 0 18 18" fill="none" xmlns="http://www.w3.org/2000/svg">
<path d="M18 9.00611C18.0031 11.017 17.3297 12.9707 16.0877 14.5542C14.8457 16.1378 13.1069 17.2596 11.15 17.74C9.19299 18.2204 7.13106 18.0315 5.29448 17.2035C3.45791 16.3756 1.95297 14.9566 1.02075 13.1738C0.0885295 11.3911 -0.217019 9.34767 0.153049 7.37102C0.523117 5.39437 1.54739 3.59884 3.06177 2.27208C4.57616 0.945318 6.49302 0.164098 8.5053 0.0535662C10.5176 -0.0569656 12.5088 0.509588 14.16 1.66247L14.05 1.34318C13.9651 1.08517 13.9865 0.804085 14.1093 0.561765C14.2321 0.319445 14.4464 0.135738 14.705 0.0510574C14.9636 -0.0336233 15.2453 -0.0123411 15.4881 0.110222C15.731 0.232786 15.9151 0.44659 16 0.704602L17 3.69794C17.0496 3.84799 17.0627 4.00764 17.0384 4.16376C17.0141 4.31988 16.9529 4.46801 16.86 4.59594C16.7632 4.73195 16.6337 4.84158 16.4835 4.91479C16.3333 4.988 16.167 5.02246 16 5.015H13C12.7348 5.015 12.4804 4.90988 12.2929 4.72276C12.1054 4.53564 12 4.28185 12 4.01723C12.0036 3.80603 12.0743 3.60143 12.2019 3.43288C12.3295 3.26434 12.5074 3.14054 12.71 3.07931C11.3945 2.25897 9.84323 1.89786 8.29976 2.0527C6.75628 2.20753 5.30808 2.86954 4.18261 3.93474C3.05714 4.99994 2.31817 6.40798 2.08176 7.93772C1.84536 9.46745 2.12492 11.0322 2.87653 12.3862C3.62814 13.7402 4.80922 14.8067 6.23426 15.4183C7.6593 16.0298 9.24756 16.1517 10.7496 15.7649C12.2516 15.378 13.5823 14.5043 14.5326 13.2809C15.483 12.0576 15.9991 10.5539 16 9.00611C16 8.74149 16.1053 8.4877 16.2929 8.30058C16.4804 8.11346 16.7348 8.00834 17 8.00834C17.2652 8.00834 17.5196 8.11346 17.7071 8.30058C17.8946 8.4877 18 8.74149 18 9.00611V9.00611Z" fill="white"/>
</svg>
