<svg width="26" height="26" viewBox="0 0 26 26" fill="none" xmlns="http://www.w3.org/2000/svg">
<g clip-path="url(#clip0_99_5861)">
<path d="M7.04167 14.0833C3.159 14.0833 0 10.9243 0 7.04167C0 3.159 3.159 0 7.04167 0C10.9243 0 14.0833 3.159 14.0833 7.04167C14.0833 10.9243 10.9243 14.0833 7.04167 14.0833ZM7.04167 1.08333C3.75592 1.08333 1.08333 3.75592 1.08333 7.04167C1.08333 10.3274 3.75592 13 7.04167 13C10.3274 13 13 10.3274 13 7.04167C13 3.75592 10.3274 1.08333 7.04167 1.08333Z" fill="#C5C5C5" stroke="#C5C5C5" stroke-width="0.6"/>
<path d="M5.95836 9.74996C5.81536 9.74996 5.67669 9.69255 5.57486 9.5918L3.40819 7.42513C3.19694 7.21388 3.19694 6.87046 3.40819 6.65921C3.61944 6.44796 3.96286 6.44796 4.17411 6.65921L5.93128 8.41638L9.34161 4.51855C9.53878 4.29213 9.88111 4.26938 10.1064 4.46763C10.3318 4.6648 10.3545 5.00713 10.1574 5.23246L6.36569 9.5658C6.26711 9.67846 6.12628 9.74455 5.97678 9.74996C5.97028 9.74996 5.96378 9.74996 5.95836 9.74996Z" fill="#C5C5C5" stroke="#C5C5C5" stroke-width="0.6"/>
<path d="M5.83708 23.8333H2.70841C2.40941 23.8333 2.16675 23.5906 2.16675 23.2916V14.6791C2.16675 14.3801 2.40941 14.1375 2.70841 14.1375C3.00741 14.1375 3.25008 14.379 3.25008 14.6791V22.75H5.83708C6.13608 22.75 6.37875 22.9926 6.37875 23.2916C6.37875 23.5906 6.13608 23.8333 5.83708 23.8333Z" fill="#C5C5C5" stroke="#C5C5C5" stroke-width="0.6"/>
<path d="M17.875 23.8334H10.2917C9.99267 23.8334 9.75 23.5907 9.75 23.2917C9.75 22.9927 9.99267 22.75 10.2917 22.75H17.3333V11.9167H14.625C14.326 11.9167 14.0833 11.674 14.0833 11.375C14.0833 11.076 14.326 10.8334 14.625 10.8334H17.875C18.174 10.8334 18.4167 11.076 18.4167 11.375V23.2917C18.4167 23.5907 18.174 23.8334 17.875 23.8334Z" fill="#C5C5C5" stroke="#C5C5C5" stroke-width="0.6"/>
<path d="M25.4583 23.8334H23.2916C22.9926 23.8334 22.7499 23.5907 22.7499 23.2917C22.7499 22.9927 22.9926 22.75 23.2916 22.75H24.9166V18.98C24.9166 17.2055 23.4736 15.7625 21.6991 15.7625H18.4166V22.75H18.9583C19.2573 22.75 19.4999 22.9927 19.4999 23.2917C19.4999 23.5907 19.2573 23.8334 18.9583 23.8334H17.8749C17.5759 23.8334 17.3333 23.5907 17.3333 23.2917V15.2209C17.3333 14.9219 17.5759 14.6792 17.8749 14.6792H21.6991C24.0705 14.6792 25.9999 16.6086 25.9999 18.98V23.2917C25.9999 23.5907 25.7573 23.8334 25.4583 23.8334Z" fill="#C5C5C5" stroke="#C5C5C5" stroke-width="0.6"/>
<path d="M8.12508 26C6.63225 26 5.41675 24.7845 5.41675 23.2917C5.41675 21.7989 6.63225 20.5834 8.12508 20.5834C9.61791 20.5834 10.8334 21.7989 10.8334 23.2917C10.8334 24.7845 9.61791 26 8.12508 26ZM8.12508 21.6667C7.22916 21.6667 6.50008 22.3958 6.50008 23.2917C6.50008 24.1876 7.22916 24.9167 8.12508 24.9167C9.021 24.9167 9.75008 24.1876 9.75008 23.2917C9.75008 22.3958 9.021 21.6667 8.12508 21.6667Z" fill="#C5C5C5" stroke="#C5C5C5" stroke-width="0.6"/>
<path d="M21.1251 26C19.6322 26 18.4167 24.7845 18.4167 23.2917C18.4167 21.7989 19.6322 20.5834 21.1251 20.5834C22.6179 20.5834 23.8334 21.7989 23.8334 23.2917C23.8334 24.7845 22.6179 26 21.1251 26ZM21.1251 21.6667C20.2292 21.6667 19.5001 22.3958 19.5001 23.2917C19.5001 24.1876 20.2292 24.9167 21.1251 24.9167C22.021 24.9167 22.7501 24.1876 22.7501 23.2917C22.7501 22.3958 22.021 21.6667 21.1251 21.6667Z" fill="#C5C5C5" stroke="#C5C5C5" stroke-width="0.6"/>
</g>
<defs>
<clipPath id="clip0_99_5861">
<rect width="26" height="26" fill="white"/>
</clipPath>
</defs>
</svg>
