<svg width="25" height="25" viewBox="0 0 25 25" fill="none" xmlns="http://www.w3.org/2000/svg">
<g clip-path="url(#clip0_99_5848)">
<path d="M17.7083 22.9167C14.8365 22.9167 12.5 20.5802 12.5 17.7083C12.5 14.8365 14.8365 12.5 17.7083 12.5C20.5802 12.5 22.9167 14.8365 22.9167 17.7083C22.9167 20.5802 20.5802 22.9167 17.7083 22.9167ZM17.7083 13.5417C15.4104 13.5417 13.5417 15.4104 13.5417 17.7083C13.5417 20.0063 15.4104 21.875 17.7083 21.875C20.0063 21.875 21.875 20.0063 21.875 17.7083C21.875 15.4104 20.0063 13.5417 17.7083 13.5417Z" fill="#C5C5C5" stroke="#C5C5C5" stroke-width="0.6"/>
<path d="M24.4791 24.9998C24.3457 24.9998 24.2124 24.9488 24.1103 24.8477L20.6541 21.3915C20.4509 21.1884 20.4509 20.8582 20.6541 20.655C20.8572 20.4519 21.1874 20.4519 21.3905 20.655L24.8468 24.1113C25.0499 24.3144 25.0499 24.6446 24.8468 24.8477C24.7457 24.9488 24.6124 24.9998 24.4791 24.9998Z" fill="#C5C5C5" stroke="#C5C5C5" stroke-width="0.6"/>
<path d="M10.9376 20.8333H2.60425C1.74279 20.8333 1.04175 20.1323 1.04175 19.2708V7.81246C1.04175 7.52496 1.27508 7.29163 1.56258 7.29163H19.2709C19.5584 7.29163 19.7917 7.52496 19.7917 7.81246V11C19.7917 11.2875 19.5584 11.5208 19.2709 11.5208C18.9834 11.5208 18.7501 11.2875 18.7501 11V8.33329H2.08341V19.2708C2.08341 19.5573 2.31779 19.7916 2.60425 19.7916H10.9376C11.2251 19.7916 11.4584 20.025 11.4584 20.3125C11.4584 20.6 11.2251 20.8333 10.9376 20.8333Z" fill="#C5C5C5" stroke="#C5C5C5" stroke-width="0.6"/>
<path d="M13.0209 11.4583H7.81258C7.52508 11.4583 7.29175 11.225 7.29175 10.9375C7.29175 10.65 7.52508 10.4166 7.81258 10.4166H13.0209C13.3084 10.4166 13.5417 10.65 13.5417 10.9375C13.5417 11.225 13.3084 11.4583 13.0209 11.4583Z" fill="#C5C5C5" stroke="#C5C5C5" stroke-width="0.6"/>
<path d="M20.3125 8.33333H0.520833C0.233333 8.33333 0 8.1 0 7.8125V3.64583C0 3.35833 0.233333 3.125 0.520833 3.125H20.3125C20.6 3.125 20.8333 3.35833 20.8333 3.64583V7.8125C20.8333 8.1 20.6 8.33333 20.3125 8.33333ZM1.04167 7.29167H19.7917V4.16667H1.04167V7.29167Z" fill="#C5C5C5" stroke="#C5C5C5" stroke-width="0.6"/>
<path d="M20.3125 4.16667C20.1791 4.16667 20.0458 4.11563 19.9437 4.01458L16.9718 1.04167H3.86141L0.889535 4.01458C0.68641 4.21771 0.356201 4.21771 0.153076 4.01458C-0.0500488 3.81146 -0.0500488 3.48125 0.153076 3.27813L3.27808 0.153125C3.37495 0.0552083 3.50724 0 3.64578 0H17.1875C17.326 0 17.4583 0.0552083 17.5562 0.152083L20.6812 3.27708C20.8843 3.48021 20.8843 3.81042 20.6812 4.01354C20.5791 4.11563 20.4458 4.16667 20.3125 4.16667Z" fill="#C5C5C5" stroke="#C5C5C5" stroke-width="0.6"/>
</g>
<defs>
<clipPath id="clip0_99_5848">
<rect width="25" height="25" fill="white"/>
</clipPath>
</defs>
</svg>
