<svg width="26" height="26" viewBox="0 0 26 26" fill="none" xmlns="http://www.w3.org/2000/svg">
<g clip-path="url(#clip0_99_5813)">
<path d="M9.74998 11.3919C6.76321 11.3919 4.33325 8.9621 4.33325 5.97533C4.33325 2.98856 6.76321 0.558594 9.74998 0.558594C12.7368 0.558594 15.1667 2.98856 15.1667 5.97533C15.1667 8.9621 12.7368 11.3919 9.74998 11.3919ZM9.74998 2.18359C7.65923 2.18359 5.95825 3.88437 5.95825 5.97533C5.95825 8.06609 7.65923 9.76686 9.74998 9.76686C11.8407 9.76686 13.5417 8.06609 13.5417 5.97533C13.5417 3.88437 11.8407 2.18359 9.74998 2.18359Z" fill="#C5C5C5"/>
<path d="M24.1042 25.4753H18.1458C17.1004 25.4753 16.25 24.6249 16.25 23.5793V19.7878C16.25 18.7422 17.1004 17.8918 18.1458 17.8918H24.1042C25.1496 17.8918 26 18.7422 26 19.7878V23.5793C26 24.6249 25.1496 25.4753 24.1042 25.4753ZM18.1458 19.5168C17.9964 19.5168 17.875 19.6382 17.875 19.7878V23.5793C17.875 23.7289 17.9964 23.8503 18.1458 23.8503H24.1042C24.2536 23.8503 24.375 23.7289 24.375 23.5793V19.7878C24.375 19.6382 24.2536 19.5168 24.1042 19.5168H18.1458Z" fill="#C5C5C5"/>
<path d="M23.0208 19.5169H19.2292C18.7807 19.5169 18.4167 19.1529 18.4167 18.7044V16.2669C18.4167 14.7742 19.6321 13.5586 21.125 13.5586C22.6179 13.5586 23.8333 14.7742 23.8333 16.2669V18.7044C23.8333 19.1529 23.4693 19.5169 23.0208 19.5169ZM20.0417 17.8919H22.2083V16.2669C22.2083 15.67 21.7219 15.1836 21.125 15.1836C20.5281 15.1836 20.0417 15.67 20.0417 16.2669V17.8919Z" fill="#C5C5C5"/>
<path d="M13.5417 23.3086H0.8125C0.363998 23.3086 0 22.9446 0 22.4961V18.7044C0 15.8672 2.30856 13.5586 5.14577 13.5586H14.625C15.5307 13.5586 16.4222 13.798 17.2023 14.2519C17.5902 14.4772 17.7211 14.9745 17.4959 15.3623C17.2706 15.7513 16.7733 15.8812 16.3843 15.6559C15.8525 15.3472 15.2435 15.1836 14.625 15.1836H5.14577C3.20457 15.1836 1.625 16.7632 1.625 18.7044V21.6836H13.5417C13.9902 21.6836 14.3542 22.0476 14.3542 22.4961C14.3542 22.9446 13.9902 23.3086 13.5417 23.3086Z" fill="#C5C5C5"/>
</g>
<defs>
<clipPath id="clip0_99_5813">
<rect width="26" height="26" fill="white"/>
</clipPath>
</defs>
</svg>
