<svg width="99" height="99" viewBox="0 0 99 99" fill="none" xmlns="http://www.w3.org/2000/svg">
<g clip-path="url(#clip0_37_494)">
<path d="M49.5 0C22.1629 0 0 22.1629 0 49.5C0 76.8372 22.1629 99 49.5 99C76.8372 99 99 76.8372 99 49.5C99 22.1629 76.8372 0 49.5 0Z" fill="#4B067E"/>
<path d="M23.2245 77.2335C52.9805 77.2335 77.104 53.11 77.104 23.3539C77.1109 17.7232 76.234 12.1263 74.5053 6.76751C66.9232 2.32145 58.2896 -0.0151881 49.5001 -6.43776e-05C22.1629 -6.43776e-05 5.62949e-05 22.1628 5.62949e-05 49.4999C-0.0133566 58.3726 2.37029 67.0842 6.89912 74.714C12.1789 76.3888 17.6855 77.2386 23.2245 77.2335Z" fill="#560096"/>
<path d="M49.4788 83.0769C47.8878 83.0769 46.3326 82.6052 45.0097 81.7214C43.6867 80.8377 42.6555 79.5816 42.0463 78.1119C41.4371 76.6422 41.2773 75.0249 41.5871 73.4644C41.897 71.9039 42.6625 70.4703 43.7869 69.3447C44.9113 68.2192 46.3442 67.4523 47.9044 67.141C49.4646 66.8297 51.0821 66.9879 52.5524 67.5957C54.0227 68.2035 55.2798 69.2335 56.1648 70.5556C57.0498 71.8777 57.5229 73.4325 57.5245 75.0234C57.5255 76.0807 57.3181 77.1277 56.9143 78.1048C56.5104 79.0818 55.9179 79.9697 55.1707 80.7176C54.4235 81.4655 53.5362 82.0589 52.5595 82.4637C51.5829 82.8685 50.536 83.0769 49.4788 83.0769ZM57.277 55.3685C57.1416 56.6117 56.58 57.7698 55.6876 58.6459C54.7834 59.5282 53.607 60.0782 52.3502 60.2063H52.3134C51.5252 60.2965 50.7324 60.3417 49.939 60.3417C48.9879 60.3465 48.0372 60.3013 47.0908 60.2063H47.0521C45.796 60.0778 44.6203 59.5278 43.7167 58.6459C42.8242 57.7698 42.2626 56.6117 42.1273 55.3685C41.9339 53.5528 41.8372 40.9438 41.8372 38.1343C41.8372 35.3248 41.9358 22.683 42.1273 20.8673C42.2605 19.6206 42.8222 18.4588 43.7167 17.5802C44.6211 16.6994 45.7964 16.1496 47.0521 16.0198H47.0908C48.0371 15.9253 48.9887 15.8962 49.939 15.9328C50.7309 15.8962 51.5244 15.9253 52.3115 16.0198H52.3502C53.6086 16.1535 54.7848 16.7089 55.6876 17.5957C56.582 18.4743 57.1438 19.6361 57.277 20.8828C57.4703 22.6985 57.567 35.3422 57.567 38.1498C57.567 40.9574 57.4684 53.5605 57.277 55.3685Z" fill="white"/>
</g>
<defs>
<clipPath id="clip0_37_494">
<rect width="99" height="99" fill="white"/>
</clipPath>
</defs>
</svg>
