<svg width="24" height="24" viewBox="0 0 24 24" fill="none" xmlns="http://www.w3.org/2000/svg">
<g clip-path="url(#clip0_99_5823)">
<path d="M17 22C14.243 22 12 19.757 12 17C12 14.243 14.243 12 17 12C19.757 12 22 14.243 22 17C22 19.757 19.757 22 17 22ZM17 13C14.794 13 13 14.794 13 17C13 19.206 14.794 21 17 21C19.206 21 21 19.206 21 17C21 14.794 19.206 13 17 13Z" fill="#C5C5C5" stroke="#C5C5C5" stroke-width="0.8"/>
<path d="M23.5001 24.0001C23.3721 24.0001 23.2441 23.9511 23.1461 23.8541L20.0781 20.7861C19.8831 20.5911 19.8831 20.2741 20.0781 20.0791C20.2731 19.8841 20.5901 19.8841 20.7851 20.0791L23.8531 23.1471C24.0481 23.3421 24.0481 23.6591 23.8531 23.8541C23.7561 23.9511 23.6281 24.0001 23.5001 24.0001Z" fill="#C5C5C5" stroke="#C5C5C5" stroke-width="0.8"/>
<path d="M1.5 20.7241C1.16 20.7241 0.832 20.6101 0.563 20.3941C0.205 20.1071 0 19.6791 0 19.2201V3.11006C0 2.54906 0.324 2.02407 0.826 1.77306C5.603 -0.632935 9.169 -0.619935 12 1.82507C14.832 -0.619935 18.397 -0.631935 23.175 1.77407C23.676 2.02407 24 2.54906 24 3.11006V13.5001C24 13.7761 23.776 14.0001 23.5 14.0001C23.224 14.0001 23 13.7761 23 13.5001V3.11006C23 2.92406 22.893 2.75106 22.727 2.66806C18.182 0.378065 14.883 0.439065 12.346 2.86206C12.153 3.04706 11.849 3.04706 11.656 2.86206C9.117 0.439065 5.819 0.378065 1.275 2.66706C1.107 2.75006 1 2.92406 1 3.11006V19.2201C1 19.3741 1.069 19.5171 1.188 19.6141C1.258 19.6701 1.408 19.7571 1.612 19.7121C5.042 18.9031 7.845 18.7831 10.177 19.3441C10.446 19.4091 10.611 19.6791 10.546 19.9481C10.482 20.2171 10.21 20.3821 9.943 20.3171C7.768 19.7921 5.114 19.9141 1.835 20.6881C1.723 20.7111 1.611 20.7241 1.5 20.7241Z" fill="#C5C5C5" stroke="#C5C5C5" stroke-width="0.8"/>
<path d="M12 11.0001C11.724 11.0001 11.5 10.7761 11.5 10.5001V2.50012C11.5 2.22412 11.724 2.00012 12 2.00012C12.276 2.00012 12.5 2.22412 12.5 2.50012V10.5001C12.5 10.7761 12.276 11.0001 12 11.0001Z" fill="#C5C5C5" stroke="#C5C5C5" stroke-width="0.8"/>
</g>
<defs>
<clipPath id="clip0_99_5823">
<rect width="24" height="24" fill="white"/>
</clipPath>
</defs>
</svg>
