<svg width="31" height="31" viewBox="0 0 31 31" fill="none" xmlns="http://www.w3.org/2000/svg">
<path d="M16.708 22.75C16.708 23.4173 16.1671 23.9583 15.4998 23.9583C14.8325 23.9583 14.2915 23.4173 14.2915 22.75C14.2915 22.0827 14.8325 21.5417 15.4998 21.5417C16.1671 21.5417 16.708 22.0827 16.708 22.75Z" fill="white" stroke="white" stroke-width="0.5"/>
<path d="M15.5 30C7.50438 30 1 23.4956 1 15.5C1 7.50438 7.50438 1 15.5 1C23.4956 1 30 7.50438 30 15.5C30 23.4956 23.4956 30 15.5 30ZM15.5 2.8125C8.50378 2.8125 2.8125 8.50378 2.8125 15.5C2.8125 22.4962 8.50378 28.1875 15.5 28.1875C22.4962 28.1875 28.1875 22.4962 28.1875 15.5C28.1875 8.50378 22.4962 2.8125 15.5 2.8125Z" fill="white" stroke="white" stroke-width="0.5"/>
<path d="M15.5002 18.823C15 18.823 14.594 18.417 14.594 17.9167V16.6963C14.594 15.546 15.3239 14.5152 16.4089 14.1322C17.8528 13.6236 18.8232 12.0852 18.8232 10.9687C18.8232 9.13567 17.3333 7.64575 15.5002 7.64575C13.6672 7.64575 12.1772 9.13567 12.1772 10.9687C12.1772 11.469 11.7712 11.875 11.271 11.875C10.7707 11.875 10.3647 11.469 10.3647 10.9687C10.3647 8.1376 12.668 5.83325 15.5002 5.83325C18.3325 5.83325 20.6357 8.1376 20.6357 10.9687C20.6357 12.9844 19.0443 15.1243 17.0118 15.842C16.6494 15.9688 16.4065 16.3131 16.4065 16.6974V17.9167C16.4065 18.417 16.0005 18.823 15.5002 18.823Z" fill="white" stroke="white" stroke-width="0.5"/>
</svg>
