<svg width="30" height="30" viewBox="0 0 30 30" fill="none" xmlns="http://www.w3.org/2000/svg">
<g clip-path="url(#clip0_41_1184)">
<path d="M30 27.6136C30 28.9091 28.9091 30 27.6137 30C26.9319 30 26.3182 29.7272 25.8409 29.25L18.2046 20.9317C17.9318 20.659 17.9318 20.25 18.2046 19.9772L19.9773 18.2044C20.2501 17.9317 20.6591 17.9317 20.9319 18.2044L29.25 25.9091C29.7273 26.3182 30 27 30 27.6136Z" fill="#B06328"/>
<path d="M18.4055 19.7555L19.7554 18.4056L17.7305 16.3808L16.3806 17.7307L18.4055 19.7555Z" fill="#B0C4D8"/>
<path d="M18.7499 18.75L19.0908 19.0909L19.7726 18.4091L17.7272 16.3636L16.3635 17.7273L17.3863 18.75C17.7954 18.3409 18.3408 18.3409 18.7499 18.75Z" fill="#99B4CD"/>
<path d="M10.2272 0C4.5682 0 0 4.5682 0 10.2272C0 15.8863 4.5682 20.4545 10.2272 20.4545C15.8863 20.4545 20.4545 15.8863 20.4545 10.2272C20.4545 4.5682 15.8863 0 10.2272 0ZM10.2272 18.4091C5.72725 18.4091 2.04545 14.7273 2.04545 10.2273C2.04545 5.7273 5.72725 2.04545 10.2272 2.04545C14.7272 2.04545 18.409 5.72725 18.409 10.2272C18.409 14.7272 14.7272 18.4091 10.2272 18.4091Z" fill="#C4D7E5"/>
<path d="M10.2272 18.409C14.7459 18.409 18.409 14.7459 18.409 10.2272C18.409 5.70853 14.7459 2.04541 10.2272 2.04541C5.70853 2.04541 2.04541 5.70853 2.04541 10.2272C2.04541 14.7459 5.70853 18.409 10.2272 18.409Z" fill="#70B7E5"/>
<path d="M6.20446 11.1818C6.54536 8.59093 8.59081 6.54548 11.1817 6.20459H11.2499C12.409 6.06824 12.4772 4.43183 11.3863 4.22734C10.7045 4.09099 10.0226 4.09099 9.34081 4.15914C6.68171 4.56824 4.56806 6.68189 4.22716 9.27279C4.09081 9.95459 4.15896 10.7046 4.29536 11.3182C4.49991 12.4773 6.13626 12.341 6.27261 11.1819C6.20446 11.25 6.20446 11.1818 6.20446 11.1818Z" fill="#92C5EB"/>
<path d="M2.72721 10.9091C2.72721 6.40913 6.409 2.72733 10.909 2.72733C13.0227 2.72733 14.8636 3.54553 16.3636 4.77278C14.8636 3.06823 12.6818 2.04553 10.2272 2.04553C5.72721 2.04553 2.04541 5.72733 2.04541 10.2273C2.04541 12.6819 3.13631 14.8637 4.77266 16.3637C3.54541 14.8637 2.72721 13.0228 2.72721 10.9091Z" fill="#4C9CD6"/>
<path d="M10.2273 20.4545C15.8864 20.4545 20.4545 15.8863 20.4545 10.2273C20.1136 10.2273 19.7727 10.5 19.7727 10.9091C19.6364 13.2273 18.6136 15.3409 17.0455 16.9091C15.4773 18.5454 13.2955 19.5682 10.9092 19.7727C10.5 19.7727 10.2273 20.1136 10.2273 20.4545Z" fill="#B0C9DB"/>
<path d="M10.2272 0C4.5682 0 0 4.5682 0 10.2272C0.340898 10.2272 0.681797 9.95449 0.681797 9.54545C0.818203 7.29545 1.77275 5.25 3.20455 3.75C4.8409 2.04545 7.0909 0.886348 9.54545 0.681797C9.95455 0.681797 10.2272 0.340898 10.2272 0Z" fill="#E2E7F0"/>
<path d="M29.1819 25.8409L28.7728 25.5C29.1137 25.9091 29.3183 26.4545 29.3183 27C29.3183 27.8863 28.2274 28.2272 27.6137 27.6136L20.4547 20.4545C20.0456 20.0454 19.4319 20.0454 19.0229 20.4545L18.3411 21.1363L25.7729 29.1136C26.182 29.5227 26.7274 29.8636 27.2729 29.9318C28.0229 30 28.7729 29.7272 29.2501 29.25C29.7274 28.7727 30.0001 28.0227 29.9319 27.2727C29.9319 26.7272 29.591 26.25 29.1819 25.8409Z" fill="#A35425"/>
<path d="M22.1592 21.1363C22.091 21.1363 21.9546 21.1363 21.8864 21.0681L20.1819 19.3636C20.0455 19.2272 20.0455 19.0227 20.1819 18.8863C20.3182 18.75 20.5227 18.75 20.6591 18.8863L22.3636 20.5909C22.5 20.7272 22.5 20.9318 22.3636 21.0681C22.3637 21.1363 22.2273 21.1363 22.1592 21.1363Z" fill="#C97629"/>
</g>
<defs>
<clipPath id="clip0_41_1184">
<rect width="30" height="30" fill="white"/>
</clipPath>
</defs>
</svg>
