<svg width="26" height="26" viewBox="0 0 26 26" fill="none" xmlns="http://www.w3.org/2000/svg">
<path d="M20.4756 7.51565C20.4756 3.37154 17.1106 0 12.9747 0C8.83868 0 5.47366 3.37154 5.47366 7.51565C5.47366 10.0825 6.76498 12.3526 8.73062 13.709C6.89543 14.3435 5.21336 15.3917 3.80021 16.8076C1.34961 19.263 0 22.5276 0 26H2.02729C2.02729 19.9518 6.93824 15.0312 12.9747 15.0312C17.1107 15.0312 20.4756 11.6597 20.4756 7.51565ZM12.9747 13C9.95648 13 7.501 10.5397 7.501 7.51565C7.501 4.49157 9.95648 2.03125 12.9747 2.03125C15.9928 2.03125 18.4483 4.49152 18.4483 7.51565C18.4483 10.5398 15.9928 13 12.9747 13ZM26 21.7344H21.7427H19.7154H15.4581V19.7031H19.7154H21.7427H26V21.7344Z" fill="url(#paint0_linear_189_1782)"/>
<defs>
<linearGradient id="paint0_linear_189_1782" x1="13" y1="0" x2="13" y2="26" gradientUnits="userSpaceOnUse">
<stop stop-color="#6137A4"/>
<stop offset="1" stop-color="#9D50BB"/>
</linearGradient>
</defs>
</svg>
