<svg width="25" height="25" viewBox="0 0 25 25" fill="none" xmlns="http://www.w3.org/2000/svg">
<g clip-path="url(#clip0_41_993)">
<path d="M9.89591 20.8333H2.60425C1.74279 20.8333 1.04175 20.1323 1.04175 19.2708V7.81246C1.04175 7.52496 1.27508 7.29163 1.56258 7.29163H19.2709C19.5584 7.29163 19.7917 7.52496 19.7917 7.81246V9.95829C19.7917 10.2458 19.5584 10.4791 19.2709 10.4791C18.9834 10.4791 18.7501 10.2458 18.7501 9.95829V8.33329H2.08341V19.2708C2.08341 19.5573 2.31675 19.7916 2.60425 19.7916H9.89591C10.1834 19.7916 10.4167 20.025 10.4167 20.3125C10.4167 20.6 10.1834 20.8333 9.89591 20.8333Z" fill="white" stroke="white" stroke-width="0.6"/>
<path d="M13.0209 11.4583H7.81258C7.52508 11.4583 7.29175 11.225 7.29175 10.9375C7.29175 10.65 7.52508 10.4166 7.81258 10.4166H13.0209C13.3084 10.4166 13.5417 10.65 13.5417 10.9375C13.5417 11.225 13.3084 11.4583 13.0209 11.4583Z" fill="white" stroke="white" stroke-width="0.6"/>
<path d="M20.3125 8.33333H0.520833C0.233333 8.33333 0 8.1 0 7.8125V3.64583C0 3.35833 0.233333 3.125 0.520833 3.125H20.3125C20.6 3.125 20.8333 3.35833 20.8333 3.64583V7.8125C20.8333 8.1 20.6 8.33333 20.3125 8.33333ZM1.04167 7.29167H19.7917V4.16667H1.04167V7.29167Z" fill="white" stroke="white" stroke-width="0.6"/>
<path d="M20.3125 4.16667C20.1791 4.16667 20.0458 4.11562 19.9437 4.01458L16.9718 1.04167H3.86141L0.889535 4.01458C0.68641 4.21771 0.356201 4.21771 0.153076 4.01458C-0.0500488 3.81146 -0.0500488 3.48125 0.153076 3.27813L3.27808 0.153125C3.37495 0.0552083 3.50724 0 3.64578 0H17.1875C17.326 0 17.4583 0.0552083 17.5562 0.152083L20.6812 3.27708C20.8843 3.48021 20.8843 3.81042 20.6812 4.01354C20.5791 4.11562 20.4458 4.16667 20.3125 4.16667Z" fill="white" stroke="white" stroke-width="0.6"/>
<path d="M18.2291 25C14.4958 25 11.4583 21.9625 11.4583 18.2292C11.4583 14.4959 14.4958 11.4584 18.2291 11.4584C21.9624 11.4584 24.9999 14.4959 24.9999 18.2292C24.9999 21.9625 21.9624 25 18.2291 25ZM18.2291 12.5C15.0697 12.5 12.4999 15.0709 12.4999 18.2292C12.4999 21.3875 15.0697 23.9584 18.2291 23.9584C21.3885 23.9584 23.9583 21.3875 23.9583 18.2292C23.9583 15.0709 21.3885 12.5 18.2291 12.5Z" fill="white" stroke="white" stroke-width="0.6"/>
<path d="M18.2291 21.875C17.9416 21.875 17.7083 21.6417 17.7083 21.3542V15.1042C17.7083 14.8167 17.9416 14.5834 18.2291 14.5834C18.5166 14.5834 18.7499 14.8167 18.7499 15.1042V21.3542C18.7499 21.6417 18.5166 21.875 18.2291 21.875Z" fill="white" stroke="white" stroke-width="0.6"/>
<path d="M21.3541 18.75H15.1041C14.8166 18.75 14.5833 18.5167 14.5833 18.2292C14.5833 17.9417 14.8166 17.7084 15.1041 17.7084H21.3541C21.6416 17.7084 21.8749 17.9417 21.8749 18.2292C21.8749 18.5167 21.6416 18.75 21.3541 18.75Z" fill="white" stroke="white" stroke-width="0.6"/>
</g>
<defs>
<clipPath id="clip0_41_993">
<rect width="25" height="25" fill="white"/>
</clipPath>
</defs>
</svg>
