<svg width="24" height="24" viewBox="0 0 24 24" fill="none" xmlns="http://www.w3.org/2000/svg">
<g clip-path="url(#clip0_100_5919)">
<path d="M17.5 24C13.916 24 11 21.084 11 17.5C11 13.916 13.916 11 17.5 11C21.084 11 24 13.916 24 17.5C24 21.084 21.084 24 17.5 24ZM17.5 12C14.468 12 12 14.468 12 17.5C12 20.532 14.468 23 17.5 23C20.532 23 23 20.532 23 17.5C23 14.468 20.532 12 17.5 12Z" fill="white" stroke="white" stroke-width="0.6"/>
<path d="M17.5 20C17.372 20 17.244 19.951 17.146 19.854L14.146 16.854C13.951 16.659 13.951 16.342 14.146 16.147C14.341 15.952 14.658 15.952 14.853 16.147L17.499 18.793L20.145 16.147C20.34 15.952 20.657 15.952 20.852 16.147C21.047 16.342 21.047 16.659 20.852 16.854L17.852 19.854C17.756 19.951 17.628 20 17.5 20Z" fill="white" stroke="white" stroke-width="0.6"/>
<path d="M9.5 20H2.5C1.673 20 1 19.327 1 18.5V7.5C1 7.224 1.224 7 1.5 7H18.5C18.776 7 19 7.224 19 7.5V9.56C19 9.836 18.776 10.06 18.5 10.06C18.224 10.06 18 9.836 18 9.56V8H2V18.5C2 18.775 2.225 19 2.5 19H9.5C9.776 19 10 19.224 10 19.5C10 19.776 9.776 20 9.5 20Z" fill="white" stroke="white" stroke-width="0.6"/>
<path d="M12.5 11H7.5C7.224 11 7 10.776 7 10.5C7 10.224 7.224 10 7.5 10H12.5C12.776 10 13 10.224 13 10.5C13 10.776 12.776 11 12.5 11Z" fill="white" stroke="white" stroke-width="0.6"/>
<path d="M19.5 8H0.5C0.224 8 0 7.776 0 7.5V3.5C0 3.224 0.224 3 0.5 3H19.5C19.776 3 20 3.224 20 3.5V7.5C20 7.776 19.776 8 19.5 8ZM1 7H19V4H1V7Z" fill="white" stroke="white" stroke-width="0.6"/>
<path d="M19.5002 4C19.3722 4 19.2442 3.951 19.1462 3.854L16.2932 1H3.70723L0.854227 3.854C0.659227 4.049 0.342227 4.049 0.147227 3.854C-0.0477734 3.659 -0.0477734 3.342 0.147227 3.147L3.14723 0.147C3.24023 0.053 3.36723 0 3.50023 0H16.5002C16.6332 0 16.7602 0.053 16.8542 0.146L19.8542 3.146C20.0492 3.341 20.0492 3.658 19.8542 3.853C19.7562 3.951 19.6282 4 19.5002 4Z" fill="white" stroke="white" stroke-width="0.6"/>
</g>
<defs>
<clipPath id="clip0_100_5919">
<rect width="24" height="24" fill="white"/>
</clipPath>
</defs>
</svg>
