<svg width="111" height="111" viewBox="0 0 111 111" fill="none" xmlns="http://www.w3.org/2000/svg">
<g clip-path="url(#clip0_37_660)">
<path d="M80.4672 86.9331C93.2104 97.5281 106.469 102.143 110.084 97.2326C113.699 92.3218 106.297 79.7538 93.5539 69.1588C80.8107 58.5638 67.5522 53.9486 63.937 58.8593C60.3218 63.7613 67.724 76.3293 80.4672 86.9331Z" fill="url(#paint0_linear_37_660)"/>
<path d="M90.5933 94.0688C90.8632 94.2253 91.1413 94.3817 91.4112 94.5295C92.4009 92.2957 93.5787 90.175 94.8056 88.2716C97.1203 84.6993 99.8439 81.3965 103.017 78.6761C103.05 78.65 103.083 78.6152 103.116 78.5892C102.903 78.3371 102.682 78.0763 102.461 77.8156C99.0833 80.7707 96.057 84.2821 93.685 88.2107C92.5726 90.0446 91.5093 92.0176 90.5933 94.0688Z" fill="#717FB5"/>
<path d="M79.8045 63.0139C84.1313 66.5426 85.9389 72.2095 83.8369 75.6601C81.7348 79.1193 76.5328 79.0498 72.206 75.521C67.8792 71.9923 66.0716 66.3254 68.1737 62.8748C70.2676 59.4243 75.4777 59.4851 79.8045 63.0139Z" fill="url(#paint1_linear_37_660)"/>
<path d="M81.8863 75.5161C84.0263 73.0031 83.0294 68.3393 79.6598 65.099C76.2901 61.8587 71.8237 61.2691 69.6838 63.782C67.5438 66.2949 68.5407 70.9588 71.9104 74.199C75.28 77.4393 79.7464 78.029 81.8863 75.5161Z" fill="#251F38"/>
<path d="M30.1324 53.3923L27.7441 67.7508C25.1922 83.1001 34.0911 97.6063 47.6277 100.144C61.1561 102.682 74.1938 92.3044 76.7457 76.9464L79.1749 62.3446C79.1831 61.9969 79.0931 61.6319 78.905 61.2582C78.8805 61.206 78.8478 61.1539 78.815 61.1017C78.447 60.4585 77.809 59.798 76.942 59.12C76.7948 59.0071 76.6475 58.9028 76.4921 58.7898C76.3367 58.6768 76.1732 58.5638 76.0014 58.4508C75.9114 58.3986 75.8296 58.3378 75.7397 58.2856C75.6497 58.2248 75.5597 58.1727 75.4697 58.1205C75.3798 58.0597 75.2898 58.0075 75.1917 57.9554C75.0035 57.8424 74.8072 57.7294 74.6109 57.6164C73.703 57.1123 72.6806 56.6082 71.5519 56.1214C69.0327 55.0176 66.0309 53.9746 62.6775 53.0707C62.3421 52.9838 61.9986 52.8882 61.6632 52.8013C60.9844 52.6274 60.281 52.4536 59.5775 52.2972L51.84 50.8457C40.062 49.1421 30.6722 50.1503 30.1324 53.3923Z" fill="url(#paint2_linear_37_660)"/>
<path opacity="0.2" d="M32.0217 54.3136C31.4737 57.599 41.1334 62.1621 53.5985 64.5001C66.0636 66.8381 76.6148 66.0733 77.1546 62.7879C77.6944 59.5025 68.0511 54.9394 55.586 52.6014C43.1209 50.2546 32.5697 51.0282 32.0217 54.3136Z" fill="url(#paint3_linear_37_660)"/>
<path d="M56.2402 51.7148C46.1961 49.8288 37.6489 50.7761 37.1418 53.8269C36.6346 56.8776 44.364 60.8844 54.4081 62.7705C64.4521 64.6566 72.9994 63.7092 73.5065 60.6584C74.0136 57.6077 66.2843 53.6009 56.2402 51.7148Z" fill="url(#paint4_linear_37_660)"/>
<path d="M70.3538 60.4127C70.7751 57.8791 64.3627 54.5571 56.0313 52.9927C47.7 51.4283 40.6045 52.2139 40.1832 54.7475C39.7619 57.281 46.1743 60.6031 54.5057 62.1675C62.837 63.7319 69.9325 62.9462 70.3538 60.4127Z" fill="#251F38"/>
<path d="M45.2557 79.945C43.0392 86.9157 45.9591 94.2687 51.7827 96.3547C57.5981 98.4407 64.117 94.486 66.3335 87.5067C68.5501 80.5361 65.6301 73.183 59.8065 71.097C53.9829 69.011 47.4723 72.9657 45.2557 79.945Z" fill="url(#paint5_linear_37_660)"/>
<path d="M31.7844 56.7386C34.0582 57.1644 34.9088 63.1182 33.7147 70.2887C32.7168 76.3033 30.6393 80.988 28.6599 82.0919C28.6027 81.8919 28.5454 81.7007 28.48 81.5008C30.0913 80.5274 32.1115 76.3293 33.1339 70.1844C34.3445 62.9096 33.363 57.6772 31.6862 57.3643C30.9419 57.2253 30.0095 58.0423 29.1016 59.6328L29.3388 58.2161C30.1485 57.1297 30.991 56.5908 31.7844 56.7386Z" fill="#717FB5"/>
<path d="M27.0078 68.7416C26.059 74.4259 26.4352 79.2497 27.8338 79.5191C29.2325 79.7799 31.1382 75.382 32.087 69.6977C33.0358 64.0134 32.6596 59.1896 31.2609 58.9201C29.8623 58.6507 27.9565 63.0573 27.0078 68.7416Z" fill="url(#paint6_linear_37_660)"/>
<path d="M31.8042 69.6451C32.5887 64.9278 32.2798 60.9262 31.1144 60.7074C29.949 60.4885 28.3683 64.1353 27.5839 68.8526C26.7995 73.5699 27.1083 77.5715 28.2737 77.7903C29.4392 78.0091 31.0198 74.3624 31.8042 69.6451Z" fill="#251F38"/>
<path opacity="0.5" d="M29.895 54.8264C35.9149 59.094 55.5368 63.1355 62.9063 61.3972C70.742 59.5546 59.0375 53.6444 59.0375 53.6444L49.3288 50.5154C38.7531 49.2899 30.6311 50.385 30.1322 53.3923L29.895 54.8264Z" fill="#251F38"/>
<path d="M81.3586 45.4308C86.3234 45.4308 91.0346 42.1454 93.652 29.6035C94.8379 23.9279 95.2633 17.331 94.9688 11.8031C94.9525 11.4555 94.9279 11.1252 94.9034 10.7862C94.4617 4.60653 93.0876 0.00868988 90.8547 0.00868988C88.7444 0.00868988 85.6854 4.11111 82.7982 9.7867C82.6509 10.0822 82.4955 10.3777 82.3483 10.6819C79.5265 16.4184 76.9418 23.5368 75.6741 29.6035C73.0567 42.1454 76.402 45.4308 81.3586 45.4308Z" fill="url(#paint7_linear_37_660)"/>
<path d="M86.4212 36.0961C86.4212 18.9042 72.7128 8.33521 55.7982 8.33521C38.8836 8.33521 25.1753 18.8955 25.1753 36.0961C25.1753 53.2967 38.8836 56.669 55.7982 56.669C72.7128 56.669 86.4212 53.288 86.4212 36.0961Z" fill="url(#paint8_linear_37_660)"/>
<path d="M29.6414 43.9967C31.1185 43.9967 32.316 39.5528 32.316 34.0709C32.316 28.5891 31.1185 24.1452 29.6414 24.1452C28.1643 24.1452 26.9668 28.5891 26.9668 34.0709C26.9668 39.5528 28.1643 43.9967 29.6414 43.9967Z" fill="url(#paint9_linear_37_660)"/>
<path d="M29.8049 42.3105C31.0291 42.3105 32.0215 38.6215 32.0215 34.0709C32.0215 29.5203 31.0291 25.8313 29.8049 25.8313C28.5808 25.8313 27.5884 29.5203 27.5884 34.0709C27.5884 38.6215 28.5808 42.3105 29.8049 42.3105Z" fill="#251F38"/>
<path d="M37.0107 32.8281C37.0107 45.8741 46.9403 53.7834 59.1846 53.7834C71.4288 53.7834 81.3584 45.8741 81.3584 32.8281C81.3584 19.782 71.437 20.234 59.1846 20.234C46.9321 20.234 37.0107 19.782 37.0107 32.8281Z" fill="#D1D9EC"/>
<path d="M37.3867 32.9237C37.3867 45.7524 47.1445 53.4792 59.1843 53.4792C71.2241 53.4792 80.9819 45.7524 80.9819 32.9237C80.9819 20.0949 71.2241 20.5382 59.1843 20.5382C47.1445 20.5382 37.3867 20.0949 37.3867 32.9237Z" fill="url(#paint10_linear_37_660)"/>
<path d="M36.1519 14.1846C40.0533 17.3831 43.096 21.529 43.7994 27.0395C43.8812 27.6826 44.7973 27.4045 44.7155 26.77C44.0039 21.1727 40.9449 16.9051 37.0025 13.6023C36.7162 13.7935 36.4299 13.9847 36.1519 14.1846Z" fill="#717FB5"/>
<path d="M75.5923 27.561C77.0891 23.841 78.226 19.8863 77.9724 16.2272C77.5962 15.8882 77.2117 15.5579 76.8191 15.2363C77.4408 19.1041 76.3611 23.2499 74.7253 27.3176C74.4881 27.8999 75.3551 28.152 75.5923 27.561Z" fill="#717FB5"/>
<path d="M38.2622 33.1844C38.2622 45.4047 47.5538 52.6361 59.021 52.6361C70.4883 52.6361 79.7799 45.4047 79.7799 33.1844C79.7799 20.9641 70.4883 21.3899 59.021 21.3899C47.5538 21.3899 38.2622 20.9641 38.2622 33.1844Z" fill="url(#paint11_radial_37_660)"/>
<path d="M50.9153 40.2072C54.1361 40.2072 56.747 37.1603 56.747 33.4017C56.747 29.6431 54.1361 26.5962 50.9153 26.5962C47.6945 26.5962 45.0835 29.6431 45.0835 33.4017C45.0835 37.1603 47.6945 40.2072 50.9153 40.2072Z" fill="black"/>
<path d="M50.9153 40.0594C54.0638 40.0594 56.6162 37.0787 56.6162 33.4017C56.6162 29.7247 54.0638 26.7439 50.9153 26.7439C47.7667 26.7439 45.2144 29.7247 45.2144 33.4017C45.2144 37.0787 47.7667 40.0594 50.9153 40.0594Z" fill="#061417"/>
<path d="M50.9153 39.9117C53.9915 39.9117 56.4853 36.9971 56.4853 33.4017C56.4853 29.8063 53.9915 26.8917 50.9153 26.8917C47.839 26.8917 45.3452 29.8063 45.3452 33.4017C45.3452 36.9971 47.839 39.9117 50.9153 39.9117Z" fill="#0C282D"/>
<path d="M50.9152 39.7552C53.9192 39.7552 56.3544 36.9106 56.3544 33.4017C56.3544 29.8927 53.9192 27.0482 50.9152 27.0482C47.9113 27.0482 45.4761 29.8927 45.4761 33.4017C45.4761 36.9106 47.9113 39.7552 50.9152 39.7552Z" fill="#133C44"/>
<path d="M50.9151 39.6075C53.8513 39.6075 56.2316 36.829 56.2316 33.4017C56.2316 29.9743 53.8513 27.1959 50.9151 27.1959C47.9789 27.1959 45.5986 29.9743 45.5986 33.4017C45.5986 36.829 47.9789 39.6075 50.9151 39.6075Z" fill="#19505B"/>
<path d="M50.9151 39.4597C53.779 39.4597 56.1007 36.7474 56.1007 33.4017C56.1007 30.0559 53.779 27.3437 50.9151 27.3437C48.0512 27.3437 45.7295 30.0559 45.7295 33.4017C45.7295 36.7474 48.0512 39.4597 50.9151 39.4597Z" fill="#1F6472"/>
<path d="M50.9151 39.3033C53.7068 39.3033 55.9698 36.661 55.9698 33.4017C55.9698 30.1423 53.7068 27.5001 50.9151 27.5001C48.1234 27.5001 45.8604 30.1423 45.8604 33.4017C45.8604 36.661 48.1234 39.3033 50.9151 39.3033Z" fill="#257888"/>
<path d="M50.9151 39.1555C53.6345 39.1555 55.839 36.5794 55.839 33.4017C55.839 30.2239 53.6345 27.6479 50.9151 27.6479C48.1957 27.6479 45.9912 30.2239 45.9912 33.4017C45.9912 36.5794 48.1957 39.1555 50.9151 39.1555Z" fill="#2B8C9F"/>
<path d="M50.9155 39.0077C53.5671 39.0077 55.7166 36.4978 55.7166 33.4017C55.7166 30.3055 53.5671 27.7956 50.9155 27.7956C48.2638 27.7956 46.1143 30.3055 46.1143 33.4017C46.1143 36.4978 48.2638 39.0077 50.9155 39.0077Z" fill="#31A0B6"/>
<path d="M50.9154 38.8513C53.4948 38.8513 55.5858 36.4114 55.5858 33.4017C55.5858 30.3919 53.4948 27.9521 50.9154 27.9521C48.3361 27.9521 46.2451 30.3919 46.2451 33.4017C46.2451 36.4114 48.3361 38.8513 50.9154 38.8513Z" fill="#38B4CD"/>
<path d="M50.9154 38.7035C53.4225 38.7035 55.4549 36.3298 55.4549 33.4017C55.4549 30.4736 53.4225 28.0998 50.9154 28.0998C48.4084 28.0998 46.376 30.4736 46.376 33.4017C46.376 36.3298 48.4084 38.7035 50.9154 38.7035Z" fill="#3EC8E3"/>
<path d="M50.9154 38.5558C53.3502 38.5558 55.324 36.2482 55.324 33.4017C55.324 30.5552 53.3502 28.2476 50.9154 28.2476C48.4806 28.2476 46.5068 30.5552 46.5068 33.4017C46.5068 36.2482 48.4806 38.5558 50.9154 38.5558Z" fill="#44DCFA"/>
<path d="M71.1506 40.7287C74.3714 40.7287 76.9824 37.6818 76.9824 33.9232C76.9824 30.1646 74.3714 27.1177 71.1506 27.1177C67.9298 27.1177 65.3188 30.1646 65.3188 33.9232C65.3188 37.6818 67.9298 40.7287 71.1506 40.7287Z" fill="black"/>
<path d="M71.1509 40.5983C74.3084 40.5983 76.8681 37.6098 76.8681 33.9232C76.8681 30.2366 74.3084 27.2481 71.1509 27.2481C67.9933 27.2481 65.4336 30.2366 65.4336 33.9232C65.4336 37.6098 67.9933 40.5983 71.1509 40.5983Z" fill="#061417"/>
<path d="M71.1506 40.4679C74.2449 40.4679 76.7534 37.5377 76.7534 33.9232C76.7534 30.3086 74.2449 27.3784 71.1506 27.3784C68.0563 27.3784 65.5479 30.3086 65.5479 33.9232C65.5479 37.5377 68.0563 40.4679 71.1506 40.4679Z" fill="#0C282D"/>
<path d="M71.1507 40.3376C74.1863 40.3376 76.6471 37.4657 76.6471 33.9232C76.6471 30.3806 74.1863 27.5088 71.1507 27.5088C68.1151 27.5088 65.6543 30.3806 65.6543 33.9232C65.6543 37.4657 68.1151 40.3376 71.1507 40.3376Z" fill="#133C44"/>
<path d="M71.1505 40.2072C74.1228 40.2072 76.5324 37.3937 76.5324 33.9232C76.5324 30.4526 74.1228 27.6392 71.1505 27.6392C68.1781 27.6392 65.7686 30.4526 65.7686 33.9232C65.7686 37.3937 68.1781 40.2072 71.1505 40.2072Z" fill="#19505B"/>
<path d="M71.1506 40.0768C74.0642 40.0768 76.4262 37.3217 76.4262 33.9232C76.4262 30.5246 74.0642 27.7696 71.1506 27.7696C68.237 27.7696 65.875 30.5246 65.875 33.9232C65.875 37.3217 68.237 40.0768 71.1506 40.0768Z" fill="#1F6472"/>
<path d="M71.1508 39.9464C74.0012 39.9464 76.3119 37.2497 76.3119 33.9232C76.3119 30.5966 74.0012 27.8999 71.1508 27.8999C68.3004 27.8999 65.9897 30.5966 65.9897 33.9232C65.9897 37.2497 68.3004 39.9464 71.1508 39.9464Z" fill="#257888"/>
<path d="M71.1506 39.8161C73.9377 39.8161 76.1971 37.1777 76.1971 33.9232C76.1971 30.6686 73.9377 28.0303 71.1506 28.0303C68.3634 28.0303 66.104 30.6686 66.104 33.9232C66.104 37.1777 68.3634 39.8161 71.1506 39.8161Z" fill="#2B8C9F"/>
<path d="M71.1507 39.6857C73.8791 39.6857 76.0909 37.1057 76.0909 33.9232C76.0909 30.7406 73.8791 28.1607 71.1507 28.1607C68.4223 28.1607 66.2104 30.7406 66.2104 33.9232C66.2104 37.1057 68.4223 39.6857 71.1507 39.6857Z" fill="#31A0B6"/>
<path d="M71.1504 39.5553C73.8156 39.5553 75.9762 37.0337 75.9762 33.9232C75.9762 30.8126 73.8156 28.291 71.1504 28.291C68.4853 28.291 66.3247 30.8126 66.3247 33.9232C66.3247 37.0337 68.4853 39.5553 71.1504 39.5553Z" fill="#38B4CD"/>
<path d="M71.1507 39.4249C73.7526 39.4249 75.8619 36.9617 75.8619 33.9232C75.8619 30.8846 73.7526 28.4214 71.1507 28.4214C68.5487 28.4214 66.4395 30.8846 66.4395 33.9232C66.4395 36.9617 68.5487 39.4249 71.1507 39.4249Z" fill="#3EC8E3"/>
<path d="M71.1508 39.3033C73.694 39.3033 75.7557 36.8945 75.7557 33.9232C75.7557 30.9518 73.694 28.5431 71.1508 28.5431C68.6076 28.5431 66.5459 30.9518 66.5459 33.9232C66.5459 36.8945 68.6076 39.3033 71.1508 39.3033Z" fill="#44DCFA"/>
<path d="M55.7983 40.494C55.7983 43.9011 58.3911 46.6563 61.5974 46.6563C64.8036 46.6563 67.3965 43.9011 67.3965 40.494H55.7983Z" fill="black"/>
<path d="M55.9131 40.5635C55.9131 43.8924 58.4568 46.5955 61.5895 46.5955C64.7221 46.5955 67.2658 43.8924 67.2658 40.5635H55.9131Z" fill="#061417"/>
<path d="M56.0356 40.6244C56.0356 43.8837 58.5221 46.5346 61.5975 46.5346C64.6729 46.5346 67.1594 43.8924 67.1594 40.6244H56.0356Z" fill="#0C282D"/>
<path d="M56.1582 40.6852C56.1582 43.875 58.5956 46.4651 61.5974 46.4651C64.5991 46.4651 67.0365 43.875 67.0365 40.6852H56.1582Z" fill="#133C44"/>
<path d="M56.2729 40.7548C56.2729 43.875 58.6531 46.4043 61.5894 46.4043C64.5258 46.4043 66.9059 43.875 66.9059 40.7548H56.2729Z" fill="#19505B"/>
<path d="M56.3955 40.8156C56.3955 43.8663 58.7266 46.3434 61.5975 46.3434C64.4684 46.3434 66.7995 43.8663 66.7995 40.8156H56.3955Z" fill="#1F6472"/>
<path d="M56.5098 40.8764C56.5098 43.8576 58.7836 46.2739 61.589 46.2739C64.3945 46.2739 66.6683 43.8576 66.6683 40.8764H56.5098Z" fill="#257888"/>
<path d="M56.6328 40.946C56.6328 43.8576 58.8576 46.2131 61.5894 46.2131C64.3294 46.2131 66.546 43.849 66.546 40.946H56.6328Z" fill="#2B8C9F"/>
<path d="M56.7554 41.0068C56.7554 43.849 58.9229 46.1522 61.5975 46.1522C64.2721 46.1522 66.4395 43.849 66.4395 41.0068H56.7554Z" fill="#31A0B6"/>
<path d="M56.8696 41.0677C56.8696 43.8403 58.9799 46.0827 61.589 46.0827C64.1982 46.0827 66.3084 43.8403 66.3084 41.0677H56.8696Z" fill="#38B4CD"/>
<path d="M56.9927 41.1372C56.9927 43.8403 59.0538 46.0305 61.5976 46.0305C64.1413 46.0305 66.2025 43.8403 66.2025 41.1372H56.9927Z" fill="#3EC8E3"/>
<path d="M57.1152 41.198C57.1152 43.8316 59.1191 45.961 61.5974 45.961C64.0757 45.961 66.0796 43.8316 66.0796 41.198H57.1152Z" fill="#44DCFA"/>
<path opacity="0.2" d="M40.3887 42.4148C43.7749 48.9509 50.8417 52.6361 59.0209 52.6361C66.9384 52.6361 73.8171 49.1856 77.3178 43.0319C76.2708 43.7881 71.4533 45.3178 66.6685 45.7959C54.825 46.9692 42.2372 43.3883 40.3887 42.4148Z" fill="url(#paint12_linear_37_660)"/>
<path opacity="0.5" d="M41.8691 29.8642C42.3354 28.3171 43.1369 26.5006 44.4538 25.8053C45.2144 25.4054 46.3023 25.1708 47.4392 25.0404C47.0302 26.6223 46.6785 28.2128 46.3677 29.8208C44.8627 29.8381 43.3659 29.8555 41.8691 29.8642Z" fill="url(#paint13_linear_37_660)"/>
<path opacity="0.5" d="M46.2452 30.4292C46.1225 31.0637 46.0162 31.6981 45.9016 32.3326H41.3213C41.3213 32.3326 41.4276 31.5243 41.6975 30.4726C43.2107 30.4639 44.732 30.4466 46.2452 30.4292Z" fill="url(#paint14_linear_37_660)"/>
<path opacity="0.5" d="M47.1857 29.8121C47.0875 29.8121 46.9976 29.8121 46.8994 29.8121C47.2184 28.1867 47.5783 26.5788 47.9954 24.9883C50.3592 24.7797 52.7394 24.9622 52.7394 24.9622L52.5022 29.7338C50.7273 29.8121 48.9524 29.786 47.1857 29.8121Z" fill="url(#paint15_linear_37_660)"/>
<path d="M82.3564 10.6732C84.0904 11.3599 85.8817 11.8727 87.7465 12.1595C89.9549 12.4985 92.6295 12.5245 94.977 11.8031C94.9606 11.4555 94.9361 11.1252 94.9115 10.7862C92.1715 11.7162 88.8589 11.4816 86.3397 10.8905C85.1292 10.6037 83.9514 10.23 82.8063 9.78671C82.6591 10.0735 82.5037 10.369 82.3564 10.6732Z" fill="#717FB5"/>
<path opacity="0.18" d="M27.2036 45.8393C27.7025 46.8389 28.2833 47.7428 28.954 48.5772C29.9028 48.8901 30.8679 48.5076 31.7431 46.9431C33.8124 43.2579 31.3668 36.0178 31.3668 36.0178L27.2036 45.8393Z" fill="#251F38"/>
<path d="M10.9681 27.4306C11.0908 27.9086 11.2217 28.378 11.3607 28.8386C11.5816 29.6122 11.8106 30.3683 12.0641 31.1071C14.1989 37.5649 16.5872 41.5631 19.0819 43.9359C19.4581 44.2922 19.8426 44.6138 20.227 44.9006C22.2227 46.3956 24.2675 46.9431 26.2878 46.9431C31.2526 46.9431 34.1889 43.6577 30.0339 31.1071C25.8952 18.5652 15.5567 1.51233 11.2626 1.51233C7.36928 1.51233 7.77824 15.4797 10.9681 27.4306Z" fill="url(#paint16_linear_37_660)"/>
<path d="M9.14404 18.4435C9.19312 18.8085 9.25037 19.1736 9.30763 19.5386C13.1191 16.6617 17.3151 14.4628 21.969 13.6892C21.7891 13.3763 21.601 13.0721 21.421 12.7679C16.9306 13.6023 12.8574 15.697 9.14404 18.4435Z" fill="#717FB5"/>
<path d="M11.3691 28.8386C11.59 29.6122 11.819 30.3683 12.0726 31.1071C14.2073 37.5649 16.5957 41.5631 19.0903 43.9359C19.4666 44.2922 19.851 44.6138 20.2354 44.9006C20.3008 44.8659 20.3581 44.8224 20.4153 44.779C22.7628 43.1015 22.4683 38.2603 19.761 33.9666C17.3236 30.1163 13.7738 28.0216 11.3691 28.8386Z" fill="url(#paint17_linear_37_660)"/>
<path d="M6.32263 77.1724C3.71347 82.6307 -5.01375 108.358 3.95066 110.861C11.1893 112.886 19.9901 91.809 22.7465 86.0378C25.511 80.2579 36.3321 60.276 30.5249 55.261C23.3272 49.0465 8.9318 71.7141 6.32263 77.1724Z" fill="url(#paint18_linear_37_660)"/>
<path d="M1.8567 90.3575C1.77491 90.6878 1.68494 91.0181 1.61133 91.3484C3.61523 91.6439 5.61096 92.1393 7.33677 92.7999C10.772 94.121 13.9374 95.7898 16.9801 97.9279C17.1355 97.6498 17.2827 97.3716 17.4217 97.0935C14.0437 94.825 10.8211 92.965 7.14047 91.6439C5.53735 91.0702 3.68885 90.6357 1.8567 90.3575Z" fill="#717FB5"/>
</g>
<defs>
<linearGradient id="paint0_linear_37_660" x1="99.1462" y1="67.4656" x2="80.8171" y2="83.3438" gradientUnits="userSpaceOnUse">
<stop stop-color="#D3DCED"/>
<stop offset="1" stop-color="#667AB0"/>
</linearGradient>
<linearGradient id="paint1_linear_37_660" x1="81.3845" y1="73.2864" x2="68.2883" y2="65.1454" gradientUnits="userSpaceOnUse">
<stop stop-color="#D3DCED"/>
<stop offset="1" stop-color="#667AB0"/>
</linearGradient>
<linearGradient id="paint2_linear_37_660" x1="69.2832" y1="62.7219" x2="28.055" y2="82.3971" gradientUnits="userSpaceOnUse">
<stop stop-color="#D3DCED"/>
<stop offset="1" stop-color="#667AB0"/>
</linearGradient>
<linearGradient id="paint3_linear_37_660" x1="53.6169" y1="65.5333" x2="56.4462" y2="47.6601" gradientUnits="userSpaceOnUse">
<stop stop-color="white"/>
<stop offset="1"/>
</linearGradient>
<linearGradient id="paint4_linear_37_660" x1="43.2059" y1="54.9694" x2="71.2562" y2="59.6338" gradientUnits="userSpaceOnUse">
<stop stop-color="#D3DCED"/>
<stop offset="1" stop-color="#667AB0"/>
</linearGradient>
<linearGradient id="paint5_linear_37_660" x1="53.9836" y1="94.6184" x2="59.4131" y2="65.7031" gradientUnits="userSpaceOnUse">
<stop stop-color="#D3DCED"/>
<stop offset="1" stop-color="#667AB0"/>
</linearGradient>
<linearGradient id="paint6_linear_37_660" x1="28.4059" y1="76.0827" x2="31.3671" y2="60.3126" gradientUnits="userSpaceOnUse">
<stop stop-color="#D3DCED"/>
<stop offset="1" stop-color="#667AB0"/>
</linearGradient>
<linearGradient id="paint7_linear_37_660" x1="95.2822" y1="11.2325" x2="74.2509" y2="39.1735" gradientUnits="userSpaceOnUse">
<stop stop-color="#D3DCED"/>
<stop offset="1" stop-color="#667AB0"/>
</linearGradient>
<linearGradient id="paint8_linear_37_660" x1="55.7951" y1="15.7129" x2="55.7951" y2="61.6173" gradientUnits="userSpaceOnUse">
<stop stop-color="#D3DCED"/>
<stop offset="1" stop-color="#667AB0"/>
</linearGradient>
<linearGradient id="paint9_linear_37_660" x1="29.6429" y1="40.6879" x2="29.6429" y2="25.4276" gradientUnits="userSpaceOnUse">
<stop stop-color="#D3DCED"/>
<stop offset="1" stop-color="#667AB0"/>
</linearGradient>
<linearGradient id="paint10_linear_37_660" x1="59.1863" y1="51.7661" x2="59.1863" y2="22.9406" gradientUnits="userSpaceOnUse">
<stop stop-color="#D3DCED"/>
<stop offset="1" stop-color="#667AB0"/>
</linearGradient>
<radialGradient id="paint11_radial_37_660" cx="0" cy="0" r="1" gradientUnits="userSpaceOnUse" gradientTransform="translate(64.1748 24.6061) scale(17.5531 18.6526)">
<stop stop-color="#4D4178"/>
<stop offset="1" stop-color="#27213B"/>
</radialGradient>
<linearGradient id="paint12_linear_37_660" x1="58.8546" y1="41.2469" x2="58.8546" y2="50.7245" gradientUnits="userSpaceOnUse">
<stop stop-color="white"/>
<stop offset="1"/>
</linearGradient>
<linearGradient id="paint13_linear_37_660" x1="44.6499" y1="25.1948" x2="44.6499" y2="34.7513" gradientUnits="userSpaceOnUse">
<stop stop-color="white"/>
<stop offset="1"/>
</linearGradient>
<linearGradient id="paint14_linear_37_660" x1="43.7842" y1="25.1947" x2="43.7842" y2="34.7513" gradientUnits="userSpaceOnUse">
<stop stop-color="white"/>
<stop offset="1"/>
</linearGradient>
<linearGradient id="paint15_linear_37_660" x1="49.816" y1="25.1948" x2="49.816" y2="34.7513" gradientUnits="userSpaceOnUse">
<stop stop-color="white"/>
<stop offset="1"/>
</linearGradient>
<linearGradient id="paint16_linear_37_660" x1="20.9896" y1="22.8371" x2="9.15243" y2="37.3802" gradientUnits="userSpaceOnUse">
<stop stop-color="#D3DCED"/>
<stop offset="1" stop-color="#667AB0"/>
</linearGradient>
<linearGradient id="paint17_linear_37_660" x1="16.6851" y1="43.5418" x2="16.6851" y2="25.5406" gradientUnits="userSpaceOnUse">
<stop stop-color="#D3DCED"/>
<stop offset="1" stop-color="#667AB0"/>
</linearGradient>
<linearGradient id="paint18_linear_37_660" x1="22.1386" y1="80.4548" x2="-7.53989" y2="97.9782" gradientUnits="userSpaceOnUse">
<stop stop-color="#D3DCED"/>
<stop offset="1" stop-color="#667AB0"/>
</linearGradient>
<clipPath id="clip0_37_660">
<rect width="111" height="111" fill="white"/>
</clipPath>
</defs>
</svg>
