<svg width="399" height="399" viewBox="0 0 399 399" fill="none" xmlns="http://www.w3.org/2000/svg">
<g clip-path="url(#clip0_37_223)">
<path d="M289.246 312.489C335.053 350.574 382.712 367.164 395.707 349.512C408.702 331.86 382.094 286.683 336.288 248.598C290.481 210.513 242.822 193.923 229.827 211.575C216.832 229.196 243.44 274.373 289.246 312.489Z" fill="url(#paint0_linear_37_223)"/>
<path d="M325.645 338.139C326.615 338.702 327.614 339.264 328.585 339.795C332.142 331.766 336.376 324.143 340.786 317.3C349.106 304.46 358.897 292.588 370.305 282.809C370.422 282.715 370.54 282.59 370.657 282.496C369.893 281.59 369.099 280.653 368.305 279.716C356.163 290.338 345.284 302.96 336.758 317.082C332.76 323.674 328.937 330.766 325.645 338.139Z" fill="#717FB5"/>
<path d="M286.865 226.509C302.418 239.194 308.916 259.564 301.36 271.967C293.804 284.402 275.105 284.152 259.551 271.467C243.998 258.783 237.501 238.413 245.057 226.009C252.583 213.606 271.312 213.825 286.865 226.509Z" fill="url(#paint1_linear_37_223)"/>
<path d="M294.348 271.45C302.04 262.417 298.457 245.652 286.344 234.004C274.232 222.357 258.177 220.237 250.485 229.27C242.792 238.303 246.376 255.068 258.488 266.715C270.601 278.363 286.656 280.482 294.348 271.45Z" fill="#251F38"/>
<path d="M108.313 191.924L99.7281 243.537C90.555 298.711 122.543 350.855 171.202 359.978C219.831 369.101 266.696 331.797 275.869 276.591L284.601 224.104C284.631 222.854 284.307 221.542 283.631 220.198C283.543 220.011 283.425 219.823 283.307 219.636C281.984 217.324 279.691 214.95 276.575 212.513C276.045 212.106 275.516 211.732 274.958 211.325C274.399 210.919 273.811 210.513 273.194 210.107C272.87 209.919 272.576 209.701 272.253 209.513C271.929 209.295 271.606 209.107 271.282 208.92C270.959 208.701 270.636 208.514 270.283 208.326C269.607 207.92 268.901 207.514 268.195 207.108C264.932 205.296 261.257 203.483 257.199 201.734C248.144 197.766 237.354 194.017 225.299 190.768C224.094 190.455 222.859 190.112 221.654 189.799C219.213 189.174 216.685 188.549 214.156 187.987L186.343 182.77C144.006 176.646 110.254 180.27 108.313 191.924Z" fill="url(#paint2_linear_37_223)"/>
<path opacity="0.2" d="M115.105 195.235C113.135 207.045 147.857 223.447 192.664 231.852C237.471 240.256 275.399 237.507 277.339 225.697C279.28 213.887 244.616 197.485 199.809 189.081C155.002 180.645 117.075 183.426 115.105 195.235Z" fill="url(#paint3_linear_37_223)"/>
<path d="M202.161 185.894C166.056 179.114 135.332 182.52 133.51 193.486C131.687 204.452 159.471 218.855 195.575 225.634C231.679 232.414 262.403 229.009 264.226 218.043C266.049 207.076 238.265 192.673 202.161 185.894Z" fill="url(#paint4_linear_37_223)"/>
<path d="M252.893 217.159C254.407 208.052 231.358 196.111 201.41 190.487C171.462 184.864 145.957 187.688 144.442 196.795C142.928 205.902 165.978 217.844 195.926 223.467C225.873 229.09 251.379 226.266 252.893 217.159Z" fill="#251F38"/>
<path d="M162.675 287.37C154.708 312.427 165.204 338.858 186.137 346.356C207.041 353.854 230.474 339.639 238.442 314.551C246.409 289.494 235.913 263.063 214.98 255.565C194.046 248.067 170.643 262.282 162.675 287.37Z" fill="url(#paint5_linear_37_223)"/>
<path d="M114.252 203.952C122.425 205.483 125.483 226.884 121.191 252.659C117.604 274.279 110.136 291.119 103.021 295.087C102.815 294.368 102.609 293.681 102.374 292.962C108.166 289.463 115.428 274.373 119.103 252.284C123.454 226.134 119.926 207.326 113.899 206.202C111.224 205.702 107.872 208.638 104.608 214.356L105.461 209.263C108.372 205.358 111.4 203.421 114.252 203.952Z" fill="#717FB5"/>
<path d="M97.0821 247.098C93.6716 267.531 95.024 284.871 100.052 285.839C105.079 286.776 111.93 270.968 115.34 250.535C118.751 230.102 117.398 212.763 112.371 211.794C107.343 210.825 100.493 226.665 97.0821 247.098Z" fill="url(#paint6_linear_37_223)"/>
<path d="M114.323 250.346C117.142 233.389 116.032 219.005 111.843 218.218C107.654 217.432 101.972 230.54 99.1524 247.497C96.3327 264.454 97.4429 278.838 101.632 279.625C105.821 280.411 111.503 267.303 114.323 250.346Z" fill="#251F38"/>
<path opacity="0.5" d="M107.46 197.079C129.1 212.419 199.632 226.947 226.123 220.698C254.289 214.075 212.216 192.83 212.216 192.83L177.317 181.582C139.302 177.177 110.107 181.114 108.313 191.924L107.46 197.079Z" fill="#251F38"/>
<path d="M292.451 163.305C310.297 163.305 327.232 151.496 336.641 106.412C340.904 86.011 342.432 62.2979 341.374 42.4275C341.315 41.1778 341.227 39.9906 341.139 38.7721C339.551 16.5586 334.612 0.0312424 326.585 0.0312424C319 0.0312424 308.004 14.7778 297.625 35.1792C297.096 36.2415 296.538 37.3037 296.008 38.3972C285.865 59.0174 276.574 84.6051 272.017 106.412C262.609 151.496 274.634 163.305 292.451 163.305Z" fill="url(#paint7_linear_37_223)"/>
<path d="M310.65 129.751C310.65 67.9528 261.374 29.9617 200.573 29.9617C139.772 29.9617 90.4961 67.9216 90.4961 129.751C90.4961 191.58 139.772 203.702 200.573 203.702C261.374 203.702 310.65 191.549 310.65 129.751Z" fill="url(#paint8_linear_37_223)"/>
<path d="M106.549 158.15C111.859 158.15 116.163 142.176 116.163 122.471C116.163 102.766 111.859 86.7921 106.549 86.7921C101.239 86.7921 96.9348 102.766 96.9348 122.471C96.9348 142.176 101.239 158.15 106.549 158.15Z" fill="url(#paint9_linear_37_223)"/>
<path d="M107.137 152.089C111.537 152.089 115.104 138.829 115.104 122.471C115.104 106.114 111.537 92.8532 107.137 92.8532C102.736 92.8532 99.1692 106.114 99.1692 122.471C99.1692 138.829 102.736 152.089 107.137 152.089Z" fill="#251F38"/>
<path d="M133.039 118.004C133.039 164.899 168.732 193.33 212.745 193.33C256.758 193.33 292.451 164.899 292.451 118.004C292.451 71.1083 256.788 72.7329 212.745 72.7329C168.702 72.7329 133.039 71.1083 133.039 118.004Z" fill="#D1D9EC"/>
<path d="M134.392 118.347C134.392 164.461 169.467 192.236 212.745 192.236C256.023 192.236 291.099 164.461 291.099 118.347C291.099 72.233 256.023 73.8264 212.745 73.8264C169.467 73.8264 134.392 72.233 134.392 118.347Z" fill="url(#paint10_linear_37_223)"/>
<path d="M129.952 50.988C143.976 62.4853 154.914 77.3881 157.442 97.1959C157.736 99.5079 161.029 98.5081 160.735 96.2274C158.177 76.1071 147.181 60.767 133.01 48.8948C131.981 49.5821 130.952 50.2694 129.952 50.988Z" fill="#717FB5"/>
<path d="M271.723 99.0705C277.104 85.6986 281.19 71.4832 280.279 58.33C278.926 57.1116 277.545 55.9244 276.133 54.7684C278.368 68.6714 274.487 83.5741 268.607 98.1957C267.754 100.289 270.871 101.195 271.723 99.0705Z" fill="#717FB5"/>
<path d="M137.538 119.284C137.538 163.212 170.937 189.206 212.157 189.206C253.377 189.206 286.777 163.212 286.777 119.284C286.777 75.3573 253.377 76.8882 212.157 76.8882C170.937 76.8882 137.538 75.3573 137.538 119.284Z" fill="url(#paint11_radial_37_223)"/>
<path d="M183.021 144.529C194.598 144.529 203.984 133.576 203.984 120.066C203.984 106.555 194.598 95.6025 183.021 95.6025C171.443 95.6025 162.058 106.555 162.058 120.066C162.058 133.576 171.443 144.529 183.021 144.529Z" fill="black"/>
<path d="M183.021 143.997C194.338 143.997 203.513 133.283 203.513 120.066C203.513 106.848 194.338 96.1337 183.021 96.1337C171.703 96.1337 162.528 106.848 162.528 120.066C162.528 133.283 171.703 143.997 183.021 143.997Z" fill="#061417"/>
<path d="M183.021 143.466C194.079 143.466 203.043 132.989 203.043 120.066C203.043 107.142 194.079 96.6648 183.021 96.6648C171.963 96.6648 162.999 107.142 162.999 120.066C162.999 132.989 171.963 143.466 183.021 143.466Z" fill="#0C282D"/>
<path d="M183.021 142.904C193.819 142.904 202.572 132.679 202.572 120.066C202.572 107.452 193.819 97.2272 183.021 97.2272C172.223 97.2272 163.469 107.452 163.469 120.066C163.469 132.679 172.223 142.904 183.021 142.904Z" fill="#133C44"/>
<path d="M183.021 142.373C193.575 142.373 202.131 132.385 202.131 120.066C202.131 107.746 193.575 97.7583 183.021 97.7583C172.466 97.7583 163.91 107.746 163.91 120.066C163.91 132.385 172.466 142.373 183.021 142.373Z" fill="#19505B"/>
<path d="M183.021 141.842C193.316 141.842 201.661 132.092 201.661 120.066C201.661 108.039 193.316 98.2894 183.021 98.2894C172.726 98.2894 164.381 108.039 164.381 120.066C164.381 132.092 172.726 141.842 183.021 141.842Z" fill="#1F6472"/>
<path d="M183.021 141.279C193.055 141.279 201.19 131.782 201.19 120.066C201.19 108.349 193.055 98.8518 183.021 98.8518C172.986 98.8518 164.851 108.349 164.851 120.066C164.851 131.782 172.986 141.279 183.021 141.279Z" fill="#257888"/>
<path d="M183.021 140.748C192.796 140.748 200.72 131.488 200.72 120.066C200.72 108.643 192.796 99.3829 183.021 99.3829C173.246 99.3829 165.321 108.643 165.321 120.066C165.321 131.488 173.246 140.748 183.021 140.748Z" fill="#2B8C9F"/>
<path d="M183.021 140.217C192.552 140.217 200.279 131.195 200.279 120.066C200.279 108.936 192.552 99.914 183.021 99.914C173.489 99.914 165.762 108.936 165.762 120.066C165.762 131.195 173.489 140.217 183.021 140.217Z" fill="#31A0B6"/>
<path d="M183.021 139.655C192.293 139.655 199.809 130.884 199.809 120.066C199.809 109.247 192.293 100.476 183.021 100.476C173.749 100.476 166.233 109.247 166.233 120.066C166.233 130.884 173.749 139.655 183.021 139.655Z" fill="#38B4CD"/>
<path d="M183.021 139.124C192.033 139.124 199.338 130.591 199.338 120.066C199.338 109.54 192.033 101.008 183.021 101.008C174.009 101.008 166.703 109.54 166.703 120.066C166.703 130.591 174.009 139.124 183.021 139.124Z" fill="#3EC8E3"/>
<path d="M183.021 138.592C191.773 138.592 198.868 130.298 198.868 120.066C198.868 109.833 191.773 101.539 183.021 101.539C174.269 101.539 167.174 109.833 167.174 120.066C167.174 130.298 174.269 138.592 183.021 138.592Z" fill="#44DCFA"/>
<path d="M255.759 146.403C267.336 146.403 276.721 135.451 276.721 121.94C276.721 108.43 267.336 97.4771 255.759 97.4771C244.181 97.4771 234.796 108.43 234.796 121.94C234.796 135.451 244.181 146.403 255.759 146.403Z" fill="black"/>
<path d="M255.759 145.934C267.109 145.934 276.31 135.192 276.31 121.94C276.31 108.688 267.109 97.9457 255.759 97.9457C244.408 97.9457 235.207 108.688 235.207 121.94C235.207 135.192 244.408 145.934 255.759 145.934Z" fill="#061417"/>
<path d="M255.759 145.466C266.881 145.466 275.898 134.933 275.898 121.94C275.898 108.947 266.881 98.4144 255.759 98.4144C244.636 98.4144 235.619 108.947 235.619 121.94C235.619 134.933 244.636 145.466 255.759 145.466Z" fill="#0C282D"/>
<path d="M255.759 144.997C266.67 144.997 275.516 134.674 275.516 121.94C275.516 109.206 266.67 98.883 255.759 98.883C244.847 98.883 236.001 109.206 236.001 121.94C236.001 134.674 244.847 144.997 255.759 144.997Z" fill="#133C44"/>
<path d="M255.758 144.529C266.443 144.529 275.104 134.415 275.104 121.94C275.104 109.465 266.443 99.3517 255.758 99.3517C245.074 99.3517 236.413 109.465 236.413 121.94C236.413 134.415 245.074 144.529 255.758 144.529Z" fill="#19505B"/>
<path d="M255.759 144.06C266.232 144.06 274.722 134.157 274.722 121.94C274.722 109.724 266.232 99.8203 255.759 99.8203C245.285 99.8203 236.795 109.724 236.795 121.94C236.795 134.157 245.285 144.06 255.759 144.06Z" fill="#1F6472"/>
<path d="M255.759 143.591C266.005 143.591 274.311 133.898 274.311 121.94C274.311 109.982 266.005 100.289 255.759 100.289C245.513 100.289 237.207 109.982 237.207 121.94C237.207 133.898 245.513 143.591 255.759 143.591Z" fill="#257888"/>
<path d="M255.759 143.123C265.777 143.123 273.899 133.639 273.899 121.94C273.899 110.241 265.777 100.758 255.759 100.758C245.74 100.758 237.618 110.241 237.618 121.94C237.618 133.639 245.74 143.123 255.759 143.123Z" fill="#2B8C9F"/>
<path d="M255.758 142.654C265.566 142.654 273.517 133.38 273.517 121.94C273.517 110.5 265.566 101.226 255.758 101.226C245.951 101.226 238 110.5 238 121.94C238 133.38 245.951 142.654 255.758 142.654Z" fill="#31A0B6"/>
<path d="M255.758 142.185C265.339 142.185 273.105 133.121 273.105 121.94C273.105 110.759 265.339 101.695 255.758 101.695C246.178 101.695 238.412 110.759 238.412 121.94C238.412 133.121 246.178 142.185 255.758 142.185Z" fill="#38B4CD"/>
<path d="M255.758 141.717C265.111 141.717 272.693 132.862 272.693 121.94C272.693 111.018 265.111 102.163 255.758 102.163C246.406 102.163 238.823 111.018 238.823 121.94C238.823 132.862 246.406 141.717 255.758 141.717Z" fill="#3EC8E3"/>
<path d="M255.759 141.279C264.9 141.279 272.311 132.621 272.311 121.94C272.311 111.259 264.9 102.601 255.759 102.601C246.617 102.601 239.206 111.259 239.206 121.94C239.206 132.621 246.617 141.279 255.759 141.279Z" fill="#44DCFA"/>
<path d="M200.573 145.56C200.573 157.807 209.893 167.711 221.418 167.711C232.943 167.711 242.264 157.807 242.264 145.56H200.573Z" fill="black"/>
<path d="M200.985 145.809C200.985 157.775 210.128 167.492 221.389 167.492C232.649 167.492 241.793 157.775 241.793 145.809H200.985Z" fill="#061417"/>
<path d="M201.426 146.028C201.426 157.744 210.363 167.273 221.418 167.273C232.473 167.273 241.411 157.775 241.411 146.028H201.426Z" fill="#0C282D"/>
<path d="M201.867 146.247C201.867 157.713 210.628 167.023 221.418 167.023C232.208 167.023 240.97 157.713 240.97 146.247H201.867Z" fill="#133C44"/>
<path d="M202.278 146.497C202.278 157.713 210.834 166.805 221.389 166.805C231.944 166.805 240.5 157.713 240.5 146.497H202.278Z" fill="#19505B"/>
<path d="M202.719 146.716C202.719 157.682 211.098 166.586 221.418 166.586C231.738 166.586 240.117 157.682 240.117 146.716H202.719Z" fill="#1F6472"/>
<path d="M203.131 146.934C203.131 157.65 211.304 166.336 221.389 166.336C231.473 166.336 239.647 157.65 239.647 146.934H203.131Z" fill="#257888"/>
<path d="M203.572 147.184C203.572 157.65 211.569 166.117 221.389 166.117C231.238 166.117 239.206 157.619 239.206 147.184H203.572Z" fill="#2B8C9F"/>
<path d="M204.013 147.403C204.013 157.619 211.804 165.899 221.418 165.899C231.032 165.899 238.824 157.619 238.824 147.403H204.013Z" fill="#31A0B6"/>
<path d="M204.425 147.622C204.425 157.588 212.01 165.649 221.389 165.649C230.768 165.649 238.353 157.588 238.353 147.622H204.425Z" fill="#38B4CD"/>
<path d="M204.865 147.872C204.865 157.588 212.275 165.461 221.418 165.461C230.562 165.461 237.971 157.588 237.971 147.872H204.865Z" fill="#3EC8E3"/>
<path d="M205.307 148.09C205.307 157.557 212.51 165.211 221.418 165.211C230.327 165.211 237.53 157.557 237.53 148.09H205.307Z" fill="#44DCFA"/>
<path opacity="0.2" d="M145.182 152.464C157.354 175.959 182.756 189.206 212.157 189.206C240.617 189.206 265.343 176.802 277.927 154.682C274.164 157.401 256.846 162.899 239.647 164.618C197.074 168.835 151.826 155.963 145.182 152.464Z" fill="url(#paint12_linear_37_223)"/>
<path opacity="0.5" d="M150.503 107.35C152.179 101.789 155.061 95.2589 159.794 92.7595C162.528 91.3223 166.439 90.4787 170.525 90.0101C169.055 95.6963 167.791 101.414 166.674 107.194C161.264 107.256 155.884 107.319 150.503 107.35Z" fill="url(#paint13_linear_37_223)"/>
<path opacity="0.5" d="M166.233 109.381C165.792 111.661 165.41 113.942 164.998 116.223H148.533C148.533 116.223 148.916 113.317 149.886 109.537C155.325 109.506 160.794 109.443 166.233 109.381Z" fill="url(#paint14_linear_37_223)"/>
<path opacity="0.5" d="M169.614 107.162C169.261 107.162 168.938 107.162 168.585 107.162C169.732 101.32 171.025 95.54 172.525 89.8226C181.022 89.0728 189.577 89.7289 189.577 89.7289L188.725 106.881C182.345 107.162 175.965 107.069 169.614 107.162Z" fill="url(#paint15_linear_37_223)"/>
<path d="M296.038 38.366C302.271 40.8342 308.71 42.6775 315.413 43.7085C323.351 44.9269 332.965 45.0207 341.403 42.4275C341.345 41.1778 341.256 39.9906 341.168 38.7721C331.319 42.1151 319.412 41.2716 310.356 39.1471C306.005 38.116 301.771 36.7726 297.655 35.1792C297.126 36.2102 296.567 37.2725 296.038 38.366Z" fill="#717FB5"/>
<path opacity="0.18" d="M97.7874 164.774C99.5808 168.367 101.668 171.616 104.079 174.615C107.49 175.74 110.959 174.365 114.105 168.742C121.543 155.495 112.752 129.47 112.752 129.47L97.7874 164.774Z" fill="#251F38"/>
<path d="M39.4266 98.6018C39.8676 100.32 40.338 102.007 40.8378 103.663C41.6317 106.444 42.4549 109.162 43.3663 111.817C51.0399 135.031 59.625 149.402 68.5923 157.932C69.9447 159.213 71.3266 160.369 72.7084 161.4C79.8823 166.773 87.2325 168.742 94.4945 168.742C112.341 168.742 122.896 156.932 107.96 111.817C93.0833 66.7343 55.9205 5.43622 40.485 5.43622C26.4902 5.43622 27.9602 55.6432 39.4266 98.6018Z" fill="url(#paint16_linear_37_223)"/>
<path d="M32.8701 66.2969C33.0465 67.6091 33.2523 68.9213 33.4581 70.2335C47.159 59.8922 62.2416 51.9878 78.9708 49.2072C78.324 48.0825 77.6477 46.989 77.0009 45.8955C60.8598 48.8948 46.2181 56.4242 32.8701 66.2969Z" fill="#717FB5"/>
<path d="M40.8672 103.663C41.661 106.444 42.4842 109.162 43.3957 111.817C51.0693 135.031 59.6544 149.402 68.6217 157.932C69.9741 159.213 71.3559 160.369 72.7378 161.4C72.973 161.275 73.1788 161.118 73.3846 160.962C81.8227 154.932 80.7643 137.53 71.0325 122.096C62.2711 108.256 49.5111 100.726 40.8672 103.663Z" fill="url(#paint17_linear_37_223)"/>
<path d="M22.7269 277.404C13.348 297.024 -18.0228 389.502 14.2006 398.5C40.2205 405.78 71.8559 330.016 81.764 309.271C91.7015 288.495 130.599 216.668 109.724 198.641C83.8514 176.302 32.1058 257.783 22.7269 277.404Z" fill="url(#paint18_linear_37_223)"/>
<path d="M6.67402 324.799C6.38001 325.986 6.0566 327.173 5.79199 328.36C12.9952 329.423 20.169 331.203 26.3726 333.578C38.721 338.327 50.0992 344.325 61.0363 352.011C61.595 351.011 62.1242 350.012 62.624 349.012C50.4814 340.857 38.8974 334.172 25.667 329.423C19.9044 327.361 13.2598 325.798 6.67402 324.799Z" fill="#717FB5"/>
</g>
<defs>
<linearGradient id="paint0_linear_37_223" x1="356.39" y1="242.512" x2="290.504" y2="299.587" gradientUnits="userSpaceOnUse">
<stop stop-color="#D3DCED"/>
<stop offset="1" stop-color="#667AB0"/>
</linearGradient>
<linearGradient id="paint1_linear_37_223" x1="292.544" y1="263.435" x2="245.469" y2="234.171" gradientUnits="userSpaceOnUse">
<stop stop-color="#D3DCED"/>
<stop offset="1" stop-color="#667AB0"/>
</linearGradient>
<linearGradient id="paint2_linear_37_223" x1="249.045" y1="225.46" x2="100.846" y2="296.184" gradientUnits="userSpaceOnUse">
<stop stop-color="#D3DCED"/>
<stop offset="1" stop-color="#667AB0"/>
</linearGradient>
<linearGradient id="paint3_linear_37_223" x1="192.731" y1="235.566" x2="202.901" y2="171.319" gradientUnits="userSpaceOnUse">
<stop stop-color="white"/>
<stop offset="1"/>
</linearGradient>
<linearGradient id="paint4_linear_37_223" x1="155.308" y1="197.593" x2="256.137" y2="214.359" gradientUnits="userSpaceOnUse">
<stop stop-color="#D3DCED"/>
<stop offset="1" stop-color="#667AB0"/>
</linearGradient>
<linearGradient id="paint5_linear_37_223" x1="194.049" y1="340.115" x2="213.566" y2="236.176" gradientUnits="userSpaceOnUse">
<stop stop-color="#D3DCED"/>
<stop offset="1" stop-color="#667AB0"/>
</linearGradient>
<linearGradient id="paint6_linear_37_223" x1="102.108" y1="273.486" x2="112.752" y2="216.799" gradientUnits="userSpaceOnUse">
<stop stop-color="#D3DCED"/>
<stop offset="1" stop-color="#667AB0"/>
</linearGradient>
<linearGradient id="paint7_linear_37_223" x1="342.501" y1="40.3762" x2="266.902" y2="140.813" gradientUnits="userSpaceOnUse">
<stop stop-color="#D3DCED"/>
<stop offset="1" stop-color="#667AB0"/>
</linearGradient>
<linearGradient id="paint8_linear_37_223" x1="200.562" y1="56.4816" x2="200.562" y2="221.489" gradientUnits="userSpaceOnUse">
<stop stop-color="#D3DCED"/>
<stop offset="1" stop-color="#667AB0"/>
</linearGradient>
<linearGradient id="paint9_linear_37_223" x1="106.554" y1="146.257" x2="106.554" y2="91.4018" gradientUnits="userSpaceOnUse">
<stop stop-color="#D3DCED"/>
<stop offset="1" stop-color="#667AB0"/>
</linearGradient>
<linearGradient id="paint10_linear_37_223" x1="212.752" y1="186.078" x2="212.752" y2="82.4622" gradientUnits="userSpaceOnUse">
<stop stop-color="#D3DCED"/>
<stop offset="1" stop-color="#667AB0"/>
</linearGradient>
<radialGradient id="paint11_radial_37_223" cx="0" cy="0" r="1" gradientUnits="userSpaceOnUse" gradientTransform="translate(230.683 88.4491) scale(63.0961 67.0486)">
<stop stop-color="#4D4178"/>
<stop offset="1" stop-color="#27213B"/>
</radialGradient>
<linearGradient id="paint12_linear_37_223" x1="211.559" y1="148.266" x2="211.559" y2="182.334" gradientUnits="userSpaceOnUse">
<stop stop-color="white"/>
<stop offset="1"/>
</linearGradient>
<linearGradient id="paint13_linear_37_223" x1="160.499" y1="90.5649" x2="160.499" y2="124.917" gradientUnits="userSpaceOnUse">
<stop stop-color="white"/>
<stop offset="1"/>
</linearGradient>
<linearGradient id="paint14_linear_37_223" x1="157.387" y1="90.5649" x2="157.387" y2="124.917" gradientUnits="userSpaceOnUse">
<stop stop-color="white"/>
<stop offset="1"/>
</linearGradient>
<linearGradient id="paint15_linear_37_223" x1="179.069" y1="90.5649" x2="179.069" y2="124.917" gradientUnits="userSpaceOnUse">
<stop stop-color="white"/>
<stop offset="1"/>
</linearGradient>
<linearGradient id="paint16_linear_37_223" x1="75.4496" y1="82.0903" x2="32.8999" y2="134.367" gradientUnits="userSpaceOnUse">
<stop stop-color="#D3DCED"/>
<stop offset="1" stop-color="#667AB0"/>
</linearGradient>
<linearGradient id="paint17_linear_37_223" x1="59.9757" y1="156.515" x2="59.9757" y2="91.808" gradientUnits="userSpaceOnUse">
<stop stop-color="#D3DCED"/>
<stop offset="1" stop-color="#667AB0"/>
</linearGradient>
<linearGradient id="paint18_linear_37_223" x1="79.5789" y1="289.202" x2="-27.1033" y2="352.192" gradientUnits="userSpaceOnUse">
<stop stop-color="#D3DCED"/>
<stop offset="1" stop-color="#667AB0"/>
</linearGradient>
<clipPath id="clip0_37_223">
<rect width="399" height="399" fill="white"/>
</clipPath>
</defs>
</svg>
