<svg width="263" height="41" viewBox="0 0 263 41" fill="none" xmlns="http://www.w3.org/2000/svg">
<g clip-path="url(#clip0_352_1454)">
<path d="M6.47771 10.0973H10.0805C10.1168 3.19808 4.54897 0.610874 1.60128 0.215607L1.0918 3.73708C1.34654 3.77301 6.47771 4.56355 6.47771 10.0973Z" fill="white"/>
<path d="M14.5564 4.95881C15.5389 6.03681 15.9756 7.72568 15.7937 9.95355L19.3964 10.2051C19.6511 6.93514 18.8869 4.38387 17.2129 2.51534C14.9567 0.1078 11.9726 0 11.645 0L11.5723 3.55741C11.5723 3.55741 13.3554 3.62927 14.5564 4.95881Z" fill="white"/>
<path d="M21.6162 25.4768L23.0355 28.7467C23.2174 28.6748 26.2379 27.3812 28.2394 24.3628C30.2773 27.3812 33.2614 28.6748 33.4434 28.7467L34.8263 25.4408C34.7899 25.4049 30.3865 23.5364 30.0226 18.7932C30.0226 18.6135 30.0226 18.3979 30.0226 18.2182H29.9862H26.4199H26.3835C26.3835 18.4338 26.3835 18.6135 26.3835 18.7932C26.056 23.5004 21.7982 25.369 21.6162 25.4768Z" fill="white"/>
<path d="M42.3595 13.511V21.56H39.3026V11.5706H35.6999V29.5013H20.5247V17.787H13.0281V15.1998H22.4534V11.6424H0V15.1998H9.42535V17.787H1.89235V41H11.5724H20.5247H45.9622V31.7292V29.5013V13.511H42.3595ZM5.49509 37.4426V21.3444H16.922V29.5013H11.5724V37.4426H5.49509V37.4426ZM39.3026 29.5013V25.1534H42.3595V29.5373H39.3026V29.5013Z" fill="white"/>
<path d="M59.6817 11.4987H59.1722L58.6627 10.1692H56.2973L55.7878 11.4987H55.2783L57.2435 6.39615H57.7165L59.6817 11.4987ZM57.4618 7.07888L56.4792 9.66609H58.4444L57.4618 7.07888Z" fill="white"/>
<path d="M62.3742 10.9238C62.3014 11.0675 62.2287 11.1753 62.1195 11.2831C62.0103 11.3909 61.9011 11.4628 61.7556 11.4987C61.61 11.5346 61.4644 11.5706 61.3189 11.5706C61.1005 11.5706 60.8458 11.5346 60.6274 11.4268C60.4091 11.319 60.1907 11.2112 60.0088 11.0316L60.2635 10.6363C60.4455 10.78 60.6274 10.9238 60.8094 10.9956C60.9914 11.0675 61.1733 11.1034 61.3553 11.1034C61.5372 11.1034 61.7192 11.0675 61.8284 10.9597C61.9375 10.8519 62.0103 10.7082 62.0103 10.5285C62.0103 10.4207 61.9739 10.3488 61.9375 10.277C61.9011 10.2051 61.8284 10.1332 61.7556 10.0973C61.6828 10.0614 61.61 9.9895 61.5008 9.95356C61.3917 9.91763 61.3189 9.8817 61.2097 9.84576C61.1005 9.80983 60.955 9.73796 60.8458 9.70203C60.7366 9.6661 60.5911 9.59423 60.5183 9.52236C60.4091 9.4505 60.3363 9.3427 60.2635 9.2349C60.1908 9.1271 60.1544 8.98336 60.1544 8.8037C60.1544 8.65996 60.1907 8.51623 60.2271 8.37249C60.2635 8.22876 60.3727 8.12096 60.4455 8.04909C60.5547 7.94129 60.6638 7.86943 60.773 7.83349C60.9186 7.79756 61.0641 7.76163 61.2097 7.76163C61.3917 7.76163 61.61 7.79756 61.792 7.86943C62.0103 7.94129 62.1923 8.04909 62.3378 8.15689L62.1195 8.58809C61.9739 8.48029 61.8284 8.3725 61.6464 8.33656C61.5008 8.26469 61.3189 8.22876 61.1733 8.22876C60.9914 8.22876 60.8458 8.26469 60.7366 8.37249C60.6274 8.48029 60.5547 8.58809 60.5547 8.76776C60.5547 8.83963 60.5911 8.94743 60.6274 8.98336C60.6638 9.05523 60.7366 9.09116 60.8094 9.16303C60.8822 9.19896 60.955 9.27083 61.0641 9.30676C61.1733 9.3427 61.2825 9.37863 61.3553 9.41456C61.4644 9.4505 61.61 9.52236 61.7192 9.5583C61.8284 9.59423 61.9375 9.6661 62.0467 9.7739C62.1559 9.84576 62.2287 9.95356 62.3014 10.0614C62.3742 10.1692 62.3742 10.3129 62.3742 10.4926C62.4834 10.6363 62.447 10.78 62.3742 10.9238Z" fill="white"/>
<path d="M63.8299 8.26469C63.6843 8.30063 63.5388 8.37249 63.3932 8.48029L63.2476 8.01316C63.4296 7.90536 63.6116 7.83349 63.7935 7.79756C63.9755 7.72569 64.1938 7.72569 64.4122 7.72569C64.8489 7.72569 65.1764 7.86943 65.4311 8.12096C65.6495 8.37249 65.795 8.73183 65.795 9.2349V11.4987H65.322V10.9238C65.2128 11.1034 65.0672 11.2472 64.8853 11.355C64.7033 11.4987 64.4486 11.5346 64.1938 11.5346C64.0483 11.5346 63.9027 11.4987 63.7571 11.4628C63.6116 11.4268 63.5024 11.355 63.3932 11.2472C63.284 11.1394 63.1749 11.0316 63.1385 10.8878C63.0657 10.7441 63.0293 10.5644 63.0293 10.3848C63.0293 10.1692 63.0657 10.0254 63.1385 9.84576C63.2113 9.70203 63.284 9.5583 63.4296 9.4505C63.5388 9.3427 63.6843 9.27083 63.8663 9.2349C64.0483 9.19896 64.2302 9.16303 64.4122 9.16303C64.6305 9.16303 64.8125 9.16303 64.958 9.19896C65.1036 9.2349 65.2492 9.27083 65.3947 9.30676V9.16303C65.3947 8.83963 65.322 8.58809 65.14 8.40843C64.958 8.22876 64.7397 8.15689 64.4486 8.15689C64.1574 8.19283 64.0119 8.22876 63.8299 8.26469ZM63.6843 9.80983C63.5388 9.95356 63.4296 10.1332 63.4296 10.3848C63.4296 10.4926 63.466 10.6004 63.5024 10.7082C63.5388 10.816 63.6116 10.8878 63.6843 10.9597C63.7571 11.0316 63.8299 11.0675 63.9391 11.1034C64.0483 11.1394 64.121 11.1394 64.2302 11.1394C64.3758 11.1394 64.5213 11.1034 64.6305 11.0675C64.7761 11.0316 64.8853 10.9597 64.958 10.8519C65.0672 10.78 65.14 10.6722 65.1764 10.5285C65.2492 10.4207 65.2492 10.277 65.2492 10.1332V9.7739C65.14 9.73796 64.9944 9.70203 64.8489 9.6661C64.7033 9.63016 64.5213 9.63016 64.3394 9.63016C64.0846 9.59423 63.8299 9.6661 63.6843 9.80983Z" fill="white"/>
<path d="M67.1059 11.4987H66.6328V7.76163H67.1059V8.40843C67.2151 8.19283 67.3606 8.04909 67.5426 7.90536C67.7246 7.76163 67.9429 7.68976 68.1976 7.68976C68.3796 7.68976 68.5616 7.72569 68.7071 7.79756C68.8527 7.86943 68.9982 7.97723 69.071 8.12096C69.1802 8.26469 69.253 8.40843 69.3258 8.58809C69.3985 8.76776 69.3985 8.98336 69.3985 9.19896V11.4987H68.9255V9.30676C68.9255 8.94743 68.8527 8.69589 68.7071 8.48029C68.5616 8.26469 68.3432 8.19283 68.0521 8.19283C67.9065 8.19283 67.7973 8.22876 67.6882 8.26469C67.579 8.33656 67.4698 8.40843 67.397 8.51623C67.3242 8.62403 67.2515 8.73183 67.1787 8.87556C67.1423 9.01929 67.1059 9.16303 67.1059 9.34269V11.4987V11.4987Z" fill="white"/>
<path d="M75.3659 11.0675C75.2567 11.1753 75.1112 11.2831 74.9656 11.355C74.82 11.4268 74.6745 11.4987 74.5289 11.5346C74.3833 11.5706 74.2014 11.6065 73.983 11.6065C73.6555 11.6065 73.4008 11.5346 73.1096 11.3909C72.8549 11.2472 72.6365 11.0675 72.4182 10.8519C72.2362 10.6004 72.0907 10.3488 71.9815 10.0254C71.8723 9.70202 71.8359 9.37862 71.8359 8.98335C71.8359 8.62402 71.8723 8.26468 71.9815 7.97722C72.0907 7.65382 72.2362 7.36635 72.4182 7.15075C72.6002 6.89921 72.8549 6.71955 73.1096 6.57581C73.3644 6.43208 73.6555 6.36021 73.983 6.36021C74.165 6.36021 74.3469 6.39615 74.5289 6.43208C74.6745 6.46801 74.82 6.53988 74.9656 6.61175C75.1112 6.68361 75.2203 6.75548 75.3295 6.86328C75.4387 6.97108 75.5479 7.07888 75.657 7.18668L75.3295 7.61788C75.1475 7.40228 74.9292 7.25855 74.7472 7.11481C74.5289 6.97108 74.2742 6.93515 73.983 6.93515C73.7283 6.93515 73.5099 6.97108 73.328 7.07888C73.1096 7.18668 72.9641 7.33042 72.7821 7.51008C72.6365 7.68975 72.5274 7.90535 72.4182 8.15688C72.3454 8.40842 72.309 8.69588 72.309 8.98335C72.309 9.27082 72.3454 9.55829 72.4182 9.80982C72.491 10.0614 72.6365 10.277 72.7821 10.4926C72.9277 10.6722 73.1096 10.816 73.328 10.9238C73.5463 11.0316 73.7647 11.1034 73.983 11.1034C74.2742 11.1034 74.5289 11.0316 74.7472 10.9238C74.9656 10.78 75.1839 10.6004 75.3659 10.3848L75.6934 10.7441C75.6206 10.816 75.5115 10.9597 75.3659 11.0675Z" fill="white"/>
<path d="M76.3486 6.93515V6.32428H76.8945V6.93515H76.3486ZM76.385 11.4987V7.76162H76.8581V11.4987H76.385Z" fill="white"/>
<path d="M78.4598 10.4207C78.4598 10.6363 78.4962 10.816 78.6054 10.8878C78.7146 10.9956 78.8238 11.0316 79.0057 11.0316C79.0785 11.0316 79.1513 11.0316 79.2241 10.9956C79.2968 10.9597 79.3696 10.9597 79.4424 10.8878V11.355C79.3696 11.3909 79.2605 11.4628 79.1877 11.4628C79.0785 11.4987 79.0057 11.4987 78.8601 11.4987C78.7146 11.4987 78.6054 11.4628 78.4962 11.4268C78.3871 11.3909 78.2779 11.319 78.2051 11.2472C78.1323 11.1753 78.0595 11.0675 78.0231 10.9238C77.9868 10.78 77.9504 10.6363 77.9504 10.4566V8.19282H77.5137V7.68976H77.9504V6.57582H78.4235V7.68976H79.4424V8.19282H78.4235V10.4207H78.4598Z" fill="white"/>
<path d="M81.6983 11.6065C81.5527 12.0018 81.4071 12.2533 81.2616 12.433C81.0796 12.5767 80.8977 12.6845 80.6429 12.6845C80.4974 12.6845 80.3882 12.6845 80.279 12.6486C80.1698 12.6126 80.0607 12.5767 79.9515 12.5048L80.0971 12.0736C80.1698 12.1096 80.2426 12.1455 80.3154 12.1814C80.3882 12.2174 80.4974 12.2174 80.5701 12.2174C80.7157 12.2174 80.8249 12.1814 80.9341 12.0736C81.0432 11.9658 81.116 11.7862 81.2252 11.5346L79.7695 7.79755H80.279L81.4435 10.9238L82.4625 7.79755H82.972L81.6983 11.6065Z" fill="white"/>
<path d="M90.0318 11.4987H89.304L87.2661 8.6959L86.1379 9.95356V11.4987H85.5557V5.67749H86.1379V9.16303L89.1584 5.67749H89.9226L87.6664 8.22876L90.0318 11.4987Z" fill="white"/>
<path d="M94.1076 11.4987H93.4161L92.0333 9.48642L91.2326 10.3488V11.4987H90.6504V5.42595H91.2326V9.59422L93.3433 7.18669H94.0712L92.4336 9.01929L94.1076 11.4987Z" fill="white"/>
<path d="M98.2203 10.2051C98.1111 10.4926 97.9656 10.7082 97.7836 10.9238C97.6017 11.1394 97.3833 11.2831 97.1286 11.4268C96.8738 11.5346 96.6191 11.6065 96.328 11.6065C96.0368 11.6065 95.7821 11.5346 95.5273 11.4268C95.2726 11.319 95.0543 11.1394 94.8723 10.9597C94.6903 10.7441 94.5448 10.5285 94.4356 10.241C94.3264 9.95356 94.29 9.66609 94.29 9.37863C94.29 9.09116 94.3264 8.76776 94.4356 8.51623C94.5448 8.22876 94.6903 8.01316 94.8723 7.79756C95.0543 7.58196 95.2726 7.43822 95.5273 7.29449C95.7821 7.18669 96.0368 7.11482 96.328 7.11482C96.6191 7.11482 96.8738 7.18669 97.1286 7.29449C97.3833 7.40229 97.6017 7.58196 97.7836 7.76162C97.9656 7.97722 98.1111 8.19282 98.2203 8.48029C98.3295 8.76776 98.3659 9.05523 98.3659 9.34269C98.3659 9.66609 98.3295 9.95356 98.2203 10.2051ZM97.6744 8.69589C97.6016 8.48029 97.4925 8.30062 97.3833 8.15689C97.2377 8.01316 97.0922 7.86942 96.9102 7.79756C96.7283 7.72569 96.5463 7.65382 96.328 7.65382C96.1096 7.65382 95.9276 7.68976 95.7457 7.79756C95.5637 7.86942 95.4182 8.01316 95.309 8.15689C95.1998 8.30062 95.0906 8.48029 95.0179 8.69589C94.9451 8.91149 94.9087 9.12709 94.9087 9.34269C94.9087 9.55829 94.9451 9.80983 95.0179 9.98949C95.0906 10.2051 95.1998 10.3848 95.309 10.5285C95.4546 10.6722 95.6001 10.78 95.7821 10.8878C95.964 10.9597 96.146 11.0316 96.3643 11.0316C96.5827 11.0316 96.7646 10.9956 96.9466 10.8878C97.1286 10.816 97.2741 10.6722 97.3833 10.5285C97.4925 10.3848 97.6016 10.2051 97.6744 9.98949C97.7472 9.77389 97.7836 9.55829 97.7836 9.34269C97.7836 9.12709 97.7472 8.91149 97.6744 8.69589Z" fill="white"/>
<path d="M102.879 10.2051C102.769 10.4926 102.624 10.7082 102.442 10.9238C102.26 11.1394 102.042 11.2831 101.787 11.4268C101.532 11.5346 101.277 11.6065 100.986 11.6065C100.695 11.6065 100.44 11.5346 100.186 11.4268C99.9308 11.319 99.7125 11.1394 99.5305 10.9597C99.3485 10.7441 99.203 10.5285 99.0938 10.241C98.9846 9.95356 98.9482 9.66609 98.9482 9.37863C98.9482 9.09116 98.9846 8.76776 99.0938 8.51623C99.203 8.22876 99.3485 8.01316 99.5305 7.79756C99.7125 7.58196 99.9308 7.43822 100.186 7.29449C100.44 7.18669 100.695 7.11482 100.986 7.11482C101.277 7.11482 101.532 7.18669 101.787 7.29449C102.042 7.40229 102.26 7.58196 102.442 7.76162C102.624 7.94129 102.769 8.19282 102.879 8.48029C102.988 8.76776 103.024 9.05523 103.024 9.34269C103.06 9.66609 102.988 9.95356 102.879 10.2051ZM102.333 8.69589C102.26 8.48029 102.151 8.30062 102.042 8.15689C101.896 8.01316 101.75 7.86942 101.568 7.79756C101.386 7.72569 101.205 7.65382 100.986 7.65382C100.768 7.65382 100.586 7.68976 100.404 7.79756C100.222 7.86942 100.076 8.01316 99.9672 8.15689C99.858 8.30062 99.7489 8.48029 99.6761 8.69589C99.6033 8.91149 99.5669 9.12709 99.5669 9.34269C99.5669 9.55829 99.6033 9.80983 99.6761 9.98949C99.7489 10.2051 99.858 10.3848 99.9672 10.5285C100.113 10.6722 100.258 10.78 100.44 10.8878C100.622 10.9597 100.804 11.0316 101.023 11.0316C101.241 11.0316 101.423 10.9956 101.605 10.8878C101.787 10.816 101.932 10.6722 102.042 10.5285C102.151 10.3848 102.26 10.2051 102.333 9.98949C102.405 9.77389 102.442 9.55829 102.442 9.34269C102.442 9.12709 102.405 8.91149 102.333 8.69589Z" fill="white"/>
<path d="M107.208 7.61789C107.281 7.51009 107.39 7.43822 107.499 7.33042C107.609 7.25855 107.718 7.18669 107.863 7.15075C108.009 7.11482 108.154 7.07889 108.336 7.07889C108.773 7.07889 109.137 7.22262 109.392 7.54602C109.647 7.86942 109.792 8.26469 109.792 8.80369V11.4987H109.21V8.98336C109.21 8.55216 109.137 8.26469 108.955 8.01316C108.773 7.79756 108.518 7.68976 108.227 7.68976C108.082 7.68976 107.936 7.72569 107.827 7.76162C107.681 7.83349 107.572 7.90536 107.499 8.01316C107.39 8.12096 107.317 8.26469 107.281 8.44436C107.208 8.62402 107.208 8.80369 107.208 9.01929V11.4987H106.626V8.98336C106.626 8.58809 106.553 8.26469 106.371 8.04909C106.189 7.83349 105.935 7.72569 105.643 7.72569C105.498 7.72569 105.352 7.76162 105.207 7.83349C105.061 7.90536 104.952 7.97722 104.879 8.12096C104.77 8.22876 104.697 8.37249 104.661 8.55216C104.588 8.73182 104.588 8.91149 104.588 9.09116V11.4987H104.006V7.18669H104.588V7.90536C104.661 7.79756 104.734 7.68976 104.806 7.58196C104.879 7.47416 104.988 7.40229 105.061 7.33042C105.17 7.25855 105.28 7.18669 105.389 7.15075C105.498 7.11482 105.643 7.07889 105.825 7.07889C106.153 7.07889 106.408 7.15075 106.59 7.33042C106.808 7.51009 106.954 7.68976 107.063 7.94129C107.063 7.83349 107.136 7.72569 107.208 7.61789Z" fill="white"/>
<path d="M113.432 10.816C113.359 10.9597 113.25 11.1034 113.14 11.2112C113.031 11.319 112.886 11.3909 112.704 11.4628C112.522 11.5346 112.34 11.5346 112.158 11.5346C111.867 11.5346 111.612 11.4628 111.321 11.355C111.03 11.2472 110.775 11.1034 110.557 10.8878L110.848 10.4207C111.066 10.6004 111.284 10.7441 111.503 10.816C111.721 10.9238 111.976 10.9597 112.194 10.9597C112.413 10.9597 112.631 10.8878 112.777 10.78C112.922 10.6722 112.995 10.4926 112.995 10.277C112.995 10.1692 112.958 10.0973 112.922 9.98949C112.886 9.91763 112.813 9.84576 112.704 9.77389C112.631 9.70203 112.522 9.66609 112.376 9.63016C112.267 9.59422 112.121 9.55829 112.012 9.52236C111.867 9.48642 111.721 9.41456 111.539 9.34269C111.394 9.27082 111.248 9.19896 111.139 9.12709C111.03 9.05522 110.921 8.91149 110.848 8.80369C110.775 8.65996 110.739 8.51622 110.739 8.30062C110.739 8.12096 110.775 7.94129 110.848 7.79756C110.921 7.65382 110.993 7.51009 111.139 7.40229C111.248 7.29449 111.394 7.22262 111.576 7.15075C111.721 7.07889 111.903 7.07889 112.121 7.07889C112.376 7.07889 112.595 7.11482 112.849 7.22262C113.104 7.29449 113.322 7.43822 113.504 7.58196L113.25 8.04909C113.068 7.90536 112.886 7.83349 112.667 7.76162C112.485 7.68976 112.267 7.65382 112.085 7.65382C111.867 7.65382 111.685 7.72569 111.539 7.83349C111.394 7.94129 111.321 8.08502 111.321 8.26469C111.321 8.37249 111.357 8.44436 111.394 8.51622C111.466 8.58809 111.539 8.65996 111.612 8.69589C111.721 8.76776 111.794 8.80369 111.94 8.83962C112.049 8.87556 112.194 8.91149 112.303 8.98336C112.449 9.01929 112.595 9.09116 112.74 9.16302C112.886 9.23489 113.031 9.30676 113.14 9.37862C113.25 9.48642 113.359 9.59422 113.432 9.70203C113.504 9.80983 113.541 9.98949 113.541 10.2051C113.541 10.4926 113.504 10.6722 113.432 10.816Z" fill="white"/>
<path d="M115.215 7.79756C115.033 7.86942 114.851 7.94129 114.669 8.01316L114.487 7.47416C114.705 7.36636 114.923 7.25856 115.142 7.22262C115.36 7.15076 115.615 7.11482 115.906 7.11482C116.452 7.11482 116.852 7.25856 117.143 7.54602C117.434 7.83349 117.58 8.26469 117.58 8.83963V11.4987H117.034V10.8519C116.889 11.0316 116.707 11.2112 116.488 11.355C116.27 11.4987 115.979 11.5706 115.615 11.5706C115.433 11.5706 115.251 11.5346 115.069 11.4987C114.887 11.4268 114.741 11.355 114.596 11.2472C114.45 11.1394 114.341 10.9956 114.268 10.816C114.196 10.6363 114.159 10.4566 114.159 10.241C114.159 10.0254 114.196 9.80983 114.268 9.63016C114.341 9.45049 114.45 9.30676 114.596 9.19896C114.741 9.09116 114.923 8.98336 115.105 8.94743C115.324 8.87556 115.542 8.83963 115.76 8.83963C116.015 8.83963 116.233 8.83963 116.415 8.87556C116.597 8.91149 116.779 8.94743 116.961 9.01929V8.87556C116.961 8.48029 116.852 8.19282 116.67 8.01316C116.452 7.83349 116.197 7.72569 115.833 7.72569C115.615 7.72569 115.396 7.72569 115.215 7.79756ZM115.033 9.55829C114.851 9.70203 114.741 9.95356 114.741 10.2051C114.741 10.3488 114.778 10.4566 114.814 10.5644C114.851 10.6722 114.923 10.7441 115.033 10.8519C115.105 10.9238 115.215 10.9956 115.36 11.0316C115.469 11.0675 115.615 11.1034 115.724 11.1034C115.906 11.1034 116.088 11.0675 116.233 11.0316C116.379 10.9597 116.525 10.8878 116.634 10.78C116.743 10.6722 116.852 10.5644 116.925 10.4207C116.998 10.277 117.034 10.1332 117.034 9.95356V9.52236C116.889 9.48643 116.707 9.45049 116.525 9.41456C116.343 9.37863 116.124 9.34269 115.87 9.34269C115.506 9.30676 115.215 9.41456 115.033 9.55829Z" fill="white"/>
<path d="M119.109 10.2051C119.182 10.3848 119.291 10.5285 119.4 10.6722C119.509 10.78 119.655 10.8878 119.837 10.9597C119.982 11.0316 120.164 11.0675 120.31 11.0675C120.565 11.0675 120.819 10.9956 121.001 10.8878C121.183 10.78 121.365 10.6363 121.547 10.4566L121.911 10.816C121.729 11.0675 121.474 11.2472 121.256 11.3909C121.001 11.5346 120.71 11.6065 120.31 11.6065C120.055 11.6065 119.8 11.5346 119.546 11.4268C119.327 11.319 119.109 11.1753 118.927 10.9597C118.745 10.78 118.599 10.5285 118.49 10.241C118.381 9.95356 118.345 9.66609 118.345 9.34269C118.345 9.01929 118.381 8.73183 118.49 8.48029C118.599 8.19282 118.709 7.97722 118.891 7.76162C119.073 7.54602 119.255 7.40229 119.473 7.29449C119.691 7.18669 119.946 7.11482 120.237 7.11482C120.528 7.11482 120.783 7.18669 121.001 7.29449C121.22 7.40229 121.402 7.58196 121.584 7.79756C121.729 8.01316 121.875 8.22876 121.947 8.51623C122.02 8.80369 122.057 9.09116 122.057 9.41456C122.057 9.45049 122.057 9.48643 122.057 9.52236C122.057 9.55829 122.057 9.59423 122.057 9.63016H118.963C118.963 9.80983 119 10.0254 119.109 10.2051ZM121.438 9.12709C121.438 8.94743 121.402 8.73183 121.329 8.58809C121.256 8.40842 121.183 8.26469 121.074 8.12096C120.965 7.97722 120.856 7.86942 120.71 7.79756C120.565 7.72569 120.383 7.68976 120.201 7.68976C120.019 7.68976 119.873 7.72569 119.728 7.79756C119.582 7.86942 119.473 7.97722 119.364 8.12096C119.255 8.26469 119.182 8.40842 119.109 8.58809C119.036 8.76776 119 8.94743 118.963 9.16303H121.438V9.12709Z" fill="white"/>
<path d="M126.168 7.61789C126.241 7.51009 126.35 7.43822 126.459 7.33042C126.569 7.25855 126.678 7.18669 126.823 7.15075C126.969 7.11482 127.114 7.07889 127.296 7.07889C127.733 7.07889 128.097 7.22262 128.352 7.54602C128.606 7.86942 128.752 8.26469 128.752 8.80369V11.4987H128.17V8.98336C128.17 8.55216 128.097 8.26469 127.915 8.01316C127.733 7.79756 127.478 7.68976 127.187 7.68976C127.042 7.68976 126.896 7.72569 126.787 7.76162C126.641 7.83349 126.532 7.90536 126.459 8.01316C126.35 8.12096 126.277 8.26469 126.241 8.44436C126.168 8.62402 126.168 8.80369 126.168 9.01929V11.4987H125.586V8.98336C125.586 8.58809 125.513 8.26469 125.331 8.04909C125.149 7.83349 124.895 7.72569 124.603 7.72569C124.458 7.72569 124.312 7.76162 124.167 7.83349C124.021 7.90536 123.912 7.97722 123.839 8.12096C123.73 8.22876 123.657 8.37249 123.621 8.55216C123.548 8.73182 123.548 8.91149 123.548 9.09116V11.4987H122.966V7.18669H123.548V7.90536C123.621 7.79756 123.694 7.68976 123.766 7.58196C123.839 7.47416 123.948 7.40229 124.021 7.33042C124.13 7.25855 124.24 7.18669 124.349 7.15075C124.458 7.11482 124.603 7.07889 124.785 7.07889C125.113 7.07889 125.368 7.15075 125.55 7.33042C125.768 7.51009 125.914 7.68976 126.023 7.94129C126.023 7.83349 126.095 7.72569 126.168 7.61789Z" fill="white"/>
<path d="M131.991 5.67749H132.574V10.8878H135.521V11.4987H131.955V5.67749H131.991Z" fill="white"/>
<path d="M136.358 6.25242V5.53375H137.013V6.25242H136.358ZM136.395 11.4987V7.18669H136.977V11.4987H136.395Z" fill="white"/>
<path d="M141.89 10.277C141.781 10.5644 141.635 10.78 141.49 10.9956C141.308 11.1753 141.126 11.319 140.907 11.4268C140.689 11.5346 140.471 11.5706 140.216 11.5706C140.034 11.5706 139.852 11.5346 139.706 11.4987C139.561 11.4628 139.415 11.3909 139.306 11.2831C139.197 11.2112 139.088 11.1034 138.979 10.9956C138.869 10.8878 138.797 10.78 138.724 10.6363V11.4987H138.142V5.42595H138.724V8.04909C138.797 7.90535 138.906 7.79755 138.979 7.68975C139.088 7.58195 139.197 7.47415 139.306 7.40229C139.415 7.33042 139.561 7.25855 139.706 7.18669C139.852 7.15075 140.034 7.11482 140.216 7.11482C140.434 7.11482 140.689 7.15075 140.907 7.25855C141.126 7.36635 141.344 7.51009 141.49 7.68975C141.672 7.86942 141.817 8.12095 141.926 8.40842C142.035 8.69589 142.072 8.98335 142.072 9.34269C142.072 9.70202 141.999 10.0254 141.89 10.277ZM141.344 8.65995C141.271 8.44435 141.162 8.26469 141.053 8.12095C140.944 7.97722 140.798 7.86942 140.616 7.79755C140.434 7.72569 140.289 7.68975 140.107 7.68975C139.925 7.68975 139.743 7.72569 139.597 7.79755C139.415 7.86942 139.27 7.97722 139.161 8.12095C139.015 8.26469 138.906 8.44435 138.833 8.62402C138.76 8.83962 138.724 9.05522 138.724 9.30676C138.724 9.55829 138.76 9.77389 138.833 9.98949C138.906 10.2051 139.015 10.3848 139.161 10.5285C139.306 10.6722 139.452 10.78 139.597 10.8519C139.779 10.9238 139.925 10.9597 140.107 10.9597C140.289 10.9597 140.471 10.9238 140.653 10.8519C140.835 10.78 140.98 10.6722 141.089 10.5285C141.198 10.3848 141.308 10.2051 141.38 10.0254C141.453 9.80982 141.49 9.59422 141.49 9.34269C141.453 9.09116 141.417 8.87555 141.344 8.65995Z" fill="white"/>
<path d="M143.528 11.4987H142.945V7.18669H143.528V8.30062C143.6 8.12096 143.673 7.97722 143.782 7.79756C143.891 7.65382 144.001 7.51009 144.146 7.40229C144.292 7.29449 144.437 7.22262 144.583 7.15075C144.728 7.07889 144.91 7.07889 145.092 7.07889V7.76162H145.056C144.838 7.76162 144.656 7.79756 144.474 7.86942C144.292 7.94129 144.11 8.08502 143.964 8.22876C143.819 8.40842 143.71 8.58809 143.637 8.83962C143.564 9.09116 143.528 9.37862 143.528 9.70203V11.4987V11.4987Z" fill="white"/>
<path d="M146.402 7.79756C146.22 7.86942 146.038 7.94129 145.856 8.01316L145.674 7.47416C145.893 7.36636 146.111 7.25856 146.329 7.22262C146.548 7.15076 146.802 7.11482 147.093 7.11482C147.639 7.11482 148.04 7.25856 148.331 7.54602C148.622 7.83349 148.767 8.26469 148.767 8.83963V11.4987H148.222V10.8519C148.076 11.0316 147.894 11.2112 147.676 11.355C147.457 11.4987 147.166 11.5706 146.802 11.5706C146.62 11.5706 146.438 11.5346 146.256 11.4987C146.075 11.4268 145.929 11.355 145.783 11.2472C145.638 11.1394 145.529 10.9956 145.456 10.816C145.383 10.6363 145.347 10.4566 145.347 10.241C145.347 10.0254 145.383 9.80983 145.456 9.63016C145.529 9.45049 145.638 9.30676 145.783 9.19896C145.929 9.09116 146.111 8.98336 146.293 8.94743C146.511 8.87556 146.73 8.83963 146.948 8.83963C147.203 8.83963 147.421 8.83963 147.603 8.87556C147.785 8.91149 147.967 8.94743 148.149 9.01929V8.87556C148.149 8.48029 148.04 8.19282 147.858 8.01316C147.639 7.83349 147.385 7.72569 147.021 7.72569C146.802 7.72569 146.584 7.72569 146.402 7.79756ZM146.22 9.55829C146.038 9.70203 145.929 9.95356 145.929 10.2051C145.929 10.3488 145.965 10.4566 146.002 10.5644C146.038 10.6722 146.111 10.7441 146.22 10.8519C146.293 10.9238 146.402 10.9956 146.548 11.0316C146.657 11.0675 146.802 11.1034 146.912 11.1034C147.093 11.1034 147.275 11.0675 147.421 11.0316C147.567 10.9597 147.712 10.8878 147.821 10.78C147.93 10.6722 148.04 10.5644 148.112 10.4207C148.185 10.277 148.222 10.1332 148.222 9.95356V9.52236C148.076 9.48643 147.894 9.45049 147.712 9.41456C147.53 9.37863 147.312 9.34269 147.057 9.34269C146.693 9.30676 146.402 9.41456 146.22 9.55829Z" fill="white"/>
<path d="M150.368 11.4987H149.786V7.18669H150.368V8.30062C150.441 8.12096 150.514 7.97722 150.623 7.79756C150.732 7.65382 150.841 7.51009 150.987 7.40229C151.133 7.29449 151.278 7.22262 151.424 7.15075C151.569 7.07889 151.751 7.07889 151.933 7.07889V7.76162H151.897C151.678 7.76162 151.497 7.79756 151.315 7.86942C151.133 7.94129 150.951 8.08502 150.805 8.22876C150.66 8.40842 150.55 8.58809 150.478 8.83962C150.405 9.09116 150.368 9.37862 150.368 9.70203V11.4987V11.4987Z" fill="white"/>
<path d="M154.517 11.6424C154.335 12.0736 154.153 12.397 153.971 12.5767C153.753 12.7564 153.534 12.8642 153.243 12.8642C153.098 12.8642 152.952 12.8282 152.807 12.7923C152.661 12.7564 152.552 12.6845 152.406 12.6126L152.588 12.1096C152.697 12.1814 152.77 12.2174 152.879 12.2174C152.989 12.2533 153.098 12.2533 153.207 12.2533C153.389 12.2533 153.534 12.1814 153.644 12.0736C153.753 11.9658 153.898 11.7502 154.008 11.4268L152.261 7.18669H152.916L154.335 10.78L155.572 7.18669H156.191L154.517 11.6424Z" fill="white"/>
<path d="M160.995 7.22262V7.76162H159.758V11.4987H159.176V7.76162H158.63V7.22262H159.176V6.86328C159.176 6.39615 159.285 6.03682 159.467 5.78528C159.685 5.53375 159.976 5.42595 160.34 5.42595C160.486 5.42595 160.595 5.42595 160.704 5.46188C160.813 5.46188 160.886 5.49782 160.995 5.53375V6.07275C160.886 6.03682 160.777 6.00088 160.704 6.00088C160.631 5.96495 160.522 5.96495 160.413 5.96495C159.976 5.96495 159.722 6.25242 159.722 6.86328V7.22262H160.995V7.22262Z" fill="white"/>
<path d="M165.107 10.2051C164.998 10.4926 164.852 10.7082 164.67 10.9238C164.488 11.1394 164.27 11.2831 164.015 11.4268C163.761 11.5346 163.506 11.6065 163.215 11.6065C162.924 11.6065 162.669 11.5346 162.414 11.4268C162.159 11.319 161.941 11.1394 161.759 10.9597C161.577 10.7441 161.431 10.5285 161.322 10.241C161.213 9.95356 161.177 9.66609 161.177 9.37863C161.177 9.09116 161.213 8.76776 161.322 8.51623C161.431 8.22876 161.577 8.01316 161.759 7.79756C161.941 7.58196 162.159 7.43822 162.414 7.29449C162.669 7.18669 162.924 7.11482 163.215 7.11482C163.506 7.11482 163.761 7.18669 164.015 7.29449C164.27 7.40229 164.488 7.58196 164.67 7.76162C164.852 7.94129 164.998 8.19282 165.107 8.48029C165.216 8.76776 165.253 9.05523 165.253 9.34269C165.253 9.66609 165.216 9.95356 165.107 10.2051ZM164.561 8.69589C164.488 8.48029 164.379 8.30062 164.27 8.15689C164.124 8.01316 163.979 7.86942 163.797 7.79756C163.615 7.72569 163.433 7.65382 163.215 7.65382C162.996 7.65382 162.814 7.68976 162.632 7.79756C162.45 7.86942 162.305 8.01316 162.196 8.15689C162.087 8.30062 161.977 8.48029 161.905 8.69589C161.832 8.91149 161.795 9.12709 161.795 9.34269C161.795 9.55829 161.832 9.80983 161.905 9.98949C161.977 10.2051 162.087 10.3848 162.196 10.5285C162.341 10.6722 162.487 10.78 162.669 10.8878C162.851 10.9597 163.033 11.0316 163.251 11.0316C163.469 11.0316 163.651 10.9956 163.833 10.8878C164.015 10.816 164.161 10.6722 164.27 10.5285C164.379 10.3848 164.488 10.2051 164.561 9.98949C164.634 9.77389 164.67 9.55829 164.67 9.34269C164.67 9.12709 164.634 8.91149 164.561 8.69589Z" fill="white"/>
<path d="M166.708 11.4987H166.126V7.18669H166.708V8.30062C166.781 8.12096 166.854 7.97722 166.963 7.79756C167.072 7.65382 167.181 7.51009 167.327 7.40229C167.472 7.29449 167.618 7.22262 167.764 7.15075C167.909 7.07889 168.091 7.07889 168.273 7.07889V7.76162H168.237C168.018 7.76162 167.836 7.79756 167.654 7.86942C167.472 7.94129 167.29 8.08502 167.145 8.22876C166.999 8.40842 166.89 8.58809 166.817 8.83962C166.745 9.09116 166.708 9.37862 166.708 9.70203V11.4987V11.4987Z" fill="white"/>
<path d="M175.224 10.9956C175.078 11.1034 174.933 11.2112 174.751 11.319C174.569 11.3909 174.387 11.4628 174.205 11.5346C174.023 11.5706 173.805 11.6065 173.55 11.6065C173.186 11.6065 172.822 11.5346 172.495 11.3909C172.167 11.2472 171.912 11.0316 171.658 10.7441C171.439 10.4926 171.221 10.1692 171.112 9.80983C170.966 9.45049 170.93 9.05523 170.93 8.62403C170.93 8.19282 171.002 7.83349 171.112 7.43822C171.257 7.07889 171.439 6.75549 171.658 6.46802C171.876 6.18055 172.167 5.96495 172.495 5.82122C172.822 5.67749 173.186 5.56969 173.55 5.56969C173.805 5.56969 174.023 5.60562 174.205 5.64155C174.387 5.67749 174.569 5.74935 174.751 5.82122C174.933 5.89309 175.078 6.00089 175.224 6.10869C175.369 6.21649 175.515 6.36022 175.624 6.50396L175.224 6.97109C175.006 6.75549 174.751 6.53989 174.496 6.39615C174.241 6.25242 173.914 6.18055 173.55 6.18055C173.259 6.18055 173.004 6.25242 172.749 6.36022C172.495 6.46802 172.276 6.64769 172.094 6.86329C171.912 7.07889 171.767 7.33042 171.658 7.61789C171.548 7.90536 171.512 8.22876 171.512 8.55216C171.512 8.87556 171.548 9.19896 171.658 9.48643C171.767 9.77389 171.912 10.0254 172.094 10.241C172.276 10.4566 172.495 10.6363 172.749 10.7441C173.004 10.8519 173.259 10.9238 173.55 10.9238C173.914 10.9238 174.205 10.8519 174.496 10.7082C174.751 10.5644 175.006 10.3488 175.26 10.0973L175.661 10.5285C175.515 10.7441 175.369 10.8519 175.224 10.9956Z" fill="white"/>
<path d="M177.007 11.4987H176.425V5.42595H177.007V7.94129C177.153 7.72569 177.298 7.51009 177.517 7.33042C177.735 7.15075 177.99 7.07889 178.354 7.07889C178.572 7.07889 178.79 7.11482 178.972 7.18669C179.154 7.25855 179.3 7.40229 179.445 7.54602C179.591 7.68975 179.664 7.86942 179.736 8.08502C179.809 8.30062 179.846 8.51622 179.846 8.76775V11.4987H179.263V8.98335C179.263 8.58809 179.154 8.26469 178.972 8.04909C178.79 7.83349 178.536 7.68975 178.172 7.68975C177.99 7.68975 177.844 7.72569 177.699 7.79755C177.553 7.86942 177.444 7.94129 177.335 8.08502C177.225 8.19282 177.153 8.33655 177.08 8.51622C177.007 8.69589 177.007 8.87555 177.007 9.05522V11.4987Z" fill="white"/>
<path d="M180.864 6.25242V5.53375H181.519V6.25242H180.864ZM180.901 11.4987V7.18669H181.483V11.4987H180.901Z" fill="white"/>
<path d="M185.778 11.4987V10.6363C185.705 10.78 185.596 10.8878 185.523 10.9956C185.414 11.1034 185.305 11.2112 185.195 11.319C185.086 11.3909 184.941 11.4628 184.795 11.5346C184.65 11.5706 184.468 11.6065 184.286 11.6065C184.067 11.6065 183.813 11.5706 183.594 11.4628C183.376 11.355 183.158 11.2112 183.012 11.0316C182.83 10.8519 182.684 10.6004 182.575 10.3129C182.466 10.0254 182.43 9.73796 182.43 9.37862C182.43 9.01929 182.466 8.69589 182.575 8.44436C182.684 8.15689 182.83 7.94129 183.012 7.72569C183.194 7.54602 183.376 7.40229 183.594 7.29449C183.813 7.18669 184.031 7.15075 184.286 7.15075C184.468 7.15075 184.65 7.18669 184.795 7.22262C184.941 7.25855 185.086 7.33042 185.195 7.43822C185.305 7.51009 185.414 7.61789 185.523 7.72569C185.632 7.83349 185.705 7.94129 185.778 8.08502V5.49782H186.36V11.4987H185.778ZM185.669 8.65996C185.596 8.44436 185.487 8.30062 185.341 8.15689C185.195 8.01316 185.05 7.90535 184.904 7.83349C184.722 7.76162 184.577 7.72569 184.395 7.72569C184.213 7.72569 184.031 7.76162 183.849 7.83349C183.667 7.90535 183.521 8.01316 183.412 8.15689C183.303 8.30062 183.194 8.48029 183.121 8.65996C183.048 8.87556 183.012 9.09116 183.012 9.34269C183.012 9.59422 183.048 9.80982 183.121 10.0254C183.194 10.241 183.303 10.4207 183.412 10.5644C183.521 10.7082 183.667 10.816 183.849 10.8878C184.031 10.9597 184.176 10.9956 184.358 10.9956C184.54 10.9956 184.722 10.9597 184.868 10.8878C185.05 10.816 185.195 10.7082 185.305 10.5644C185.45 10.4207 185.559 10.241 185.632 10.0254C185.705 9.80982 185.741 9.59422 185.741 9.34269C185.778 9.09116 185.741 8.87556 185.669 8.65996Z" fill="white"/>
<path d="M188.033 11.4987H187.451V7.18669H188.033V8.30062C188.106 8.12096 188.179 7.97722 188.288 7.79756C188.397 7.65382 188.507 7.51009 188.652 7.40229C188.798 7.29449 188.943 7.22262 189.089 7.15075C189.234 7.07889 189.416 7.07889 189.598 7.07889V7.76162H189.562C189.344 7.76162 189.162 7.79756 188.98 7.86942C188.798 7.94129 188.616 8.08502 188.47 8.22876C188.325 8.40842 188.215 8.58809 188.143 8.83962C188.07 9.09116 188.033 9.37862 188.033 9.70203V11.4987V11.4987Z" fill="white"/>
<path d="M190.654 10.2051C190.727 10.3848 190.836 10.5285 190.945 10.6722C191.054 10.78 191.2 10.8878 191.382 10.9597C191.527 11.0316 191.709 11.0675 191.855 11.0675C192.11 11.0675 192.364 10.9956 192.546 10.8878C192.728 10.78 192.91 10.6363 193.092 10.4566L193.456 10.816C193.274 11.0675 193.019 11.2472 192.801 11.3909C192.546 11.5346 192.255 11.6065 191.855 11.6065C191.6 11.6065 191.345 11.5346 191.091 11.4268C190.872 11.319 190.654 11.1753 190.472 10.9597C190.29 10.78 190.144 10.5285 190.035 10.241C189.926 9.95356 189.89 9.66609 189.89 9.34269C189.89 9.01929 189.926 8.73183 190.035 8.48029C190.144 8.19282 190.254 7.97722 190.436 7.76162C190.617 7.54602 190.799 7.40229 191.018 7.29449C191.236 7.18669 191.491 7.11482 191.782 7.11482C192.073 7.11482 192.328 7.18669 192.546 7.29449C192.765 7.40229 192.947 7.58196 193.128 7.79756C193.274 8.01316 193.42 8.22876 193.492 8.51623C193.565 8.80369 193.602 9.09116 193.602 9.41456C193.602 9.45049 193.602 9.48643 193.602 9.52236C193.602 9.55829 193.602 9.59423 193.602 9.63016H190.508C190.508 9.80983 190.581 10.0254 190.654 10.2051ZM192.983 9.12709C192.983 8.94743 192.947 8.73183 192.874 8.58809C192.801 8.40842 192.728 8.26469 192.619 8.12096C192.51 7.97722 192.401 7.86942 192.255 7.79756C192.11 7.72569 191.928 7.68976 191.746 7.68976C191.564 7.68976 191.418 7.72569 191.273 7.79756C191.127 7.86942 191.018 7.97722 190.909 8.12096C190.799 8.26469 190.727 8.40842 190.654 8.58809C190.581 8.76776 190.545 8.94743 190.508 9.16303H192.983V9.12709Z" fill="white"/>
<path d="M194.985 11.4987H194.402V7.18669H194.985V7.94129C195.13 7.72569 195.276 7.51009 195.494 7.33042C195.712 7.15075 195.967 7.07889 196.331 7.07889C196.549 7.07889 196.768 7.11482 196.95 7.18669C197.132 7.25855 197.277 7.40229 197.423 7.54602C197.568 7.68976 197.641 7.86942 197.714 8.08502C197.787 8.30062 197.823 8.51622 197.823 8.76776V11.4987H197.241V8.98336C197.241 8.58809 197.132 8.26469 196.95 8.04909C196.768 7.83349 196.513 7.68976 196.149 7.68976C195.967 7.68976 195.822 7.72569 195.676 7.79756C195.53 7.86942 195.421 7.94129 195.312 8.08502C195.203 8.19282 195.13 8.33656 195.057 8.51622C194.985 8.69589 194.985 8.87556 194.985 9.05522V11.4987Z" fill="white"/>
<path d="M201.68 7.79756C201.498 7.86942 201.316 7.94129 201.134 8.01316L200.953 7.47416C201.171 7.36636 201.389 7.25856 201.608 7.22262C201.826 7.15076 202.081 7.11482 202.372 7.11482C202.918 7.11482 203.318 7.25856 203.609 7.54602C203.9 7.83349 204.046 8.26469 204.046 8.83963V11.4987H203.5V10.8519C203.354 11.0316 203.172 11.2112 202.954 11.355C202.736 11.4987 202.445 11.5706 202.081 11.5706C201.899 11.5706 201.717 11.5346 201.535 11.4987C201.353 11.4268 201.207 11.355 201.062 11.2472C200.916 11.1394 200.807 10.9956 200.734 10.816C200.661 10.6363 200.625 10.4566 200.625 10.241C200.625 10.0254 200.661 9.80983 200.734 9.63016C200.807 9.45049 200.916 9.30676 201.062 9.19896C201.207 9.09116 201.389 8.98336 201.571 8.94743C201.79 8.87556 202.008 8.83963 202.226 8.83963C202.481 8.83963 202.699 8.83963 202.881 8.87556C203.063 8.91149 203.245 8.94743 203.427 9.01929V8.87556C203.427 8.48029 203.318 8.19282 203.136 8.01316C202.918 7.83349 202.663 7.72569 202.299 7.72569C202.081 7.72569 201.899 7.72569 201.68 7.79756ZM201.498 9.55829C201.316 9.70203 201.207 9.95356 201.207 10.2051C201.207 10.3488 201.244 10.4566 201.28 10.5644C201.316 10.6722 201.389 10.7441 201.498 10.8519C201.571 10.9238 201.68 10.9956 201.826 11.0316C201.935 11.0675 202.081 11.1034 202.19 11.1034C202.372 11.1034 202.554 11.0675 202.699 11.0316C202.845 10.9597 202.99 10.8878 203.1 10.78C203.209 10.6722 203.318 10.5644 203.391 10.4207C203.464 10.277 203.5 10.1332 203.5 9.95356V9.52236C203.354 9.48643 203.172 9.45049 202.99 9.41456C202.808 9.37863 202.59 9.34269 202.335 9.34269C201.971 9.30676 201.717 9.41456 201.498 9.55829Z" fill="white"/>
<path d="M205.648 11.4987H205.065V7.18669H205.648V7.94129C205.793 7.72569 205.939 7.51009 206.157 7.33042C206.376 7.15075 206.63 7.07889 206.994 7.07889C207.213 7.07889 207.431 7.11482 207.613 7.18669C207.795 7.25855 207.94 7.40229 208.086 7.54602C208.231 7.68976 208.304 7.86942 208.377 8.08502C208.45 8.30062 208.486 8.51622 208.486 8.76776V11.4987H207.904V8.98336C207.904 8.58809 207.795 8.26469 207.613 8.04909C207.431 7.83349 207.176 7.68976 206.812 7.68976C206.63 7.68976 206.485 7.72569 206.339 7.79756C206.194 7.86942 206.084 7.94129 205.975 8.08502C205.866 8.19282 205.793 8.33656 205.72 8.51622C205.648 8.69589 205.648 8.87556 205.648 9.05522V11.4987V11.4987Z" fill="white"/>
<path d="M212.634 11.4987V10.6363C212.561 10.78 212.452 10.8878 212.379 10.9956C212.27 11.1034 212.161 11.2112 212.052 11.319C211.943 11.3909 211.797 11.4628 211.652 11.5346C211.506 11.5706 211.324 11.6065 211.142 11.6065C210.924 11.6065 210.669 11.5706 210.451 11.4628C210.232 11.355 210.014 11.2112 209.868 11.0316C209.686 10.8519 209.541 10.6004 209.432 10.3129C209.323 10.0254 209.286 9.73796 209.286 9.37862C209.286 9.01929 209.323 8.69589 209.432 8.44436C209.541 8.15689 209.686 7.94129 209.868 7.72569C210.05 7.54602 210.232 7.40229 210.451 7.29449C210.669 7.18669 210.887 7.15075 211.142 7.15075C211.324 7.15075 211.506 7.18669 211.652 7.22262C211.797 7.25855 211.943 7.33042 212.052 7.43822C212.161 7.51009 212.27 7.61789 212.379 7.72569C212.489 7.83349 212.561 7.94129 212.634 8.08502V5.49782H213.216V11.4987H212.634ZM212.561 8.65996C212.489 8.44436 212.379 8.30062 212.234 8.15689C212.088 8.01316 211.943 7.90535 211.797 7.83349C211.615 7.76162 211.47 7.72569 211.288 7.72569C211.106 7.72569 210.924 7.76162 210.742 7.83349C210.56 7.90535 210.414 8.01316 210.305 8.15689C210.196 8.30062 210.087 8.48029 210.014 8.65996C209.941 8.87556 209.905 9.09116 209.905 9.34269C209.905 9.59422 209.941 9.80982 210.014 10.0254C210.087 10.241 210.196 10.4207 210.305 10.5644C210.414 10.7082 210.56 10.816 210.742 10.8878C210.924 10.9597 211.069 10.9956 211.251 10.9956C211.433 10.9956 211.615 10.9597 211.761 10.8878C211.943 10.816 212.088 10.7082 212.197 10.5644C212.343 10.4207 212.452 10.241 212.525 10.0254C212.598 9.80982 212.634 9.59422 212.634 9.34269C212.671 9.09116 212.634 8.87556 212.561 8.65996Z" fill="white"/>
<path d="M218.748 11.4987H218.166V9.19896L215.982 5.67749H216.71L218.493 8.58809L220.277 5.67749H220.968L218.785 9.16303V11.4987H218.748Z" fill="white"/>
<path d="M224.425 10.2051C224.316 10.4926 224.171 10.7082 223.989 10.9238C223.807 11.1394 223.588 11.2831 223.334 11.4268C223.079 11.5346 222.824 11.6065 222.533 11.6065C222.242 11.6065 221.987 11.5346 221.732 11.4268C221.478 11.319 221.259 11.1394 221.077 10.9597C220.895 10.7441 220.75 10.5285 220.641 10.241C220.531 9.95356 220.495 9.66609 220.495 9.37863C220.495 9.09116 220.531 8.76776 220.641 8.51623C220.75 8.22876 220.895 8.01316 221.077 7.79756C221.259 7.58196 221.478 7.43822 221.732 7.29449C221.987 7.18669 222.242 7.11482 222.533 7.11482C222.824 7.11482 223.079 7.18669 223.334 7.29449C223.588 7.40229 223.807 7.58196 223.989 7.76162C224.171 7.97722 224.316 8.19282 224.425 8.48029C224.535 8.76776 224.571 9.05523 224.571 9.34269C224.571 9.66609 224.535 9.95356 224.425 10.2051ZM223.88 8.69589C223.807 8.48029 223.698 8.30062 223.588 8.15689C223.443 8.01316 223.297 7.86942 223.115 7.79756C222.933 7.72569 222.751 7.65382 222.533 7.65382C222.315 7.65382 222.133 7.68976 221.951 7.79756C221.769 7.86942 221.623 8.01316 221.514 8.15689C221.405 8.30062 221.296 8.48029 221.223 8.69589C221.15 8.91149 221.114 9.12709 221.114 9.34269C221.114 9.55829 221.15 9.80983 221.223 9.98949C221.296 10.2051 221.405 10.3848 221.514 10.5285C221.66 10.6722 221.805 10.78 221.987 10.8878C222.169 10.9597 222.351 11.0316 222.569 11.0316C222.788 11.0316 222.97 10.9956 223.152 10.8878C223.334 10.816 223.479 10.6722 223.588 10.5285C223.698 10.3848 223.807 10.2051 223.88 9.98949C223.952 9.77389 223.989 9.55829 223.989 9.34269C223.989 9.12709 223.952 8.91149 223.88 8.69589Z" fill="white"/>
<path d="M228.21 7.18669H228.792V11.4987H228.21V10.7441C228.064 10.9597 227.918 11.1753 227.7 11.355C227.482 11.5346 227.227 11.6065 226.863 11.6065C226.645 11.6065 226.426 11.5706 226.244 11.4987C226.063 11.4268 225.917 11.2831 225.771 11.1394C225.626 10.9956 225.553 10.816 225.48 10.6004C225.407 10.3848 225.371 10.1692 225.371 9.91763V7.18669H225.953V9.70203C225.953 10.0973 226.063 10.4207 226.244 10.6363C226.426 10.8519 226.681 10.9956 227.045 10.9956C227.227 10.9956 227.373 10.9597 227.518 10.8878C227.664 10.816 227.773 10.7441 227.882 10.6004C227.991 10.4926 228.064 10.3488 228.137 10.1692C228.21 9.9895 228.21 9.80983 228.21 9.63016V7.18669V7.18669Z" fill="white"/>
<path d="M230.466 11.4987H229.884V7.18669H230.466V7.94129C230.612 7.72569 230.757 7.51009 230.976 7.33042C231.194 7.15075 231.449 7.07889 231.813 7.07889C232.031 7.07889 232.249 7.11482 232.431 7.18669C232.613 7.25855 232.759 7.40229 232.904 7.54602C233.05 7.68976 233.123 7.86942 233.195 8.08502C233.268 8.30062 233.305 8.51622 233.305 8.76776V11.4987H232.722V8.98336C232.722 8.58809 232.613 8.26469 232.431 8.04909C232.249 7.83349 231.994 7.68976 231.631 7.68976C231.449 7.68976 231.303 7.72569 231.157 7.79756C231.012 7.86942 230.903 7.94129 230.794 8.08502C230.684 8.19282 230.612 8.33656 230.539 8.51622C230.466 8.69589 230.466 8.87556 230.466 9.05522V11.4987V11.4987Z" fill="white"/>
<path d="M237.89 11.6424C237.781 11.894 237.672 12.1096 237.49 12.2892C237.308 12.4689 237.126 12.6126 236.871 12.6845C236.616 12.7564 236.362 12.8282 236.071 12.8282C235.743 12.8282 235.416 12.7923 235.124 12.6845C234.833 12.5767 234.542 12.433 234.287 12.2533L234.542 11.7502C234.761 11.9299 235.015 12.0736 235.234 12.1455C235.488 12.2533 235.743 12.2892 236.034 12.2892C236.471 12.2892 236.798 12.1455 237.053 11.894C237.308 11.6424 237.453 11.2472 237.453 10.7441V10.241C237.272 10.4926 237.09 10.7082 236.835 10.8878C236.58 11.0675 236.289 11.1394 235.925 11.1394C235.707 11.1394 235.452 11.1034 235.234 10.9956C235.015 10.8878 234.833 10.78 234.651 10.6004C234.469 10.4207 234.36 10.2051 234.251 9.95356C234.142 9.70202 234.105 9.41456 234.105 9.09116C234.105 8.76776 234.142 8.48029 234.251 8.22876C234.36 7.97722 234.506 7.76162 234.651 7.58195C234.833 7.40229 235.015 7.25855 235.234 7.18669C235.452 7.07889 235.67 7.04295 235.925 7.04295C236.107 7.04295 236.289 7.07889 236.435 7.11482C236.58 7.15075 236.726 7.22262 236.835 7.29449C236.944 7.36635 237.053 7.47415 237.162 7.58195C237.272 7.68975 237.344 7.79755 237.417 7.90535V7.18669H237.999V10.7441C238.036 11.1034 237.963 11.3909 237.89 11.6424ZM237.344 8.55216C237.272 8.37249 237.162 8.22876 237.017 8.08502C236.871 7.94129 236.726 7.86942 236.544 7.79755C236.362 7.72569 236.18 7.68975 235.998 7.68975C235.816 7.68975 235.634 7.72569 235.488 7.79755C235.343 7.86942 235.197 7.97722 235.052 8.08502C234.942 8.22876 234.833 8.37249 234.761 8.55216C234.688 8.73182 234.651 8.94742 234.651 9.16302C234.651 9.37862 234.688 9.59422 234.761 9.77389C234.833 9.95356 234.942 10.0973 235.052 10.241C235.161 10.3848 235.306 10.4566 235.488 10.5285C235.634 10.6004 235.816 10.6363 235.998 10.6363C236.18 10.6363 236.362 10.6004 236.544 10.5285C236.726 10.4566 236.871 10.3488 237.017 10.241C237.162 10.0973 237.272 9.95356 237.344 9.77389C237.417 9.59422 237.453 9.37862 237.453 9.16302C237.453 8.91149 237.417 8.73182 237.344 8.55216Z" fill="white"/>
<path d="M246.187 11.4987H245.532L244.913 9.95356H242.038L241.419 11.4987H240.801L243.203 5.64156H243.748L246.187 11.4987ZM243.53 6.39616L242.329 9.3427H244.731L243.53 6.39616Z" fill="white"/>
<path d="M249.899 11.4987V10.6363C249.826 10.78 249.717 10.8878 249.644 10.9956C249.535 11.1034 249.426 11.2112 249.317 11.319C249.207 11.3909 249.062 11.4628 248.916 11.5346C248.771 11.5706 248.589 11.6065 248.407 11.6065C248.188 11.6065 247.934 11.5706 247.715 11.4628C247.497 11.355 247.279 11.2112 247.133 11.0316C246.951 10.8519 246.806 10.6004 246.696 10.3129C246.587 10.0254 246.551 9.73796 246.551 9.37862C246.551 9.01929 246.587 8.69589 246.696 8.44436C246.806 8.15689 246.951 7.94129 247.133 7.72569C247.315 7.54602 247.497 7.40229 247.715 7.29449C247.934 7.18669 248.152 7.15075 248.407 7.15075C248.589 7.15075 248.771 7.18669 248.916 7.22262C249.062 7.25855 249.207 7.33042 249.317 7.43822C249.426 7.51009 249.535 7.61789 249.644 7.72569C249.753 7.83349 249.826 7.94129 249.899 8.08502V5.49782H250.481V11.4987H249.899ZM249.79 8.65996C249.717 8.44436 249.608 8.30062 249.462 8.15689C249.317 8.01316 249.171 7.90535 249.025 7.83349C248.843 7.76162 248.698 7.72569 248.516 7.72569C248.334 7.72569 248.152 7.76162 247.97 7.83349C247.788 7.90535 247.643 8.01316 247.533 8.15689C247.424 8.30062 247.315 8.48029 247.242 8.65996C247.169 8.87556 247.133 9.09116 247.133 9.34269C247.133 9.59422 247.169 9.80982 247.242 10.0254C247.315 10.241 247.424 10.4207 247.533 10.5644C247.643 10.7082 247.788 10.816 247.97 10.8878C248.152 10.9597 248.298 10.9956 248.48 10.9956C248.661 10.9956 248.843 10.9597 248.989 10.8878C249.171 10.816 249.317 10.7082 249.426 10.5644C249.571 10.4207 249.68 10.241 249.753 10.0254C249.826 9.80982 249.862 9.59422 249.862 9.34269C249.899 9.09116 249.862 8.87556 249.79 8.65996Z" fill="white"/>
<path d="M254.339 7.18669H254.921V11.4987H254.339V10.7441C254.193 10.9597 254.047 11.1753 253.829 11.355C253.611 11.5346 253.356 11.6065 252.992 11.6065C252.774 11.6065 252.555 11.5706 252.373 11.4987C252.191 11.4268 252.046 11.2831 251.9 11.1394C251.755 10.9956 251.682 10.816 251.609 10.6004C251.536 10.3848 251.5 10.1692 251.5 9.91763V7.18669H252.082V9.70203C252.082 10.0973 252.191 10.4207 252.373 10.6363C252.555 10.8519 252.81 10.9956 253.174 10.9956C253.356 10.9956 253.502 10.9597 253.647 10.8878C253.793 10.816 253.902 10.7441 254.011 10.6004C254.12 10.4926 254.193 10.3488 254.266 10.1692C254.339 9.9895 254.339 9.80983 254.339 9.63016V7.18669V7.18669Z" fill="white"/>
<path d="M256.049 11.4987V5.42595H256.631V11.4987H256.049Z" fill="white"/>
<path d="M258.597 10.277C258.597 10.5285 258.669 10.7441 258.779 10.816C258.888 10.9238 259.07 10.9597 259.252 10.9597C259.361 10.9597 259.434 10.9597 259.543 10.9238C259.616 10.8878 259.725 10.8519 259.834 10.816V11.355C259.725 11.4268 259.616 11.4628 259.506 11.4987C259.397 11.5346 259.252 11.5346 259.142 11.5346C258.997 11.5346 258.851 11.4987 258.706 11.4628C258.56 11.4268 258.451 11.355 258.342 11.2472C258.233 11.1394 258.16 11.0316 258.124 10.8519C258.051 10.7082 258.051 10.5285 258.051 10.3129V7.72568H257.505V7.18668H258.051V5.89308H258.633V7.18668H259.87V7.76162H258.633V10.277H258.597Z" fill="white"/>
<path d="M59.5364 17.2121C60.3734 17.2121 61.1376 17.3918 61.8654 17.7152C62.5932 18.0386 63.2847 18.4698 63.8669 19.0447C64.4492 19.6196 64.9223 20.3024 65.3226 21.0929C65.7229 21.8834 65.9776 22.7458 66.1596 23.716H69.4712V15.3795C69.8351 15.3436 70.2354 15.3436 70.6357 15.3795C71.0724 15.4154 71.4363 15.4873 71.8002 15.631C72.1278 15.7748 72.4553 15.9904 72.6736 16.2778C72.9284 16.5653 73.0375 16.9246 73.0375 17.3918V39.7783H69.4348V26.6985H66.196C66.0868 27.7406 65.8321 28.6748 65.4318 29.5372C65.0315 30.3996 64.5584 31.1183 63.9761 31.7292C63.3938 32.3401 62.7024 32.8072 61.9382 33.1306C61.174 33.454 60.3734 33.6337 59.5 33.6337C58.5174 33.6337 57.6076 33.4181 56.807 33.0228C55.97 32.6275 55.2786 32.0526 54.6963 31.3339C54.0777 30.6152 53.6046 29.7169 53.2771 28.7467C52.9495 27.7406 52.7676 26.6266 52.7676 25.4408C52.7676 24.255 52.9495 23.177 53.2771 22.1709C53.6046 21.1648 54.0777 20.3024 54.6963 19.5837C55.2786 18.865 56.0064 18.2901 56.807 17.8589C57.6804 17.4277 58.5538 17.2121 59.5364 17.2121ZM59.5364 30.759C60.4098 30.759 61.174 30.2559 61.7926 29.2498C62.4113 28.2436 62.7024 26.986 62.7024 25.4408C62.7024 23.8957 62.4113 22.638 61.7926 21.6319C61.174 20.6258 60.4461 20.1227 59.5364 20.1227C58.6266 20.1227 57.8988 20.6258 57.2801 21.6319C56.6614 22.638 56.3703 23.8957 56.3703 25.4408C56.3703 26.986 56.6614 28.2436 57.2801 29.2498C57.8988 30.2559 58.6266 30.759 59.5364 30.759Z" fill="white"/>
<path d="M76.9316 28.7826V21.1648H85.5564V19.5837H76.9316V16.6012H89.1591V24.0754H80.5344V25.8002H90.1781C90.2145 26.0517 90.2145 26.3392 90.1781 26.6985C90.1417 27.0578 90.0689 27.3812 89.9233 27.6687C89.8142 27.9921 89.6322 28.2796 89.3775 28.4592C89.1227 28.6748 88.7952 28.7826 88.4313 28.7826H76.9316V28.7826ZM96.6193 36.4365C96.6557 36.7958 96.6193 37.1192 96.6193 37.5145C96.5829 37.8738 96.5102 38.1972 96.401 38.4847C96.2554 38.7721 96.0735 38.9877 95.8551 39.1674C95.6004 39.3471 95.3092 39.4549 94.9089 39.4549H78.9696V31.2261H82.5723V36.4365H96.6193ZM96.3282 33.0587H92.7255V15.092C93.1258 15.0202 93.5261 15.0202 93.9264 15.0202C94.3631 15.0561 94.727 15.128 95.0909 15.2717C95.4548 15.4154 95.746 15.631 95.9643 15.9185C96.1826 16.206 96.2918 16.6012 96.2918 17.0684V33.0587H96.3282Z" fill="white"/>
<path d="M106.408 17.2121C107.354 17.2121 108.264 17.4277 109.065 17.823C109.902 18.2542 110.593 18.8291 111.175 19.5478C111.794 20.2664 112.267 21.1288 112.595 22.135C112.922 23.1411 113.104 24.2191 113.104 25.4049C113.104 26.5907 112.922 27.7046 112.595 28.7108C112.267 29.7169 111.758 30.5793 111.175 31.298C110.593 32.0167 109.865 32.5916 109.065 32.9869C108.228 33.3821 107.354 33.5977 106.408 33.5977C105.426 33.5977 104.516 33.3821 103.715 32.9869C102.878 32.5916 102.187 32.0167 101.605 31.298C100.986 30.5793 100.513 29.681 100.185 28.7108C99.8577 27.7046 99.6758 26.5907 99.6758 25.4049C99.6758 24.2191 99.8577 23.1411 100.185 22.135C100.513 21.1288 100.986 20.2664 101.605 19.5478C102.187 18.8291 102.915 18.2542 103.715 17.823C104.516 17.4277 105.426 17.2121 106.408 17.2121ZM106.408 30.759C107.282 30.759 108.046 30.2559 108.664 29.2498C109.283 28.2436 109.574 26.986 109.574 25.4408C109.574 23.8957 109.283 22.638 108.664 21.6319C108.046 20.6258 107.318 20.1227 106.408 20.1227C105.498 20.1227 104.771 20.6258 104.152 21.6319C103.533 22.638 103.242 23.8957 103.242 25.4408C103.242 26.986 103.533 28.2436 104.152 29.2498C104.734 30.2559 105.498 30.759 106.408 30.759ZM119.618 39.7423H116.015V15.3795C116.379 15.3436 116.78 15.3436 117.18 15.3795C117.617 15.4154 117.981 15.4873 118.345 15.631C118.672 15.7748 119 15.9904 119.218 16.2778C119.473 16.5653 119.582 16.9246 119.582 17.3918V39.7423H119.618Z" fill="white"/>
<path d="M135.304 17.823C135.34 18.6854 135.304 19.3322 135.231 19.7634C135.122 20.4461 134.903 21.057 134.576 21.6678C134.248 22.2428 133.884 22.8177 133.411 23.3567C133.739 23.6442 134.103 23.9316 134.43 24.1832C134.758 24.4347 135.122 24.6503 135.485 24.8659C135.813 25.0815 136.177 25.2971 136.577 25.5127C136.941 25.7283 137.341 25.908 137.705 26.1236L136.978 27.3453C136.832 27.5968 136.65 27.8124 136.468 27.9562C136.286 28.1358 136.031 28.2436 135.704 28.3155C135.522 28.3514 135.376 28.3514 135.231 28.3155C135.085 28.2796 134.903 28.1718 134.685 28.0999C134.285 27.9202 133.739 27.6328 133.047 27.2016C132.356 26.8063 131.628 26.2673 130.937 25.6205C130.027 26.2673 129.117 26.8422 128.134 27.3453C127.152 27.8484 126.242 28.2436 125.405 28.5311C125.296 28.603 125.187 28.6389 125.078 28.6389C124.968 28.6389 124.859 28.6389 124.786 28.6389C124.532 28.6389 124.277 28.5311 124.095 28.3514C123.913 28.1718 123.767 27.9921 123.695 27.8484C123.658 27.8484 123.658 27.8484 123.622 27.8124C123.586 27.7765 123.549 27.7406 123.513 27.6328C123.44 27.5609 123.367 27.4172 123.258 27.2375C123.149 27.0578 123.003 26.8063 122.821 26.4829C123.44 26.1954 124.168 25.872 124.932 25.5127C125.696 25.1893 126.46 24.794 127.188 24.3628C127.952 23.9316 128.644 23.4286 129.335 22.8536C130.027 22.2787 130.573 21.56 131.046 20.7336H124.095V17.787H127.698C127.989 17.3558 128.316 16.8168 128.644 16.17C129.008 15.5232 129.372 14.7327 129.736 13.8344L133.084 15.3436C132.974 15.631 132.756 15.9904 132.465 16.4575C132.174 16.9246 131.81 17.3558 131.446 17.787H135.304V17.823ZM134.721 29.3935C135.886 29.3935 136.941 29.5372 137.924 29.8606C138.906 30.1481 139.743 30.5793 140.471 31.0824C141.163 31.5854 141.745 32.1604 142.145 32.8431C142.545 33.4899 142.764 34.1727 142.764 34.8913C142.764 35.61 142.545 36.3287 142.145 36.9755C141.745 37.6223 141.163 38.2331 140.471 38.7362C139.743 39.2393 138.906 39.6345 137.924 39.922C136.941 40.2095 135.886 40.3532 134.721 40.3532C133.557 40.3532 132.501 40.2095 131.519 39.922C130.536 39.6345 129.699 39.2393 128.971 38.7362C128.244 38.2331 127.661 37.6582 127.261 36.9755C126.861 36.3287 126.642 35.61 126.642 34.8913C126.642 34.1727 126.861 33.4899 127.261 32.8431C127.661 32.1963 128.244 31.5854 128.971 31.0824C129.663 30.5793 130.536 30.184 131.519 29.8606C132.501 29.5372 133.557 29.3935 134.721 29.3935ZM134.721 37.4067C136.031 37.4067 137.087 37.1911 137.924 36.7239C138.761 36.2927 139.161 35.6459 139.161 34.8554C139.161 34.0649 138.761 33.454 137.924 32.9869C137.087 32.5557 136.031 32.3041 134.721 32.3041C133.411 32.3041 132.319 32.5197 131.519 32.9869C130.682 33.4181 130.282 34.0649 130.282 34.8554C130.282 35.6459 130.682 36.2568 131.519 36.7239C132.319 37.1911 133.375 37.4067 134.721 37.4067ZM143.2 29.3935H139.598V23.9676H135.995V20.9492H139.598V15.092C139.998 15.0202 140.398 15.0202 140.799 15.0202C141.235 15.0561 141.599 15.128 141.963 15.2717C142.327 15.4154 142.618 15.631 142.837 15.9185C143.055 16.206 143.164 16.6012 143.164 17.0684V29.3935H143.2Z" fill="white"/>
<path d="M168.347 34.6038C168.383 34.9632 168.347 35.2866 168.347 35.6819C168.31 36.0412 168.238 36.3646 168.092 36.6521C167.983 36.9395 167.801 37.1551 167.546 37.3348C167.291 37.5145 167 37.6223 166.636 37.6223H145.93V34.6038H155.355V28.7826C155.719 28.7467 156.119 28.7467 156.52 28.7826C156.956 28.8186 157.32 28.8904 157.684 29.0342C158.012 29.1779 158.339 29.3935 158.557 29.681C158.812 29.9684 158.921 30.3278 158.921 30.7949V34.6398H168.347V34.6038ZM159.285 19.0806C159.249 19.44 159.176 19.7993 159.067 20.1586C158.958 20.518 158.849 20.8414 158.703 21.2007C159.285 21.8834 159.94 22.5302 160.632 23.1052C161.36 23.6801 162.087 24.255 162.852 24.7581C163.616 25.2612 164.344 25.7283 165.108 26.1595C165.872 26.5907 166.564 26.95 167.219 27.2734C167.037 27.489 166.855 27.7406 166.673 27.9562C166.527 28.1718 166.345 28.4233 166.163 28.6389C165.981 28.8545 165.799 28.9982 165.617 29.142C165.399 29.2857 165.181 29.3576 164.926 29.3576C164.853 29.3576 164.817 29.3576 164.78 29.3576C164.744 29.3576 164.671 29.3576 164.635 29.3576C164.562 29.3216 164.526 29.3216 164.489 29.2857C164.453 29.2498 164.416 29.2498 164.38 29.2138C163.106 28.7467 161.796 28.064 160.377 27.2016C158.994 26.3392 157.72 25.369 156.592 24.3269C156.01 24.9737 155.391 25.5846 154.736 26.1236C154.081 26.6626 153.463 27.1656 152.88 27.6328C152.298 28.064 151.752 28.4233 151.243 28.7108C150.77 28.9982 150.406 29.2138 150.151 29.3216L149.896 29.4654C149.824 29.5013 149.751 29.5372 149.714 29.5732C149.678 29.6091 149.605 29.6091 149.569 29.6091C149.532 29.645 149.496 29.645 149.423 29.645C149.35 29.645 149.314 29.645 149.205 29.645C148.914 29.645 148.695 29.5732 148.513 29.4294C148.332 29.2857 148.186 29.142 148.077 28.9623C148.04 28.9623 147.968 28.8904 147.822 28.7108C147.713 28.5311 147.422 28.1358 146.985 27.525C147.422 27.2734 148.04 26.9141 148.877 26.3751C149.714 25.872 150.588 25.2252 151.461 24.5066C152.335 23.752 153.135 22.8896 153.863 21.9553C154.591 20.9851 155.064 19.979 155.282 18.865V16.8887C155.646 16.8168 156.046 16.8168 156.52 16.8168C156.993 16.8528 157.393 16.9246 157.793 17.0324C158.194 17.1762 158.521 17.3918 158.812 17.6792C159.067 17.9667 159.213 18.326 159.213 18.7932V19.0806H159.285Z" fill="white"/>
<path d="M170.784 28.3155V16.6012C171.221 16.5653 171.621 16.5653 172.058 16.6012C172.495 16.6372 172.858 16.709 173.222 16.8528C173.55 16.9965 173.841 17.2121 174.059 17.4996C174.278 17.787 174.387 18.1464 174.387 18.6135V25.333H184.031C184.067 25.6924 184.031 26.0517 184.031 26.411C183.994 26.7704 183.921 27.0938 183.776 27.3812C183.667 27.6687 183.485 27.8843 183.23 28.064C182.975 28.2436 182.684 28.3514 182.32 28.3514H170.784V28.3155ZM190.326 36.4365C190.363 36.7958 190.326 37.1192 190.326 37.5145C190.29 37.8738 190.217 38.1972 190.108 38.4847C189.962 38.7721 189.78 38.9877 189.562 39.1674C189.307 39.3471 189.016 39.4549 188.616 39.4549H172.677V30.6152H176.279V36.4365H190.326ZM190.035 33.0587H186.432V24.9737H181.265V22.0631H186.432V20.9851H181.265V18.0745H186.432V15.092C186.833 15.0202 187.233 15.0202 187.633 15.0202C188.07 15.0561 188.434 15.128 188.798 15.2717C189.162 15.4154 189.453 15.631 189.671 15.9185C189.89 16.206 189.999 16.6012 189.999 17.0684V33.0587H190.035Z" fill="white"/>
<path d="M215.219 34.6039C215.255 34.9632 215.219 35.2866 215.219 35.6819C215.182 36.0412 215.11 36.3646 214.964 36.6521C214.855 36.9395 214.673 37.1551 214.418 37.3348C214.163 37.5145 213.872 37.6223 213.508 37.6223H192.802V34.6039H202.3V29.681C202.664 29.645 203.064 29.645 203.464 29.681C203.901 29.7169 204.265 29.7888 204.629 29.9325C204.956 30.0762 205.284 30.2918 205.502 30.5793C205.757 30.8668 205.866 31.2261 205.866 31.6932V34.6039H215.219V34.6039ZM212.344 20.0868H198.988V25.8002H212.599C212.635 26.1236 212.635 26.4829 212.635 26.8063C212.635 27.1656 212.599 27.489 212.489 27.7765C212.38 28.064 212.235 28.3155 212.016 28.5311C211.798 28.7108 211.471 28.8186 211.07 28.8186H195.386V17.0684H212.344V20.0868Z" fill="white"/>
<path d="M225.408 19.7993C225.371 20.518 225.335 21.2366 225.226 21.9194C225.116 22.6021 225.007 23.2489 224.862 23.8598C225.408 25.0096 225.99 26.0158 226.681 26.95C227.373 27.8484 228.028 28.6389 228.646 29.3216C229.265 29.9684 229.811 30.5074 230.248 30.8668C230.721 31.2621 231.012 31.4777 231.121 31.5495L230.248 32.8072C230.102 33.0587 229.92 33.2743 229.702 33.4181C229.483 33.5977 229.229 33.7055 228.865 33.7774C228.756 33.8133 228.574 33.8133 228.392 33.7774C228.173 33.7415 227.991 33.6337 227.809 33.4899C227.045 32.8072 226.281 32.0167 225.48 31.0824C224.68 30.1481 223.916 29.106 223.224 27.9562C222.642 29.106 221.987 30.1481 221.295 31.1183C220.604 32.0526 219.912 32.915 219.294 33.7055L219.075 33.9571C218.93 34.0289 218.821 34.1008 218.675 34.1008C218.53 34.1367 218.42 34.1367 218.275 34.1367C217.984 34.1367 217.693 34.0649 217.438 33.9211C217.183 33.7774 216.965 33.5977 216.819 33.3821L215.873 32.2682C216.055 32.0885 216.455 31.6573 217.074 30.9386C217.693 30.22 218.348 29.2857 219.003 28.1718C219.658 27.0219 220.276 25.7283 220.786 24.255C221.295 22.7818 221.55 21.2007 221.514 19.5118V17.0684C221.878 17.0324 222.278 17.0324 222.751 17.0684C223.224 17.1043 223.624 17.1762 224.025 17.3199C224.425 17.4636 224.716 17.6792 225.007 17.9667C225.262 18.2542 225.408 18.6135 225.408 19.0806V19.7993V19.7993ZM236.907 39.7423H233.304V26.0876H228.428V23.0692H233.304V15.3795C233.668 15.3436 234.069 15.3436 234.469 15.3795C234.906 15.4154 235.27 15.4873 235.634 15.631C235.961 15.7748 236.289 15.9904 236.507 16.2778C236.762 16.5653 236.871 16.9246 236.871 17.3918V39.7423H236.907Z" fill="white"/>
<path d="M255.176 26.5188C255.213 26.8782 255.176 27.2016 255.176 27.5968C255.14 27.9562 255.067 28.2796 254.922 28.567C254.812 28.8545 254.631 29.0701 254.376 29.2498C254.121 29.4294 253.83 29.5372 253.466 29.5372H239.965V26.5188H244.186V21.7756C244.55 21.7397 244.95 21.7397 245.351 21.7756C245.787 21.8116 246.151 21.8834 246.515 22.0272C246.843 22.1709 247.17 22.3865 247.389 22.674C247.643 22.9614 247.753 23.3208 247.753 23.7879V26.5548H255.176V26.5188ZM253.43 20.5539C253.43 21.3085 253.393 22.099 253.284 22.8536C253.175 23.6082 252.957 24.4347 252.665 25.2612H249.063C249.463 24.2191 249.681 23.2489 249.754 22.4224C249.827 21.596 249.863 20.8414 249.863 20.2305V19.5837H241.53V16.5653H253.466V20.5539H253.43ZM259.907 36.4365C259.944 36.7958 259.907 37.1192 259.907 37.5145C259.871 37.8738 259.798 38.1972 259.689 38.4847C259.543 38.7721 259.361 38.9877 259.143 39.1674C258.888 39.3471 258.597 39.4549 258.197 39.4549H242.257V31.5495H245.86V36.4365H259.907ZM259.616 33.3462H256.013V15.092C256.414 15.0202 256.814 15.0202 257.214 15.0202C257.651 15.0561 258.015 15.128 258.379 15.2717C258.743 15.4154 259.034 15.631 259.252 15.9185C259.471 16.206 259.58 16.6012 259.58 17.0684V21.56H262.891C263.001 22.135 263.001 22.638 262.964 23.0692C262.891 23.5004 262.782 23.8238 262.6 24.0754C262.382 24.3269 262.164 24.5066 261.909 24.5425C261.654 24.5784 261.472 24.6144 261.399 24.6144H259.616V33.3462V33.3462Z" fill="white"/>
<path d="M42.3592 33.0947H20.5244V37.4426H42.3592V33.0947Z" fill="#60B44D"/>
<path d="M16.9216 33.0947H15.1748V37.4426H16.9216V33.0947Z" fill="#E8731A"/>
<path d="M11.5725 29.5013H16.922V21.3444H5.49512V37.4426H11.5725V29.5013Z" fill="#F0E62A"/>
</g>
<defs>
<clipPath id="clip0_352_1454">
<rect width="263" height="41" fill="white"/>
</clipPath>
</defs>
</svg>
