<svg width="263" height="22" viewBox="0 0 263 22" fill="none" xmlns="http://www.w3.org/2000/svg">
<g clip-path="url(#clip0_109_7705)">
<path d="M61.9429 14.4555H58.7942V20.7906C58.7942 21.1361 58.966 21.3089 59.3095 21.3089H71.9042V19.2356H62.1719C62.0002 19.2356 61.8857 19.1204 61.8857 18.9476V14.4555H61.9429ZM66.4656 5.12565V3.10995H54.3289V5.18325H66.4656V5.12565ZM71.3889 0.863874H68.2975V15.5497H71.3889V0.863874ZM55.3593 8.00524C55.3593 10.8848 57.592 12.7853 60.34 12.7853C63.0879 12.7853 65.3206 10.8848 65.3206 8.00524C65.3206 5.12565 63.0879 3.16754 60.34 3.16754C57.592 3.22513 55.3593 5.12565 55.3593 8.00524ZM58.737 3.34031H62.0002V0.287958H58.737V3.34031ZM70.5875 8.40838H74.3659V6.33508H70.5875V8.40838ZM58.4508 8.00524C58.4508 6.27749 59.3095 5.18325 60.34 5.18325C61.3704 5.18325 62.2292 6.27749 62.2292 8.00524C62.2292 9.73298 61.3704 10.8272 60.34 10.8272C59.3095 10.8272 58.4508 9.67539 58.4508 8.00524ZM87.762 21.5393H90.8535V14.6283C90.8535 14.2827 90.6817 14.1099 90.3382 14.1099H77.2283V16.1257H87.4758C87.6475 16.1257 87.7048 16.2408 87.7048 16.4136V21.5393H87.762ZM87.762 9.04188H90.8535V1.67016C90.8535 1.32461 90.739 1.15183 90.3382 1.15183H76.942V3.22513H87.4758C87.6475 3.22513 87.762 3.34031 87.762 3.51309V9.04188ZM75.3963 10.712H92.5709V8.63874H75.3963V10.712ZM85.4721 10.1361H82.4379V14.5707H85.5293V10.1361H85.4721ZM150.506 18.4869H167.452V16.4136H150.506V18.4869ZM160.525 11.288H157.434V16.8743H160.525V11.288ZM165.219 12.3246C165.62 12.3246 165.735 12.1518 165.735 11.8063V1.32461H162.643V10.0209C162.643 10.1937 162.529 10.3089 162.414 10.3089H155.659C155.487 10.3089 155.373 10.1937 155.373 10.0209V1.32461H152.281V11.8063C152.281 12.1518 152.396 12.3246 152.796 12.3246H165.219ZM154.514 6.91099H163.445V4.8377H154.514V6.91099ZM145.411 0.863874H148.503V12.6126H145.411V0.863874ZM146.156 7.42932H141.805V5.41361H146.156V7.42932ZM205.866 0.863874H202.774V21.0785H205.866V0.863874ZM188.863 17.3927H203.576V15.3194H188.863V17.3927ZM221.895 15.5497H224.987V0.863874H221.895V15.5497ZM219.434 3.39791V1.32461H208.786V3.39791H219.434ZM215.426 14.1675H212.278V20.7906C212.278 21.1361 212.449 21.3089 212.793 21.3089H225.388V19.2356H215.655C215.484 19.2356 215.369 19.1204 215.369 18.9476V14.1675H215.426ZM242.791 4.089V2.18848H228.937V4.089H242.791ZM230.54 6.04712C230.54 8.2356 232.887 9.67539 235.807 9.67539C238.669 9.67539 241.074 8.2356 241.074 6.04712C241.074 3.80105 238.669 2.36126 235.807 2.36126C232.887 2.36126 230.54 3.80105 230.54 6.04712ZM234.204 2.30366H237.467V0H234.204V2.30366ZM233.631 5.93194C233.631 4.8377 234.605 4.1466 235.864 4.1466C237.066 4.1466 238.04 4.89529 238.04 5.93194C238.04 7.02618 237.066 7.71728 235.864 7.71728C234.605 7.71728 233.631 6.96859 233.631 5.93194ZM259.451 16.644H262.542V0.863874H259.451V16.644ZM260.252 12.8429H255.558V14.8586H260.252V12.8429ZM245.596 11.6335H258.191V9.56021H245.596V11.6335ZM253.21 11.0576H250.119V14.6283H253.21V11.0576ZM247.142 4.43456C247.142 7.02618 249.26 8.63874 251.951 8.63874C254.584 8.63874 256.76 6.96859 256.76 4.43456C256.76 1.84293 254.584 0.172775 251.951 0.172775C249.26 0.230366 247.142 1.90052 247.142 4.43456ZM250.234 4.43456C250.234 3.05236 250.978 2.18848 251.951 2.18848C252.924 2.18848 253.668 3.05236 253.668 4.43456C253.668 5.75916 252.924 6.62304 251.951 6.62304C250.978 6.68063 250.234 5.81675 250.234 4.43456ZM252.752 15.6073H249.604V20.7906C249.604 21.1361 249.776 21.3089 250.119 21.3089H263V19.2356H253.039C252.867 19.2356 252.752 19.1204 252.752 18.9476V15.6073ZM113.123 11.9791H130.298V9.90576H113.123V11.9791ZM105.566 3.39791V1.32461H94.8036V3.39791H105.566ZM110.948 0.863874H107.856V21.0785H110.948V0.863874ZM118.047 1.03665H114.955V7.37173C114.955 7.71728 115.07 7.89005 115.47 7.89005H129.038V5.81675H118.333C118.161 5.81675 118.047 5.70157 118.047 5.58639V1.03665ZM184.856 0.863874H181.764V21.0785H184.856V0.863874ZM184.054 8.12042H187.833V6.04712H184.054V8.12042ZM227.334 12.6702H244.509V10.5969H227.334V12.6702ZM143.408 9.79058C140.602 9.04188 139.057 7.02618 139.057 4.1466V2.59162H136.023V3.62827C136.023 8.06283 138.656 11 143.35 11.9215V9.79058H143.408ZM131.729 12.1518C136.423 11.288 139.057 8.29319 139.057 3.85864V3.10995H136.023V4.43456C136.023 7.31414 134.534 9.32984 131.729 10.0785V12.1518ZM142.835 3.39791V1.32461H132.416V3.39791H142.835ZM220.121 10.8848C217.258 10.2513 215.541 8.17801 215.541 5.18325V2.70681H212.507V4.66492C212.507 9.21466 215.312 12.2094 220.064 12.9581V10.8848H220.121ZM208.213 13.1885C212.907 12.3246 215.541 9.32984 215.541 4.89529V3.16754H212.507V5.41361C212.507 8.29319 211.018 10.3089 208.213 11.0576V13.1885ZM106.311 12.7277C103.448 12.0942 101.673 9.21466 101.673 6.27749V2.70681H98.6393V5.70157C98.6393 10.2513 101.502 13.9948 106.311 14.801V12.7277ZM94.2311 14.7435C98.9255 13.8796 101.616 10.3665 101.616 5.93194V3.22513H98.582V6.50785C98.582 9.38743 97.0363 11.9215 94.2311 12.6702V14.7435ZM180.161 12.7277C177.299 12.0942 175.524 8.98429 175.524 5.98953V1.09424H172.49V5.4712C172.49 10.0209 175.352 14.0524 180.161 14.801V12.7277ZM168.082 14.7435C172.776 13.8796 175.467 10.1361 175.467 5.70157V1.09424H172.433V6.27749C172.433 9.15707 170.887 11.9791 168.082 12.7277V14.7435ZM196.878 11.5183H193.786V15.9529H196.878V11.5183ZM201.286 5.12565V3.10995H189.378V5.18325H201.286V5.12565ZM190.352 7.77487C190.352 10.5393 192.527 12.3246 195.332 12.3246C198.08 12.3246 200.313 10.5393 200.313 7.77487C200.313 5.01047 198.08 3.16754 195.332 3.16754C192.584 3.22513 190.352 5.01047 190.352 7.77487ZM193.729 3.34031H196.992V0.287958H193.729V3.34031ZM193.443 7.77487C193.443 6.1623 194.244 5.18325 195.332 5.18325C196.363 5.18325 197.164 6.1623 197.164 7.77487C197.164 9.38743 196.363 10.3665 195.332 10.3665C194.244 10.3665 193.443 9.32984 193.443 7.77487ZM229.91 17.7382C229.91 20.3298 232.544 22 235.807 22C239.07 22 241.703 20.3298 241.703 17.7382C241.703 15.1466 239.07 13.4764 235.807 13.4764C232.544 13.4764 229.91 15.1466 229.91 17.7382ZM233.002 17.7382C233.002 16.4136 234.318 15.4921 235.864 15.4921C237.353 15.4921 238.669 16.4136 238.669 17.7382C238.669 19.0628 237.353 19.9843 235.864 19.9843C234.318 19.9843 233.002 19.1204 233.002 17.7382ZM115.757 17.623C115.757 20.2723 118.333 22 121.653 22C124.974 22 127.55 20.2723 127.55 17.623C127.55 14.9738 124.916 13.1885 121.653 13.1885C118.333 13.1885 115.757 14.9738 115.757 17.623ZM118.848 17.623C118.848 16.1832 120.107 15.2618 121.653 15.2618C123.199 15.2618 124.458 16.2408 124.458 17.623C124.458 19.0628 123.199 19.9843 121.653 19.9843C120.107 19.9843 118.848 19.0628 118.848 17.623ZM135.908 17.3351C135.908 20.2147 138.484 22 141.69 22C144.896 22 147.53 20.1571 147.53 17.3351C147.53 14.5131 144.896 12.6126 141.69 12.6126C138.484 12.6126 135.908 14.4555 135.908 17.3351ZM139 17.3351C139 15.6649 140.202 14.6283 141.69 14.6283C143.179 14.6283 144.381 15.6649 144.381 17.3351C144.381 18.9476 143.179 19.9843 141.69 19.9843C140.202 19.9843 139 18.9476 139 17.3351Z" fill="#0067AF"/>
<path d="M0 0.806274H4.52264L13.2244 14.6859V0.806274H17.5181V21.3089H12.9382L4.29364 7.4869V21.3089H0V0.806274Z" fill="#243C7D"/>
<path d="M26.048 0.806274H21.5254V21.3089H26.048V0.806274Z" fill="#243C7D"/>
<path d="M38.0131 5.81675L32.46 21.3089H27.8801L35.7232 0.806274H40.4176L48.1461 21.3089H43.3945L38.0131 5.81675Z" fill="#243C7D"/>
<path d="M42.1922 14.6859L43.3944 18.0262H32.5745L33.7194 14.6859H42.1922Z" fill="#243C7D"/>
</g>
<defs>
<clipPath id="clip0_109_7705">
<rect width="263" height="22" fill="white"/>
</clipPath>
</defs>
</svg>
