<svg width="220" height="42" viewBox="0 0 220 42" fill="none" xmlns="http://www.w3.org/2000/svg">
<g clip-path="url(#clip0_109_7691)">
<path d="M32.9814 20.087C29.2652 17.6217 24.527 18.6261 22.0186 22.3696C19.9747 25.4739 16.8159 25.8391 15.6081 25.8391C11.6132 25.8391 8.91892 23.1 8.08277 20.2696V20.1783V20.087C7.80405 18.9 7.71115 18.3522 7.71115 17.0739C7.71115 10.3174 14.772 2.73913 24.9916 2.73913C35.4899 2.73913 41.4358 10.5913 43.0152 14.8826C43.0152 14.7913 42.9223 14.7 42.9223 14.6087C39.9493 6.11739 31.6807 0 22.0186 0C9.84797 0 0 9.67826 0 21.6391C0 32.3217 7.80405 41.4522 18.7669 41.4522C27.4071 41.4522 33.2601 36.7044 35.9544 30.0391C37.348 26.4783 36.326 22.2783 32.9814 20.087Z" fill="#003668"/>
<path d="M43.1081 15.2478C41.8075 11.0478 35.7686 2.64783 24.9916 2.64783C14.772 2.64783 7.71118 10.2261 7.71118 16.9826C7.71118 18.2609 7.80409 18.8087 8.0828 19.9957C7.9899 19.4478 7.89699 18.9913 7.89699 18.4435C7.89699 11.3217 15.1436 6.48261 22.4831 6.48261C32.5169 6.48261 40.6926 14.5174 40.6926 24.3783C40.6926 32.1391 36.1402 38.8043 29.544 42C37.9983 38.987 44.0372 31.0435 44.0372 21.6391C44.0372 19.4478 43.7585 17.4391 43.1081 15.2478Z" fill="#E6002D"/>
<path d="M69.4003 26.8435V28.7609H57.7871V26.8435H61.4104V21.0913H63.6401V26.8435H69.4003ZM66.1486 24.8348V15.9783H58.4374V14.0609H68.2854V24.9261H66.1486V24.8348ZM73.0236 30.587H70.7939V13.0565H73.0236V20.4522H75.3462V22.5522H73.0236V30.587Z" fill="#535454"/>
<path d="M86.4021 14.1522V16.0696H75.9038V14.1522H79.9916V12.6913H82.3143V14.1522H86.4021ZM76.6471 24.5609H90.7687V30.4044H88.5389V26.4783H76.6471V24.5609ZM85.3802 20.087C85.3802 20.6348 85.2873 21.0913 85.0085 21.5478C84.8227 22.0044 84.4511 22.3696 84.1724 22.7348C83.8008 23.1 83.3362 23.2826 82.8717 23.5565C82.4072 23.7391 81.8498 23.8304 81.2923 23.8304C80.7349 23.8304 80.1775 23.7391 79.7129 23.5565C79.2484 23.3739 78.7839 23.1 78.4123 22.7348C78.0406 22.3696 77.7619 22.0044 77.4832 21.5478C77.2974 21.0913 77.1116 20.6348 77.1116 20.087C77.1116 19.5391 77.2045 19.0826 77.4832 18.6261C77.669 18.1696 78.0406 17.8044 78.4123 17.4391C78.7839 17.0739 79.2484 16.8913 79.7129 16.6174C80.1775 16.4348 80.7349 16.3435 81.2923 16.3435C81.8498 16.3435 82.4072 16.4348 82.8717 16.6174C83.3362 16.8 83.8008 17.0739 84.1724 17.4391C84.544 17.8044 84.8227 18.1696 85.0085 18.6261C85.2873 19.0826 85.3802 19.5391 85.3802 20.087ZM83.2433 20.087C83.2433 19.5391 83.0575 19.0826 82.6859 18.7174C82.3143 18.3522 81.8498 18.1696 81.2923 18.1696C80.7349 18.1696 80.2704 18.3522 79.8987 18.7174C79.5271 19.0826 79.3413 19.5391 79.3413 20.087C79.3413 20.6348 79.5271 21.0913 79.8987 21.4565C80.2704 21.8217 80.7349 22.0044 81.2923 22.0044C81.8498 22.0044 82.3143 21.8217 82.6859 21.4565C83.0575 21 83.2433 20.5435 83.2433 20.087ZM90.7687 23.5565H88.5389V13.0565H90.7687V17.1652H93.37V19.2652H90.7687V23.5565Z" fill="#535454"/>
<path d="M103.404 28.213H101.174V16.0696H94.2991V14.0609H103.404V28.213ZM107.956 13.0565H110.186V30.587H107.956V13.0565Z" fill="#535454"/>
<path d="M119.755 22.9174V21.5478H112.601V19.7218H129.138V21.5478H121.985V22.9174H127.838V27.3913H116.132V28.487H128.024V30.3131H113.902V25.7478H125.515V24.6522H113.902V22.9174H119.755ZM120.87 15.0652L114.552 19.4478L113.252 17.8957L120.87 12.6913L128.488 17.8957L127.187 19.4478L120.87 15.0652Z" fill="#535454"/>
<path d="M130.718 15.4304V13.6043H141.031V15.4304H136.664L141.216 20.9087L139.637 22.1869L135.921 17.713L132.297 22.5522L130.718 21.2739L135.27 15.5217H130.718V15.4304ZM145.025 26.8435C145.025 27.3913 144.933 28.0304 144.654 28.4869C144.375 29.0348 144.096 29.4913 143.632 29.8565C143.26 30.2217 142.703 30.5869 142.145 30.7696C141.588 31.0435 140.938 31.1348 140.287 31.1348C139.637 31.1348 139.08 31.0435 138.429 30.7696C137.872 30.4956 137.314 30.2217 136.943 29.8565C136.571 29.4913 136.199 29.0348 135.921 28.4869C135.642 27.9391 135.549 27.3913 135.549 26.8435C135.549 26.2956 135.642 25.6565 135.921 25.2C136.199 24.6522 136.478 24.1956 136.943 23.8304C137.314 23.4652 137.872 23.1 138.429 22.9174C138.987 22.6435 139.637 22.5522 140.287 22.5522C140.938 22.5522 141.495 22.6435 142.145 22.9174C142.703 23.1913 143.167 23.4652 143.632 23.8304C144.003 24.1956 144.375 24.6522 144.654 25.2C144.84 25.6565 145.025 26.2043 145.025 26.8435ZM142.796 26.7522C142.796 26.113 142.517 25.5652 142.052 25.0174C141.588 24.5609 140.938 24.2869 140.287 24.2869C139.637 24.2869 139.08 24.5609 138.522 25.0174C138.058 25.4739 137.779 26.0217 137.779 26.7522C137.779 27.3913 138.058 28.0304 138.522 28.4869C138.987 28.9435 139.544 29.2174 140.287 29.2174C140.938 29.2174 141.588 28.9435 142.052 28.4869C142.61 28.0304 142.796 27.4826 142.796 26.7522ZM144.282 22.2782V18.4435H140.938V16.5261H144.282V12.8739H146.512V22.1869H144.282V22.2782Z" fill="#535454"/>
<path d="M161.934 16.4348V13.787H164.164V23.8304H158.311V27.3913H165.464V29.2174H148.927V27.3H156.081V23.7391H150.321V13.6956H152.551V16.4348H161.934ZM161.934 18.3522H152.458V21.913H161.934V18.3522Z" fill="#535454"/>
<path d="M168.53 20.2696V13.1478H182.373V14.8826H170.76V15.7957H182.28V17.5304H170.76V18.5348H182.466V20.2696H176.52V21.3652H183.674V23.1913H167.137V21.3652H174.29V20.2696H168.53ZM179.772 27.4826C179.772 28.0304 179.679 28.487 179.4 28.9435C179.214 29.4 178.843 29.8565 178.471 30.1304C178.1 30.4957 177.542 30.7696 177.078 30.9522C176.52 31.1348 175.963 31.2261 175.312 31.2261C174.662 31.2261 174.105 31.1348 173.64 30.9522C173.083 30.7696 172.618 30.4957 172.247 30.1304C171.875 29.7652 171.503 29.4 171.317 28.9435C171.132 28.487 170.946 27.9391 170.946 27.4826C170.946 26.9348 171.039 26.4783 171.317 26.0217C171.503 25.5652 171.875 25.1087 172.247 24.7435C172.618 24.3783 173.083 24.1044 173.64 23.9217C174.198 23.7391 174.755 23.6478 175.312 23.6478C175.963 23.6478 176.52 23.7391 177.078 23.9217C177.635 24.1044 178.1 24.3783 178.471 24.7435C178.843 25.1087 179.122 25.5652 179.4 26.0217C179.679 26.387 179.772 26.9348 179.772 27.4826ZM177.635 27.4826C177.635 26.9348 177.449 26.387 176.985 26.0217C176.52 25.6565 176.056 25.3826 175.498 25.3826C174.941 25.3826 174.383 25.5652 173.919 26.0217C173.454 26.387 173.268 26.9348 173.268 27.4826C173.268 28.0304 173.454 28.5783 173.919 28.9435C174.383 29.4 174.848 29.5826 175.498 29.5826C176.056 29.5826 176.613 29.4 176.985 28.9435C177.356 28.487 177.635 28.0304 177.635 27.4826Z" fill="#535454"/>
<path d="M190.735 12.9652L196.402 21.913L194.637 23.0087L190.828 16.7087L187.019 23.1L185.16 22.0043L190.735 12.9652ZM186.554 30.2217V24.3783H188.784V28.3043H201.326V30.2217H186.554ZM198.817 13.0565H201.047V24.2869H198.817V13.0565Z" fill="#535454"/>
<path d="M203.556 24.1044H220.093V26.0217H212.939V30.4957H210.709V26.0217H203.556V24.1044ZM207.086 15.5217H216.47V13.3304H218.699V21.7304H204.856V13.3304H207.086V15.5217ZM216.47 17.4391H206.993V19.8131H216.47V17.4391Z" fill="#535454"/>
</g>
<defs>
<clipPath id="clip0_109_7691">
<rect width="220" height="42" fill="white"/>
</clipPath>
</defs>
</svg>
