<svg width="24" height="24" viewBox="0 0 24 24" fill="none" xmlns="http://www.w3.org/2000/svg">
<path d="M8.77734 13.9336C8.42139 13.9336 8.13281 14.2222 8.13281 14.5781V15.8672C8.13281 16.2231 8.42139 16.5117 8.77734 16.5117C9.1333 16.5117 9.42188 16.2231 9.42188 15.8672V14.5781C9.42188 14.2222 9.1333 13.9336 8.77734 13.9336Z" fill="#560096" stroke="#560096" stroke-width="0.3"/>
<path d="M15.2227 16.5117C15.5786 16.5117 15.8672 16.2231 15.8672 15.8672V14.5781C15.8672 14.2222 15.5786 13.9336 15.2227 13.9336C14.8667 13.9336 14.5781 14.2222 14.5781 14.5781V15.8672C14.5781 16.2231 14.8667 16.5117 15.2227 16.5117Z" fill="#560096" stroke="#560096" stroke-width="0.3"/>
<path d="M23 8.5625V3.79297C23 2.25293 21.7471 1 20.207 1H12.2148C10.6748 1 9.42188 2.25293 9.42188 3.79297V8.77734H8.5625C6.20665 8.77734 4.23086 10.4346 3.73904 12.6445H3.62109V8.66648C4.37129 8.40042 4.91016 7.684 4.91016 6.84375C4.91016 5.77757 4.04275 4.91016 2.97656 4.91016C1.91038 4.91016 1.04297 5.77757 1.04297 6.84375C1.04297 7.684 1.58184 8.40042 2.33203 8.66648V12.7408C1.55958 12.9944 1 13.7219 1 14.5781V17.1562C1 18.2224 1.86741 19.0898 2.93359 19.0898H3.72968C4.2053 21.3212 6.1914 23 8.5625 23H15.4375C17.8086 23 19.7947 21.3212 20.2703 19.0898H21.0664C22.1326 19.0898 23 18.2224 23 17.1562V14.5781C23 13.5119 22.1326 12.6445 21.0664 12.6445H20.2607C20.1605 12.1942 19.9979 11.7604 19.7774 11.3555H20.207C21.7471 11.3555 23 10.1025 23 8.5625ZM10.7109 3.79297C10.7109 2.96371 11.3856 2.28906 12.2148 2.28906H20.207C21.0363 2.28906 21.7109 2.96371 21.7109 3.79297V8.5625C21.7109 9.39175 21.0363 10.0664 20.207 10.0664H12.6445C12.5445 10.0664 12.4458 10.0897 12.3563 10.1344L10.7109 10.9571V3.79297ZM2.97656 6.19922C3.33196 6.19922 3.62109 6.48836 3.62109 6.84375C3.62109 7.19914 3.33196 7.48828 2.97656 7.48828C2.62117 7.48828 2.33203 7.19914 2.33203 6.84375C2.33203 6.48836 2.62117 6.19922 2.97656 6.19922ZM2.28906 17.1562V14.5781C2.28906 14.2227 2.5782 13.9336 2.93359 13.9336H3.62109V17.8008H2.93359C2.5782 17.8008 2.28906 17.5116 2.28906 17.1562ZM21.7109 14.5781V17.1562C21.7109 17.5116 21.4218 17.8008 21.0664 17.8008H20.3789V13.9336H21.0664C21.4218 13.9336 21.7109 14.2227 21.7109 14.5781ZM19.0898 13.7188V18.0586C19.0898 20.0725 17.4514 21.7109 15.4375 21.7109H8.5625C6.5486 21.7109 4.91016 20.0725 4.91016 18.0586V13.7188C4.91016 11.7048 6.5486 10.0664 8.5625 10.0664H9.42188V12C9.42188 12.4783 9.92641 12.7906 10.3546 12.5765L12.7967 11.3555H18.2211C18.7813 12.0148 19.0898 12.851 19.0898 13.7188Z" fill="#560096" stroke="#560096" stroke-width="0.3"/>
<path d="M10.0664 18.4453C10.0664 18.8013 10.355 19.0898 10.7109 19.0898H13.2891C13.645 19.0898 13.9336 18.8013 13.9336 18.4453C13.9336 18.0894 13.645 17.8008 13.2891 17.8008H10.7109C10.355 17.8008 10.0664 18.0894 10.0664 18.4453Z" fill="#560096" stroke="#560096" stroke-width="0.3"/>
<path d="M15.3079 8C15.186 8 15.0679 7.95761 14.9811 7.88321L13.135 6.28341C12.955 6.12743 12.955 5.87386 13.135 5.71788C13.315 5.56189 13.6076 5.56189 13.7876 5.71788L15.2848 7.01532L18.1906 4.13727C18.3586 3.97009 18.6503 3.95329 18.8423 4.09967C19.0343 4.24525 19.0537 4.49802 18.8857 4.6644L15.655 7.86402C15.571 7.94721 15.451 7.996 15.3236 8C15.318 8 15.3125 8 15.3079 8V8Z" fill="#560096" stroke="#560096" stroke-width="0.6"/>
</svg>
