<svg width="18" height="18" viewBox="0 0 18 18" fill="none" xmlns="http://www.w3.org/2000/svg">
<path fill-rule="evenodd" clip-rule="evenodd" d="M4.5 1.8C3.00883 1.8 1.8 3.00883 1.8 4.5V13.5C1.8 14.9912 3.00883 16.2 4.5 16.2H13.5C14.9912 16.2 16.2 14.9912 16.2 13.5V8.1C16.2 7.60293 16.6029 7.2 17.1 7.2C17.5971 7.2 18 7.60293 18 8.1V13.5C18 15.9853 15.9853 18 13.5 18H4.5C2.01472 18 0 15.9853 0 13.5V4.5C0 2.01472 2.01472 0 4.5 0H9.9C10.3971 0 10.8 0.402948 10.8 0.9C10.8 1.39705 10.3971 1.8 9.9 1.8H4.5Z" fill="#560096"/>
<path fill-rule="evenodd" clip-rule="evenodd" d="M15.4775 1.8C15.286 1.8 15.1022 1.87611 14.9667 2.01158L7.87735 9.10089L7.53688 10.463L8.89903 10.1226L15.9883 3.03319C16.1238 2.89772 16.1999 2.71398 16.1999 2.52239C16.1999 2.3308 16.1238 2.14706 15.9883 2.01158C15.8529 1.87611 15.6691 1.8 15.4775 1.8V1.8ZM13.694 0.738792C14.167 0.265752 14.8085 0 15.4775 0C16.1466 0 16.7881 0.265752 17.2611 0.738792C17.7342 1.21183 17.9999 1.85341 17.9999 2.52239C17.9999 3.19136 17.7342 3.83295 17.2611 4.30599L9.9955 11.5716C9.88021 11.687 9.73567 11.7688 9.57745 11.8084L6.51821 12.5731C6.21151 12.6498 5.88707 12.56 5.66352 12.3364C5.43998 12.1128 5.35012 11.7884 5.4268 11.4818L6.1916 8.42247C6.23115 8.26425 6.31298 8.11971 6.42833 8.00442L13.694 0.738792Z" fill="#560096"/>
<path fill-rule="evenodd" clip-rule="evenodd" d="M11.9638 2.9638C12.3152 2.61233 12.8851 2.61233 13.2366 2.9638L15.0366 4.7638C15.388 5.11527 15.388 5.68512 15.0366 6.03659C14.6851 6.38806 14.1152 6.38806 13.7638 6.03659L11.9638 4.23659C11.6123 3.88512 11.6123 3.31527 11.9638 2.9638Z" fill="#560096"/>
</svg>
