<svg width="28" height="28" viewBox="0 0 28 28" fill="none" xmlns="http://www.w3.org/2000/svg">
<g clip-path="url(#clip0_187_514)">
<path d="M22.1665 22.3335H5.83317C5.52375 22.3335 5.22701 22.2106 5.00821 21.9918C4.78942 21.773 4.6665 21.4762 4.6665 21.1668V10.6668C4.6665 8.19148 5.64983 5.81751 7.40017 4.06717C9.15051 2.31683 11.5245 1.3335 13.9998 1.3335C16.4752 1.3335 18.8492 2.31683 20.5995 4.06717C22.3498 5.81751 23.3332 8.19148 23.3332 10.6668V21.1668C23.3332 21.4762 23.2103 21.773 22.9915 21.9918C22.7727 22.2106 22.4759 22.3335 22.1665 22.3335ZM6.99984 20.0002H20.9998V10.6668C20.9998 8.81031 20.2623 7.02984 18.9496 5.71708C17.6368 4.40433 15.8564 3.66683 13.9998 3.66683C12.1433 3.66683 10.3628 4.40433 9.05009 5.71708C7.73734 7.02984 6.99984 8.81031 6.99984 10.6668V20.0002Z" fill="#560096"/>
<path d="M24.4999 22.3333H3.49992C3.1905 22.3333 2.89375 22.2104 2.67496 21.9916C2.45617 21.7728 2.33325 21.4761 2.33325 21.1667C2.33325 20.8572 2.45617 20.5605 2.67496 20.3417C2.89375 20.1229 3.1905 20 3.49992 20H24.4999C24.8093 20 25.1061 20.1229 25.3249 20.3417C25.5437 20.5605 25.6666 20.8572 25.6666 21.1667C25.6666 21.4761 25.5437 21.7728 25.3249 21.9916C25.1061 22.2104 24.8093 22.3333 24.4999 22.3333Z" fill="#560096"/>
<path d="M13.9997 27C12.762 27 11.575 26.5083 10.6998 25.6332C9.82467 24.758 9.33301 23.571 9.33301 22.3333V21.1667C9.33301 20.8572 9.45592 20.5605 9.67472 20.3417C9.89351 20.1229 10.1903 20 10.4997 20H17.4997C17.8091 20 18.1058 20.1229 18.3246 20.3417C18.5434 20.5605 18.6663 20.8572 18.6663 21.1667V22.3333C18.6663 23.571 18.1747 24.758 17.2995 25.6332C16.4243 26.5083 15.2374 27 13.9997 27ZM11.6663 22.3333C11.6663 22.9522 11.9122 23.5457 12.3498 23.9832C12.7873 24.4208 13.3808 24.6667 13.9997 24.6667C14.6185 24.6667 15.212 24.4208 15.6496 23.9832C16.0872 23.5457 16.333 22.9522 16.333 22.3333H11.6663Z" fill="#560096"/>
<path d="M14.0002 3.66667C13.6907 3.66667 13.394 3.54375 13.1752 3.32496C12.9564 3.10617 12.8335 2.80942 12.8335 2.5V0.166667C12.8335 -0.142753 12.9564 -0.439499 13.1752 -0.658291C13.394 -0.877084 13.6907 -1 14.0002 -1C14.3096 -1 14.6063 -0.877084 14.8251 -0.658291C15.0439 -0.439499 15.1668 -0.142753 15.1668 0.166667V2.5C15.1668 2.80942 15.0439 3.10617 14.8251 3.32496C14.6063 3.54375 14.3096 3.66667 14.0002 3.66667Z" fill="#560096"/>
</g>
<defs>
<clipPath id="clip0_187_514">
<rect width="28" height="28" fill="white"/>
</clipPath>
</defs>
</svg>
