<svg width="30" height="30" viewBox="0 0 30 30" fill="none" xmlns="http://www.w3.org/2000/svg">
<path d="M23.6257 8.6719C23.6257 3.89024 19.743 0 14.9708 0C10.1985 0 6.31576 3.89024 6.31576 8.6719C6.31576 11.6337 7.80574 14.253 10.0738 15.8181C7.95627 16.5502 6.01541 17.7596 4.38486 19.3934C1.55725 22.2266 0 25.9933 0 30H2.33918C2.33918 23.0213 8.00566 17.3437 14.9708 17.3437C19.7431 17.3437 23.6257 13.4535 23.6257 8.6719ZM14.9708 15C11.4882 15 8.655 12.1612 8.655 8.6719C8.655 5.18258 11.4882 2.34375 14.9708 2.34375C18.4533 2.34375 21.2865 5.18252 21.2865 8.6719C21.2865 12.1613 18.4533 15 14.9708 15ZM30 25.0781H25.0877H22.7486H17.8363V22.7344H22.7486H25.0877H30V25.0781Z" fill="url(#paint0_linear_186_41)"/>
<defs>
<linearGradient id="paint0_linear_186_41" x1="15" y1="0" x2="15" y2="30" gradientUnits="userSpaceOnUse">
<stop stop-color="#6137A4"/>
<stop offset="1" stop-color="#9D50BB"/>
</linearGradient>
</defs>
</svg>
